<svg width="80" height="80" viewBox="0 0 80 80" fill="none" xmlns="http://www.w3.org/2000/svg">
<path d="M76.1377 32.7271H60.5886C58.8606 32.7271 57.4541 34.1336 57.4541 35.8616V68.8652C57.4541 70.5932 58.8606 71.9998 60.5872 71.9998H76.1363C77.8657 71.9998 79.2723 70.5932 79.2723 68.8652V35.8616C79.2723 34.1336 77.8657 32.7271 76.1377 32.7271ZM70.545 67.6361H66.1814C65.377 67.6361 64.7268 66.9845 64.7268 66.1816C64.7268 65.3787 65.377 64.727 66.1814 64.727H70.545C71.3494 64.727 71.9996 65.3787 71.9996 66.1816C71.9996 66.9845 71.3494 67.6361 70.545 67.6361Z" fill="black"/>
<path d="M70.0358 9.96494L70.0363 9.96544C70.9663 10.8941 71.4998 12.182 71.4998 13.4967V29.3182H60.5874C56.9787 29.3182 54.0452 32.2535 54.0452 35.8618V54.0455H6.22378C4.90925 54.0455 3.62111 53.512 2.68933 52.5803L2.68908 52.58C1.76073 51.653 1.22705 50.3637 1.22705 49.0487V13.4967C1.22705 10.7416 3.46865 8.5 6.22378 8.5H66.5016C67.8367 8.5 69.0912 9.019 70.0358 9.96494ZM34.1816 49.8862H38.5452C39.6243 49.8862 40.4998 49.0107 40.4998 47.9316C40.4998 46.8526 39.6243 45.9771 38.5452 45.9771H34.1816C33.1025 45.9771 32.227 46.8526 32.227 47.9316C32.227 49.0107 33.1025 49.8862 34.1816 49.8862Z" fill="#FFD209" stroke="black"/>
<path d="M51.6357 69.091H45.8176V57.4546H26.9085V69.091H21.0903C20.2874 69.091 19.6357 69.7426 19.6357 70.5455C19.6357 71.3484 20.2874 72 21.0903 72H26.9085H45.8176H51.6357C52.4401 72 53.0903 71.3484 53.0903 70.5455C53.0903 69.7426 52.4401 69.091 51.6357 69.091Z" fill="black"/>
</svg>
