<svg width="81" height="80" viewBox="0 0 81 80" fill="none" xmlns="http://www.w3.org/2000/svg">
<path fill-rule="evenodd" clip-rule="evenodd" d="M40.5 9.99967C27.6134 9.99967 17.1667 20.4464 17.1667 33.333V34.9997C17.1667 36.8407 15.6743 38.333 13.8333 38.333C11.9924 38.333 10.5 36.8407 10.5 34.9997V33.333C10.5 16.7645 23.9315 3.33301 40.5 3.33301C57.0687 3.33301 70.5 16.7645 70.5 33.333V34.9997C70.5 36.8407 69.0077 38.333 67.1667 38.333C65.3257 38.333 63.8333 36.8407 63.8333 34.9997V33.333C63.8333 20.4464 53.3867 9.99967 40.5 9.99967Z" fill="black"/>
<path fill-rule="evenodd" clip-rule="evenodd" d="M67.1665 55C69.0075 55 70.4998 56.4923 70.4998 58.3333V60C70.4998 69.2047 63.0378 76.6667 53.8332 76.6667H40.4998C38.6588 76.6667 37.1665 75.1743 37.1665 73.3333C37.1665 71.4923 38.6588 70 40.4998 70H53.8332C59.3562 70 63.8332 65.523 63.8332 60V58.3333C63.8332 56.4923 65.3255 55 67.1665 55Z" fill="black"/>
<path d="M23.258 33.2121L23.258 33.2121C25.3471 34.2565 26.6668 36.392 26.6668 38.7277V54.6073C26.6668 56.9433 25.3472 59.0785 23.258 60.1231L20.1641 61.6701C20.1641 61.6701 20.1641 61.6701 20.1641 61.6701C18.2004 62.6519 15.7437 62.5527 13.868 61.094L13.8679 61.0939C12.3825 59.9389 10.0884 57.9935 8.14008 55.6127L8.14005 55.6127C6.25484 53.3093 4.3335 50.1657 4.3335 46.6677C4.3335 43.1697 6.25482 40.0261 8.14006 37.7224C10.0884 35.3419 12.3825 33.3963 13.868 32.2412L13.561 31.8465L13.868 32.2412C15.7437 30.7826 18.2005 30.6833 20.1641 31.6652L23.258 33.2121Z" fill="#FFD209" stroke="black"/>
<path d="M67.1322 32.2412L67.1322 32.2412C68.6178 33.3963 70.912 35.3419 72.8602 37.7223C74.7456 40.026 76.6668 43.1697 76.6668 46.6677C76.6668 50.1657 74.7456 53.3093 72.8602 55.6126L72.8602 55.6127C70.912 57.9935 68.6178 59.9389 67.1323 61.0939L67.1322 61.094C65.2566 62.5527 62.8 62.6519 60.8361 61.6701C60.8361 61.6701 60.8361 61.6701 60.8361 61.6701L57.7425 60.1231L57.7424 60.1231C55.6532 59.0785 54.3335 56.9433 54.3335 54.6073V38.7277C54.3335 36.392 55.6532 34.2565 57.7424 33.2121L57.7424 33.2121L60.8361 31.6652C60.8361 31.6652 60.8361 31.6652 60.8361 31.6652C62.8 30.6833 65.2566 30.7826 67.1322 32.2412Z" fill="#FFD209" stroke="black"/>
</svg>
