<svg width="81" height="80" viewBox="0 0 81 80" fill="none" xmlns="http://www.w3.org/2000/svg">
<path fill-rule="evenodd" clip-rule="evenodd" d="M17.1665 73.3333C17.1665 71.4923 18.6589 70 20.4998 70H60.4998C62.3408 70 63.8332 71.4923 63.8332 73.3333C63.8332 75.1743 62.3408 76.6667 60.4998 76.6667H20.4998C18.6589 76.6667 17.1665 75.1743 17.1665 73.3333Z" fill="black"/>
<path d="M42.243 5.68641L42.243 5.68646L55.8657 29.9046L56.1412 30.3943L56.5956 30.0638L72.6569 18.3829L72.3628 17.9785L72.6569 18.3828C73.3425 17.8842 74.268 17.872 74.9668 18.3525C75.6652 18.8329 75.9849 19.7016 75.7647 20.5203C75.7647 20.5203 75.7647 20.5203 75.7647 20.5204L64.098 63.8536C63.8628 64.7267 63.0711 65.3337 62.1665 65.3337H18.8333C17.929 65.3337 17.1372 64.7267 16.9021 63.8537L5.23544 20.5203L4.75263 20.6503L5.23544 20.5203C5.01501 19.7016 5.33472 18.8329 6.03325 18.3525C6.73179 17.872 7.65736 17.8842 8.34301 18.3829L8.6371 17.9785L8.34301 18.3829L24.4043 30.0638L24.8587 30.3943L25.1342 29.9046L38.757 5.68646L38.757 5.68641C39.1111 5.05672 39.7775 4.66699 40.4998 4.66699C41.2226 4.66699 41.8889 5.05675 42.243 5.68641ZM40.4998 44.5003C37.4624 44.5003 34.9998 46.9629 34.9998 50.0003C34.9998 53.0378 37.4624 55.5003 40.4998 55.5003H40.5332C43.5706 55.5003 46.0332 53.0378 46.0332 50.0003C46.0332 46.9629 43.5706 44.5003 40.5332 44.5003H40.4998Z" fill="#FFD209" stroke="black"/>
</svg>
