<svg width="80" height="80" viewBox="0 0 80 80" fill="none" xmlns="http://www.w3.org/2000/svg">
<path fill-rule="evenodd" clip-rule="evenodd" d="M77.5 45.075V34.925L71.2873 32.5338C70.4994 29.2219 69.1867 26.0584 67.4016 23.1598L70.1053 17.0722L62.928 9.895L56.8383 12.5995C53.9402 10.815 50.778 9.50234 47.4669 8.71438L45.075 2.5H34.925L32.533 8.71422C29.222 9.50219 26.0597 10.815 23.1616 12.5994L17.072 9.89484L9.89469 17.0722L12.5991 23.1611C10.8144 26.0592 9.50172 29.222 8.71375 32.5333L2.5 34.9252V45.075L8.71313 47.4666C8.96344 48.5184 9.26672 49.5555 9.62125 50.5737C10.1661 50.357 10.7281 50.1689 11.3075 50.0136C13.5509 49.4125 15.885 49.3291 18.1533 49.7697L20.9348 46.9881C20.1363 44.8095 19.7002 42.4558 19.7002 40.0002C19.7002 28.788 28.7878 19.7005 39.9998 19.7005C51.2122 19.7005 60.2997 28.788 60.2997 40.0002C60.2997 51.2125 51.2122 60.3 39.9998 60.3C37.5444 60.3 35.1908 59.8639 33.0122 59.0653L30.2289 61.8486C30.7864 64.7227 30.5045 67.6769 29.4289 70.3783C30.4462 70.7323 31.482 71.0355 32.5331 71.2856L34.925 77.5H45.075L47.4662 71.2873C50.7781 70.4992 53.9416 69.1866 56.8402 67.4014L62.9278 70.1053L70.105 62.928L67.4005 56.8383C69.1848 53.9403 70.4975 50.7781 71.2855 47.4669L77.5 45.075Z" fill="black"/>
<path fill-rule="evenodd" clip-rule="evenodd" d="M27.5872 61.503C29.3716 68.2872 25.3383 75.2447 18.5552 77.0623C11.7527 78.885 4.76047 74.8481 2.93781 68.0456C1.11516 61.2431 5.15203 54.2509 11.9545 52.4283C14.1778 51.8325 16.4211 51.8634 18.4978 52.4117C18.7742 52.4847 19.0475 52.4109 19.2497 52.2087L41.7305 29.7281C41.8756 29.583 42.0497 29.5072 42.2548 29.4998L49.968 29.2237C50.4239 29.2075 50.7928 29.5764 50.7766 30.0323L50.5006 37.7453C50.4933 37.9506 50.4175 38.1247 50.2723 38.2698L49.1472 39.395C48.9855 39.5569 48.7845 39.6342 48.5563 39.6228L44.8519 39.4394C44.3875 39.4166 44.0102 39.7939 44.033 40.2583L44.1908 43.4473C44.2138 43.9114 43.8359 44.2892 43.3719 44.2661L40.1828 44.1084C39.7186 44.0855 39.3411 44.463 39.3639 44.9272L39.5472 48.6317C39.5586 48.8602 39.4809 49.0609 39.3194 49.2227L27.7903 60.7517C27.5881 60.9538 27.5145 61.2269 27.5872 61.503ZM10.3923 64.2459C11.873 62.7652 14.2734 62.7652 15.7541 64.2458C17.2345 65.7266 17.2345 68.127 15.7541 69.6078C14.2734 71.0883 11.873 71.0883 10.3923 69.6077C8.91172 68.127 8.91172 65.7266 10.3923 64.2459Z" fill="#FFD209"/>
<path d="M32.6489 70.7992C31.7814 70.5928 30.9245 70.3496 30.08 70.071C31.0056 67.4995 31.247 64.7275 30.7684 62.0162L33.1419 59.6427C35.2897 60.3925 37.5977 60.8 39.9998 60.8C51.4883 60.8 60.7997 51.4886 60.7997 40.0002C60.7997 28.5118 51.4883 19.2005 39.9998 19.2005C28.5117 19.2005 19.2002 28.5118 19.2002 40.0002C19.2002 42.4025 19.6077 44.7106 20.3574 46.8584L17.9857 49.2301C15.7254 48.8309 13.4079 48.9332 11.1781 49.5306L11.178 49.5306C10.7523 49.6448 10.3357 49.776 9.92847 49.9227C9.64948 49.0772 9.40618 48.2191 9.19954 47.3508L9.13856 47.0946L8.89274 46.9999L3 44.7317V35.2685L8.89337 32.9999L9.13919 32.9053L9.20017 32.649C9.97578 29.3897 11.2679 26.2763 13.0248 23.4233L13.163 23.1989L13.056 22.9581L10.491 17.183L17.1828 10.4911L22.9586 13.0563L23.1994 13.1633L23.4237 13.0251C26.2768 11.2685 29.3897 9.97624 32.6487 9.20063L32.905 9.13965L32.9996 8.89384L35.2683 3H44.7317L47.0002 8.89398L47.0949 9.13981L47.3511 9.20079C50.6103 9.9764 53.7231 11.2685 56.5761 13.0253L56.8005 13.1634L57.0412 13.0565L62.8172 10.4913L69.509 17.183L66.9446 22.9569L66.8377 23.1977L66.9758 23.422C68.7332 26.2755 70.0253 29.3895 70.8009 32.6495L70.8619 32.9058L71.1077 33.0004L77 35.2683V44.7317L71.1059 47.0002L70.86 47.0949L70.799 47.3511C70.0234 50.6104 68.7313 53.7232 66.9747 56.5761L66.8366 56.8005L66.9435 57.0412L69.5087 62.8172L62.817 69.509L57.0431 66.9445L56.8023 66.8375L56.578 66.9757C53.7245 68.733 50.6105 70.0252 47.3505 70.8009L47.0942 70.8619L46.9996 71.1077L44.7317 77H35.2683L32.9998 71.106L32.9051 70.8602L32.6489 70.7992ZM48.7936 39.0414L48.7935 39.0416C48.7317 39.1034 48.6684 39.1278 48.5812 39.1234L48.581 39.1234L44.8766 38.94L44.8764 38.94C44.1169 38.9027 43.4963 39.5233 43.5336 40.2828L43.5336 40.283L43.6914 43.4721C43.6997 43.6409 43.5654 43.7751 43.3968 43.7667L43.3966 43.7667L40.2075 43.609C39.448 43.5715 38.8272 44.1924 38.8645 44.9517L38.8645 44.9519L39.0478 48.6564L39.0478 48.6567C39.0521 48.7436 39.0278 48.8071 38.9656 48.8693L27.4369 60.398C27.4369 60.3981 27.4368 60.3981 27.4368 60.3982C27.1086 60.7261 26.9858 61.1824 27.1036 61.6302C28.818 68.1483 24.9429 74.833 18.4257 76.5794C11.89 78.3306 5.17196 74.452 3.42078 67.9162C1.66959 61.3804 5.54818 54.6624 12.0839 52.9112C14.2207 52.3386 16.3754 52.3685 18.3702 52.8952C18.8187 53.0136 19.2752 52.8903 19.6032 52.5623L42.084 30.0817C42.1398 30.0259 42.1939 30.0023 42.2727 29.9995L49.9858 29.7234C50.1517 29.7175 50.2828 29.8486 50.2769 30.0145L50.0009 37.7274C49.9981 37.8065 49.9745 37.8606 49.9188 37.9163L48.7936 39.0414ZM16.1077 63.8923L16.1076 63.8922C14.4317 62.2163 11.7147 62.2163 10.0388 63.8924C8.3629 65.5683 8.3629 68.2853 10.0388 69.9612C11.7147 71.6371 14.4317 71.6371 16.1076 69.9614L16.1077 69.9613C17.7833 68.2853 17.7833 65.5683 16.1077 63.8923Z" stroke="black"/>
</svg>
