<svg width="81" height="80" viewBox="0 0 81 80" fill="none" xmlns="http://www.w3.org/2000/svg">
<path d="M66.2812 70.625H47.0995C46.3914 68.6394 44.8294 67.0773 42.8438 66.3692V59.5794L58.5428 44.197C63.5323 39.3081 66.2812 32.7667 66.2812 25.7812C66.2812 11.5655 54.7158 0 40.5 0C26.2842 0 14.7188 11.5655 14.7188 25.7812C14.7188 32.7667 17.4677 39.3081 22.4572 44.197L38.1562 59.5794V66.3692C36.1706 67.0773 34.6086 68.6394 33.9005 70.625H14.7188V75.3125H33.9005C34.8713 78.0347 37.4484 80 40.5 80C43.5516 80 46.1288 78.0347 47.0995 75.3125H66.2812V70.625ZM40.4108 14.0625H47.442C51.3192 14.0625 54.4733 17.2166 54.4733 21.0938C54.4733 24.9709 51.3192 28.125 47.442 28.125H45.0983V37.5H40.4108V14.0625ZM35.7233 37.5H31.0358V14.0625H35.7233V37.5Z" fill="black"/>
<path d="M35.7233 37.5H31.0358V14.0625H35.7233V37.5Z" fill="#FFD209"/>
<path d="M40.4108 14.0625H47.442C51.3192 14.0625 54.4733 17.2166 54.4733 21.0938C54.4733 24.9709 51.3192 28.125 47.442 28.125H45.0983V37.5H40.4108V14.0625Z" fill="#FFD209"/>
<path d="M49.7856 21.0938C49.7856 19.8006 48.735 18.75 47.4419 18.75H45.0981V23.4375H47.4419C48.735 23.4375 49.7856 22.3869 49.7856 21.0938Z" fill="black"/>
</svg>
