<svg width="80" height="80" viewBox="0 0 80 80" fill="none" xmlns="http://www.w3.org/2000/svg">
<g clip-path="url(#clip0_698_324)">
<path d="M8.4598 76.5319L8.81335 76.1784L8.4598 76.5319C8.86613 76.9382 9.41723 77.1665 9.99186 77.1665H36.8534C37.178 77.6294 37.6017 78.0157 38.095 78.2967C38.673 78.6258 39.3267 78.7989 39.9919 78.7989C40.657 78.7989 41.3107 78.6258 41.8887 78.2967C42.382 78.0157 42.8058 77.6294 43.1304 77.1665H69.9919C70.5665 77.1665 71.1176 76.9382 71.5239 76.5319C71.9303 76.1256 72.1585 75.5745 72.1585 74.9998C72.1585 74.4252 71.9303 73.8741 71.5239 73.4678C71.1176 73.0614 70.5665 72.8332 69.9919 72.8332C62.5577 72.8332 57.1721 72.8543 53.2599 72.8697C48.3218 72.8891 45.7313 72.8992 44.3317 72.846C43.7035 72.8221 43.3509 72.7862 43.1432 72.7417C43.0429 72.7202 42.9955 72.7005 42.9755 72.6903C42.9619 72.6833 42.9609 72.6811 42.9586 72.6785C42.9474 72.6659 42.9355 72.6487 42.8916 72.5803C42.8523 72.519 42.796 72.4317 42.7153 72.3344C42.5872 72.18 42.4151 72.0209 42.1585 71.8521V66.6665V66.1665H41.6585H38.3252H37.8252V66.6665V71.848C37.5558 72.0198 37.3748 72.1813 37.2406 72.3381C37.1556 72.4374 37.097 72.5261 37.0548 72.5915L37.054 72.5927C37.0072 72.6651 36.9956 72.6831 36.9822 72.6988C36.9788 72.7027 36.9788 72.7035 36.9693 72.7086C36.9533 72.7171 36.9106 72.7359 36.815 72.7568C36.6157 72.8005 36.2729 72.8357 35.6526 72.8585C34.3228 72.9075 31.8896 72.8966 27.305 72.8759C23.3546 72.8581 17.8071 72.8332 9.99186 72.8332C9.41723 72.8332 8.86613 73.0614 8.4598 73.4678C8.05347 73.8741 7.8252 74.4252 7.8252 74.9998C7.8252 75.5745 8.05347 76.1256 8.4598 76.5319Z" fill="#FFD209" stroke="black"/>
<path d="M26.6587 46.6665H53.3254V49.9998H26.6587V46.6665Z" fill="black"/>
<path d="M56.6585 33.3335H23.3252V43.3335H56.6585V33.3335ZM27.1419 39.5168C26.8503 39.2244 26.6777 38.8342 26.6575 38.4219C26.6372 38.0095 26.7708 37.6042 27.0322 37.2847C27.2937 36.9651 27.6644 36.754 28.0727 36.6922C28.4809 36.6304 28.8975 36.7223 29.2419 36.9502C29.4362 37.0788 29.6015 37.2467 29.7269 37.4432C29.8523 37.6396 29.9351 37.8602 29.97 38.0906C30.0049 38.321 29.9911 38.5562 29.9294 38.781C29.8678 39.0058 29.7597 39.2151 29.6121 39.3955C29.4645 39.5759 29.2807 39.7233 29.0726 39.8282C28.8645 39.9332 28.6367 39.9933 28.4039 40.0047C28.1711 40.0162 27.9385 39.9787 27.7211 39.8946C27.5038 39.8106 27.3064 39.6819 27.1419 39.5168ZM36.1752 39.5168C35.8614 39.8307 35.4357 40.007 34.9919 40.007C34.548 40.007 34.1224 39.8307 33.8085 39.5168C33.4947 39.203 33.3184 38.7773 33.3184 38.3335C33.3184 37.8897 33.4947 37.464 33.8085 37.1502C34.1224 36.8363 34.548 36.66 34.9919 36.66C35.4357 36.66 35.8614 36.8363 36.1752 37.1502C36.489 37.464 36.6653 37.8897 36.6653 38.3335C36.6653 38.7773 36.489 39.203 36.1752 39.5168ZM51.6585 40.0002H43.3252C42.8832 40.0002 42.4592 39.8246 42.1467 39.512C41.8341 39.1994 41.6585 38.7755 41.6585 38.3335C41.6585 37.8915 41.8341 37.4675 42.1467 37.155C42.4592 36.8424 42.8832 36.6668 43.3252 36.6668H51.6585C52.1006 36.6668 52.5245 36.8424 52.837 37.155C53.1496 37.4675 53.3252 37.8915 53.3252 38.3335C53.3252 38.7755 53.1496 39.1994 52.837 39.512C52.5245 39.8246 52.1006 40.0002 51.6585 40.0002Z" fill="black"/>
<path d="M18.3238 55.5H18.3251H19.9918H20.4918V55V51.6667C20.4918 51.3573 20.6147 51.0605 20.8335 50.8417C21.0523 50.623 21.349 50.5 21.6585 50.5H23.3251H23.8251V50V46.6667V46.1667H23.3251H21.6585C21.349 46.1667 21.0523 46.0438 20.8335 45.825C20.6147 45.6062 20.4918 45.3095 20.4918 45V31.6667C20.4918 31.3573 20.6147 31.0605 20.8335 30.8417C21.0523 30.6229 21.349 30.5 21.6585 30.5H58.3251C58.6345 30.5 58.9313 30.6229 59.1501 30.8417C59.3689 31.0605 59.4918 31.3573 59.4918 31.6667V45C59.4918 45.3095 59.3689 45.6062 59.1501 45.825C58.9313 46.0438 58.6345 46.1667 58.3251 46.1667H56.6585H56.1585V46.6667V50V50.5H56.6585H58.3251C58.6345 50.5 58.9313 50.623 59.1501 50.8417C59.3689 51.0605 59.4918 51.3573 59.4918 51.6667V55V55.5H59.9918L63.3251 55.5L63.3272 55.5C67.2777 55.4839 71.073 53.9598 73.9375 51.2394C76.8021 48.5189 78.5198 44.8072 78.7397 40.8628C78.9595 36.9184 77.665 33.0389 75.1205 30.0169C72.6654 27.1011 69.2255 25.1959 65.4619 24.6568C64.9885 18.6151 62.3779 12.9342 58.0911 8.6378C53.7069 4.24386 47.8706 1.59988 41.6763 1.20152C35.4821 0.803172 29.3552 2.67781 24.4443 6.47398C19.6236 10.2004 16.2996 15.5273 15.0678 21.4868C10.9761 22.2882 7.31145 24.5526 4.76364 27.8629C2.14592 31.2639 0.897109 35.5221 1.26333 39.7983C1.62955 44.0744 3.58423 48.0583 6.74213 50.9647C9.90003 53.8711 14.0321 55.4892 18.3238 55.5Z" fill="#FFD209" stroke="black"/>
<path d="M23.3252 63.3335H56.6585V53.3335H23.3252V63.3335ZM43.3252 56.6668H51.6585C52.1006 56.6668 52.5245 56.8424 52.837 57.155C53.1496 57.4675 53.3252 57.8915 53.3252 58.3335C53.3252 58.7755 53.1496 59.1994 52.837 59.512C52.5245 59.8246 52.1006 60.0002 51.6585 60.0002H43.3252C42.8832 60.0002 42.4592 59.8246 42.1467 59.512C41.8341 59.1994 41.6585 58.7755 41.6585 58.3335C41.6585 57.8915 41.8341 57.4675 42.1467 57.155C42.4592 56.8424 42.8832 56.6668 43.3252 56.6668ZM33.8085 57.1502C34.0416 56.9151 34.3395 56.7548 34.6641 56.6897C34.9886 56.6246 35.3253 56.6576 35.631 56.7845C35.9367 56.9115 36.1977 57.1266 36.3807 57.4025C36.5638 57.6783 36.6605 58.0025 36.6585 58.3335C36.6569 58.6069 36.5881 58.8757 36.4582 59.1162C36.3282 59.3567 36.141 59.5615 35.9132 59.7127C35.6854 59.8638 35.4239 59.9566 35.1518 59.9828C34.8797 60.009 34.6053 59.9679 34.3528 59.8631C34.1003 59.7582 33.8775 59.5929 33.704 59.3816C33.5304 59.1704 33.4116 58.9197 33.3578 58.6516C33.304 58.3836 33.317 58.1064 33.3956 57.8446C33.4742 57.5828 33.616 57.3443 33.8085 57.1502ZM27.1419 57.1502C27.2968 56.994 27.4811 56.87 27.6842 56.7853C27.8873 56.7007 28.1052 56.6572 28.3252 56.6572C28.5452 56.6572 28.7631 56.7007 28.9662 56.7853C29.1693 56.87 29.3536 56.994 29.5085 57.1502C29.7402 57.3838 29.8976 57.6808 29.9608 58.0037C30.024 58.3266 29.9902 58.661 29.8637 58.9648C29.7371 59.2685 29.5235 59.528 29.2497 59.7106C28.9759 59.8931 28.6542 59.9905 28.3252 59.9905C27.9961 59.9905 27.6745 59.8931 27.4007 59.7106C27.1269 59.528 26.9133 59.2685 26.7867 58.9648C26.6602 58.661 26.6264 58.3266 26.6896 58.0037C26.7528 57.6808 26.9101 57.3838 27.1419 57.1502Z" fill="black"/>
</g>
<defs>
<clipPath id="clip0_698_324">
<rect width="80" height="80" fill="white" transform="translate(-0.00830078)"/>
</clipPath>
</defs>
</svg>
