<svg width="109" height="80" viewBox="0 0 109 80" fill="none" xmlns="http://www.w3.org/2000/svg">
<path d="M89.5202 32.6369L74.5422 38.4744C71.1618 34.3 66.8869 30.9382 62.0331 28.6372C57.1794 26.3363 51.8708 25.155 46.4993 25.1806C38.0087 25.2549 29.8127 28.3024 23.3361 33.7931C16.8595 39.2839 12.5119 46.8708 11.0492 55.2348C11.0001 55.431 10.6894 55.3983 10.7221 55.1857C11.6085 46.4043 15.1085 38.0907 20.7696 31.3194C26.4307 24.5481 33.9928 19.6306 42.4782 17.2024C50.9636 14.7742 59.9823 14.9471 68.3684 17.6986C76.7546 20.4501 84.1227 25.6537 89.5202 32.6369Z" fill="black"/>
<path d="M98.2683 59.5513C98.2642 59.683 98.209 59.8078 98.1144 59.8994C98.0197 59.991 97.8931 60.0421 97.7614 60.0419H82.996C82.8711 60.039 82.7522 59.9882 82.6639 59.8999C82.5755 59.8115 82.5247 59.6926 82.5218 59.5677C82.341 55.5992 81.5068 51.6877 80.0527 47.9908L93.4119 38.7358C96.766 45.1516 98.437 52.3137 98.2683 59.5513Z" fill="black"/>
<mask id="path-3-inside-1_698_310" fill="white">
<path d="M92.676 35.2699L91.7767 35.8912L78.7118 44.9336L58.8283 58.718H58.812C58.2699 60.4268 57.0777 61.854 55.4926 62.6914C53.8728 63.5523 51.9774 63.7344 50.2234 63.1977C48.4694 62.6611 47.0003 61.4497 46.1395 59.8299C45.2787 58.2101 45.0965 56.3148 45.6332 54.5607C46.1698 52.8067 47.3813 51.3377 49.001 50.4768C50.592 49.6442 52.4426 49.4568 54.1681 49.9536L54.1518 49.9372L76.5534 41.2055L91.466 35.4007L92.5288 34.9919C92.5654 34.9751 92.607 34.973 92.6451 34.9859C92.6832 34.9988 92.7149 35.0258 92.7338 35.0614C92.7526 35.0969 92.7571 35.1383 92.7464 35.1771C92.7356 35.2159 92.7104 35.2491 92.676 35.2699Z"/>
</mask>
<path d="M92.676 35.2699L91.7767 35.8912L78.7118 44.9336L58.8283 58.718H58.812C58.2699 60.4268 57.0777 61.854 55.4926 62.6914C53.8728 63.5523 51.9774 63.7344 50.2234 63.1977C48.4694 62.6611 47.0003 61.4497 46.1395 59.8299C45.2787 58.2101 45.0965 56.3148 45.6332 54.5607C46.1698 52.8067 47.3813 51.3377 49.001 50.4768C50.592 49.6442 52.4426 49.4568 54.1681 49.9536L54.1518 49.9372L76.5534 41.2055L91.466 35.4007L92.5288 34.9919C92.5654 34.9751 92.607 34.973 92.6451 34.9859C92.6832 34.9988 92.7149 35.0258 92.7338 35.0614C92.7526 35.0969 92.7571 35.1383 92.7464 35.1771C92.7356 35.2159 92.7104 35.2491 92.676 35.2699Z" fill="#FFD209"/>
<path d="M92.676 35.2699L92.159 34.4139L92.1328 34.4297L92.1076 34.4472L92.676 35.2699ZM91.7767 35.8912L91.2082 35.0685L91.2076 35.069L91.7767 35.8912ZM78.7118 44.9336L78.1427 44.1114L78.142 44.1118L78.7118 44.9336ZM58.8283 58.718V59.718H59.141L59.398 59.5398L58.8283 58.718ZM58.812 58.718V57.718H58.0801L57.8588 58.4156L58.812 58.718ZM55.4926 62.6914L55.0254 61.8072L55.0233 61.8084L55.4926 62.6914ZM49.001 50.4768L48.5373 49.5908L48.5317 49.5938L49.001 50.4768ZM54.1681 49.9536L53.8915 50.9145L54.8752 49.2465L54.1681 49.9536ZM54.1518 49.9372L53.7886 49.0055L52.3619 49.5616L53.4447 50.6443L54.1518 49.9372ZM76.5534 41.2055L76.1906 40.2736L76.1902 40.2738L76.5534 41.2055ZM91.466 35.4007L91.107 34.4673L91.1032 34.4688L91.466 35.4007ZM92.5288 34.9919L92.8878 35.9253L92.9174 35.9139L92.9462 35.9007L92.5288 34.9919ZM92.1076 34.4472L91.2082 35.0685L92.3451 36.714L93.2444 36.0926L92.1076 34.4472ZM91.2076 35.069L78.1427 44.1114L79.2809 45.7559L92.3458 36.7135L91.2076 35.069ZM78.142 44.1118L58.2586 57.8962L59.398 59.5398L79.2815 45.7555L78.142 44.1118ZM58.8283 57.718H58.812V59.718H58.8283V57.718ZM57.8588 58.4156C57.3961 59.8742 56.3784 61.0924 55.0254 61.8072L55.9597 63.5756C57.7769 62.6155 59.1437 60.9794 59.7651 59.0204L57.8588 58.4156ZM55.0233 61.8084C53.6377 62.5448 52.0164 62.7005 50.516 62.2415L49.9308 64.154C51.9385 64.7682 54.1079 64.5598 55.9619 63.5745L55.0233 61.8084ZM50.516 62.2415C49.0155 61.7825 47.7589 60.7462 47.0225 59.3606L45.2565 60.2992C46.2418 62.1532 47.9232 63.5398 49.9308 64.154L50.516 62.2415ZM47.0225 59.3606C46.2862 57.975 46.1304 56.3537 46.5894 54.8533L44.6769 54.2682C44.0627 56.2758 44.2712 58.4452 45.2565 60.2992L47.0225 59.3606ZM46.5894 54.8533C47.0485 53.3528 48.0848 52.0962 49.4703 51.3599L48.5317 49.5938C46.6778 50.5791 45.2912 52.2605 44.6769 54.2682L46.5894 54.8533ZM49.4647 51.3628C50.8277 50.6495 52.4132 50.489 53.8915 50.9145L54.4448 48.9926C52.472 48.4247 50.3562 48.6389 48.5373 49.5908L49.4647 51.3628ZM54.8752 49.2465L54.8589 49.2301L53.4447 50.6443L53.461 50.6607L54.8752 49.2465ZM54.5149 50.8689L76.9165 42.1372L76.1902 40.2738L53.7886 49.0055L54.5149 50.8689ZM76.9161 42.1374L91.8287 36.3326L91.1032 34.4688L76.1906 40.2736L76.9161 42.1374ZM91.825 36.334L92.8878 35.9253L92.1698 34.0586L91.107 34.4674L91.825 36.334ZM92.9462 35.9007C92.7506 35.9905 92.528 36.002 92.3242 35.933L92.966 34.0388C92.686 33.9439 92.3802 33.9597 92.1115 34.0832L92.9462 35.9007ZM92.3242 35.933C92.1203 35.8639 91.9506 35.7194 91.85 35.5292L93.6176 34.5935C93.4792 34.3322 93.2462 34.1337 92.966 34.0388L92.3242 35.933ZM91.85 35.5292C91.7493 35.3391 91.7252 35.1175 91.7827 34.9101L93.71 35.4441C93.789 35.1591 93.7559 34.8548 93.6176 34.5935L91.85 35.5292ZM91.7827 34.9101C91.8401 34.7027 91.9748 34.5251 92.159 34.4139L93.1929 36.1259C93.4461 35.973 93.6311 35.7291 93.71 35.4441L91.7827 34.9101Z" fill="black" mask="url(#path-3-inside-1_698_310)"/>
</svg>
