<svg width="100" height="100" viewBox="0 0 100 100" fill="none" xmlns="http://www.w3.org/2000/svg">
<path d="M84.0819 17.4233C78.4961 16.829 72.9985 15.5864 67.7 13.7207C62.8378 12.0027 58.1738 9.76829 53.7881 7.05563C52.6436 6.36098 51.3305 5.99365 49.9917 5.99365C48.6529 5.99365 47.3398 6.36098 46.1953 7.05563L46.1912 7.0598C41.8063 9.77024 37.1438 12.0033 32.2834 13.7207C26.9862 15.586 21.49 16.8286 15.9056 17.4235C14.1118 17.6072 12.4499 18.45 11.2419 19.7888C10.0339 21.1276 9.3657 22.867 9.3667 24.6703V46.3174C9.36963 54.3043 11.507 62.1453 15.5576 69.0289C19.6082 75.9125 25.4248 81.5885 32.4055 85.4694L46.4476 93.2736C47.529 93.8818 48.7489 94.2013 49.9897 94.2013C51.2304 94.2013 52.4503 93.8818 53.5317 93.2736L67.5779 85.4694C74.5586 81.5885 80.3752 75.9125 84.4258 69.0289C88.4764 62.1453 90.6138 54.3043 90.6167 46.3174V24.6703C90.6179 22.8676 89.9503 21.1286 88.7431 19.7899C87.5359 18.4512 85.875 17.6079 84.0819 17.4233ZM66.5729 42.4317L50.9479 59.0983C50.206 59.8914 49.1834 60.363 48.0985 60.4124C47.0136 60.4618 45.9524 60.0852 45.1414 59.3628L35.7665 51.0295C34.9409 50.2957 34.4406 49.2639 34.3758 48.1613C34.3109 47.0586 34.6867 45.9754 35.4206 45.1498C36.1544 44.3242 37.1861 43.824 38.2888 43.7591C39.3915 43.6943 40.4747 44.0701 41.3003 44.8039L47.6439 50.4395L60.4939 36.7351C60.8838 36.3197 61.3546 35.9884 61.8773 35.7616C62.4 35.5349 62.9636 35.4174 63.5334 35.4165C64.3457 35.4169 65.1401 35.6548 65.819 36.1007C66.4979 36.5467 67.0317 37.1814 67.3547 37.9268C67.6776 38.6721 67.7757 39.4956 67.6368 40.2959C67.4979 41.0962 67.1281 41.8387 66.5729 42.4317Z" fill="black"/>
<path d="M66.5729 42.4317L50.9479 59.0983C50.206 59.8914 49.1834 60.363 48.0985 60.4124C47.0136 60.4618 45.9524 60.0852 45.1414 59.3628L35.7665 51.0295C34.9409 50.2957 34.4406 49.2639 34.3758 48.1613C34.3109 47.0586 34.6867 45.9754 35.4206 45.1498C36.1544 44.3242 37.1861 43.824 38.2888 43.7591C39.3915 43.6943 40.4747 44.0701 41.3003 44.8039L47.6439 50.4395L60.4939 36.7351C60.8838 36.3197 61.3546 35.9884 61.8773 35.7616C62.4 35.5349 62.9636 35.4174 63.5334 35.4165C64.3457 35.4169 65.1401 35.6548 65.819 36.1007C66.4979 36.5467 67.0317 37.1814 67.3547 37.9268C67.6776 38.6721 67.7757 39.4956 67.6368 40.2959C67.4979 41.0962 67.1281 41.8387 66.5729 42.4317Z" fill="#FFD209"/>
</svg>
