<svg width="386" height="386" viewBox="0 0 386 386" fill="none" xmlns="http://www.w3.org/2000/svg">
<path d="M0 62.0276V13.7198H13.5993V71.3531L0 62.0276Z" fill="black"/>
<path d="M83.8314 0.120605H0V13.7199H93.1569L83.8314 0.120605Z" fill="black"/>
<path d="M159.078 6.92639H76.3091V13.7199H163.735L159.078 6.92639Z" fill="black"/>
<path d="M177.804 6.92639H169.355L174.024 13.7199H182.46L177.804 6.92639Z" fill="black"/>
<path d="M194.664 6.92639H186.215L190.872 13.7199H199.32L194.664 6.92639Z" fill="black"/>
<path d="M211.511 6.92639H203.075L207.732 13.7199H216.18L211.511 6.92639Z" fill="black"/>
<path d="M323.628 0.120605H371.936V13.7199H314.303L323.628 0.120605Z" fill="black"/>
<path d="M385.535 83.952V0.120605H371.936V93.2775L385.535 83.952Z" fill="black"/>
<path d="M378.729 159.199V76.4298H371.936V163.856L378.729 159.199Z" fill="black"/>
<path d="M385.535 323.749V372.057H371.936V314.423L385.535 323.749Z" fill="black"/>
<path d="M301.704 385.656H385.535V372.057H292.378L301.704 385.656Z" fill="black"/>
<path d="M61.9071 385.656H13.5994V372.057H71.2326L61.9071 385.656Z" fill="black"/>
<path d="M0 301.825V385.656H13.5993V292.499L0 301.825Z" fill="black"/>
<path d="M6.80591 226.578V309.347H13.5994V221.921L6.80591 226.578Z" fill="black"/>
<path d="M7.37402 136.879L4.58252 134.804V60.5947H7.37402V136.879Z" fill="black"/>
</svg>
