<svg width="81" height="80" viewBox="0 0 81 80" fill="none" xmlns="http://www.w3.org/2000/svg">
<path fill-rule="evenodd" clip-rule="evenodd" d="M40.5002 9.99967C23.9316 9.99967 10.5002 23.4311 10.5002 39.9997C10.5002 56.568 23.9316 69.9997 40.5002 69.9997C41.5418 69.9997 42.5705 69.9467 43.5822 69.8437C45.4138 69.6567 47.0498 70.99 47.2365 72.8213C47.4235 74.653 46.0902 76.289 44.2588 76.4757C43.0218 76.602 41.7678 76.6663 40.5002 76.6663C20.2497 76.6663 3.8335 60.25 3.8335 39.9997C3.8335 19.7492 20.2497 3.33301 40.5002 3.33301C60.7505 3.33301 77.1668 19.7492 77.1668 39.9997C77.1668 42.5067 76.9145 44.9583 76.4335 47.329C76.0675 49.1333 74.3082 50.299 72.5042 49.933C70.6998 49.567 69.5342 47.8077 69.9002 46.0037C70.2932 44.0663 70.5002 42.0587 70.5002 39.9997C70.5002 23.4311 57.0685 9.99967 40.5002 9.99967Z" fill="#141B34"/>
<path d="M43.3332 38.619V38.8261L43.4796 38.9726L47.5033 42.9962C48.6097 44.1026 48.6097 45.8967 47.5033 47.0031C46.3969 48.1095 44.6028 48.1095 43.4964 47.0031L38.4964 42.0031C37.9651 41.4719 37.6665 40.751 37.6665 39.9997V26.6663C37.6665 25.1015 38.935 23.833 40.4998 23.833C42.0647 23.833 43.3332 25.1015 43.3332 26.6663V38.619Z" fill="#FFD209" stroke="black"/>
<path d="M51.9436 51.0399L51.9436 51.0398C51.3184 49.059 53.4488 47.2122 55.341 48.3193L55.341 48.3193L74.6784 59.6299L74.9308 59.1984L74.6784 59.63C76.2179 60.5304 76.2195 62.7585 74.6814 63.6611L74.6814 63.6611L55.344 75.0111L55.5971 75.4424L55.344 75.0111C53.4528 76.1212 51.3195 74.2765 51.9428 72.2947L51.9428 72.2947L55.2434 61.7973L55.2907 61.6471L55.2433 61.4969L51.9436 51.0399Z" fill="#FFD209" stroke="black"/>
</svg>
