<svg width="81" height="80" viewBox="0 0 81 80" fill="none" xmlns="http://www.w3.org/2000/svg">
<path fill-rule="evenodd" clip-rule="evenodd" d="M57.1675 53.3337C52.9305 53.3337 49.3718 56.4783 48.8005 60.4723C48.5942 61.9157 47.4735 63.0573 46.0345 63.2907C44.5952 63.524 43.1715 62.795 42.5195 61.491L39.1862 54.8243C38.3628 53.1777 39.0302 51.1757 40.6768 50.3523C42.3235 49.529 44.3255 50.1963 45.1488 51.843L45.3742 52.2937C48.1652 48.8547 52.4465 46.667 57.1675 46.667C62.2675 46.667 66.7722 49.2153 69.4768 53.0933C70.5302 54.6033 70.1598 56.681 68.6498 57.7343C67.1402 58.7873 65.0622 58.4173 64.0092 56.9073C62.4975 54.7403 59.9965 53.3337 57.1675 53.3337ZM68.3005 60.0433C69.7398 59.81 71.1635 60.539 71.8155 61.843L75.1488 68.5097C75.9722 70.1563 75.3048 72.1583 73.6582 72.9817C72.0115 73.805 70.0095 73.1377 69.1862 71.491L68.9608 71.0403C66.1695 74.4793 61.8885 76.667 57.1675 76.667C52.3758 76.667 48.1082 74.4167 45.3675 70.9283C44.2298 69.4807 44.4815 67.3853 45.9292 66.248C47.3765 65.1107 49.4722 65.362 50.6095 66.8097C52.1408 68.7583 54.5082 70.0003 57.1675 70.0003C61.4045 70.0003 64.9632 66.8557 65.5345 62.8617C65.7408 61.4183 66.8615 60.2767 68.3005 60.0433Z" fill="#141B34"/>
<path d="M61.9506 10.6538L61.9506 10.6538C63.6495 12.16 65 14.1853 65 16.6663V35.6901C62.9993 37.8117 60.7065 39.657 57.9981 41.1829C57.7224 41.1718 57.4452 41.1663 57.1673 41.1663C52.7127 41.1663 48.5521 42.594 45.1549 45.02C42.9637 44.233 40.465 44.3082 38.2171 45.4321C37.8044 45.6384 37.4152 45.8728 37.05 46.1315C36.5344 46.1473 36.011 46.1583 35.4793 46.1647C27.6217 46.1627 21.8191 45.0512 17.1401 43.2733L16.9625 43.7407L17.1401 43.2733C12.8753 41.6529 9.38291 39.4186 6 36.7104V16.6663C6 14.1853 7.35049 12.16 9.04927 10.6538L8.71757 10.2797L9.04927 10.6538C10.7504 9.14562 13.0503 7.91686 15.649 6.94234C20.8674 4.98546 27.8864 3.83301 35.5 3.83301C43.1136 3.83301 50.1327 4.98546 55.3511 6.94233C57.9496 7.91687 60.2497 9.14562 61.9506 10.6538ZM15.961 35.8024L16.4398 35.9463L15.961 35.8024C15.484 37.3891 16.3836 39.0624 17.9704 39.5392L18.3335 39.6487L18.3336 39.6487L18.3473 39.6529C20.2375 40.2225 22.5491 40.9192 25.0504 41.299L25.0505 41.299C26.6885 41.5474 28.218 40.4211 28.4667 38.7831C28.7154 37.145 27.589 35.6155 25.9509 35.3667L25.9509 35.3667C23.8877 35.0535 21.9489 34.471 19.9947 33.8826L19.9946 33.8826L19.6978 33.7932L19.6976 33.7932C18.1109 33.3164 16.438 34.2159 15.961 35.8024ZM12.8086 14.8939C11.803 15.7855 11.6667 16.3913 11.6667 16.6663C11.6667 16.9414 11.803 17.5472 12.8086 18.4387C13.8063 19.3233 15.4117 20.2494 17.6387 21.0845C22.0717 22.7469 28.386 23.833 35.5 23.833C42.6141 23.833 48.9283 22.7469 53.3612 21.0845C55.5883 20.2494 57.1936 19.3233 58.1913 18.4388C59.1971 17.5472 59.3333 16.9414 59.3333 16.6663C59.3333 16.3913 59.1971 15.7855 58.1914 14.8939C57.1936 14.0094 55.5883 13.0833 53.3612 12.2482C48.9283 10.5858 42.6141 9.49967 35.5 9.49967C28.386 9.49967 22.0717 10.5858 17.6387 12.2482C15.4117 13.0833 13.8063 14.0094 12.8086 14.8939Z" fill="#FFD209" stroke="black"/>
<path d="M9.04928 69.3468L9.04926 69.3467C7.35049 67.8407 6 65.8153 6 63.3342V46.1688C8.5288 47.7996 11.2873 49.2526 14.4171 50.4416C19.6453 52.4279 25.7493 53.6185 33.3446 53.8066C33.407 54.9828 33.707 56.1653 34.2668 57.2848L37.6001 63.9515C38.0833 64.9179 38.7266 65.7655 39.4863 66.4715C38.749 69.0927 39.2301 72.0203 41.0425 74.3271L41.4357 74.0182L41.0425 74.3271C41.4573 74.855 41.8977 75.3622 42.362 75.8468C40.1545 76.0574 37.8551 76.1675 35.5 76.1675C27.8864 76.1675 20.8674 75.0154 15.649 73.0584C13.0502 72.0837 10.7504 70.8551 9.04928 69.3468ZM15.961 59.1373L15.961 59.1373C15.484 60.724 16.3836 62.3972 17.9704 62.8741L18.3335 62.9836L18.3336 62.9836L18.3477 62.9879C20.2378 63.5575 22.5493 64.2541 25.0504 64.6339L25.0505 64.6339C26.6885 64.8823 28.218 63.7559 28.4667 62.1179C28.7154 60.4799 27.589 58.9503 25.9509 58.7015L25.9509 58.7015C23.8877 58.3884 21.9489 57.8059 19.9946 57.2174L19.9946 57.2174L19.6978 57.1281L19.6976 57.128C18.1109 56.6513 16.438 57.5508 15.961 59.1373Z" fill="#FFD209" stroke="black"/>
</svg>
