<svg width="81" height="80" viewBox="0 0 81 80" fill="none" xmlns="http://www.w3.org/2000/svg">
<path d="M48.4392 5.05566C48.6735 5.44863 48.8662 5.8313 49.0188 6.19696C50.0725 8.20463 50.4518 10.527 49.8618 12.7003C49.2402 14.9892 47.5988 16.8811 45.0935 17.8737C43.9825 18.3139 43.6072 18.7361 43.4438 18.9831C43.2418 19.2878 43.1258 19.6689 42.9745 20.5003L42.9332 20.7317C42.8042 21.4664 42.6062 22.5952 42.0732 23.6706C41.4182 24.9922 40.3455 26.1201 38.6762 27.0021C34.0972 29.4212 27.916 28.4148 22.3642 22.5486C19.6776 19.7098 18.672 18.9095 16.869 18.7192C16.8353 18.7157 16.8017 18.7114 16.7682 18.7065C15.6418 18.5411 13.3717 18.6849 10.8156 19.9284C6.9351 25.6553 4.6665 32.5669 4.6665 40.0057C4.6665 59.5044 20.24 75.3654 39.6268 75.8287C39.3775 75.6437 39.1542 75.4701 38.9588 75.3114C36.9165 73.7811 35.7678 71.8714 35.6492 69.6614C35.5382 67.6001 36.3558 65.7004 37.2485 64.1654C38.5502 61.9271 38.9455 61.2034 39.1502 60.3824C39.3675 59.5107 39.3855 58.4641 39.3855 55.4877C39.3855 53.8467 39.6252 52.1927 40.3598 50.7144C41.1238 49.1771 42.3465 47.9874 44.0115 47.2177C47.1265 45.7784 51.6508 45.8781 57.6538 47.0787C58.3432 47.2164 59.0682 47.1124 60.0225 46.7197C60.8155 46.3937 61.5732 45.9597 62.5062 45.4251C62.7975 45.2584 63.1058 45.0817 63.4375 44.8957C66.0495 43.4301 69.6198 41.6874 74.1832 43.2911C74.2925 43.3294 74.3985 43.3754 74.5015 43.4284C74.9342 43.6517 75.4672 43.9814 76.0638 44.4184C76.2418 42.9717 76.3332 41.4991 76.3332 40.0057C76.3332 22.9423 64.4085 8.669 48.4392 5.05566Z" fill="#141B34"/>
<path d="M40.5849 3.73819C40.5089 3.695 40.4229 3.67247 40.3355 3.67286C30.9012 3.7147 22.3114 7.35567 15.8774 13.2876C15.7276 13.4257 15.6766 13.641 15.7485 13.8316C15.8203 14.0223 16.0008 14.1503 16.2045 14.1551C16.6283 14.1651 17.0196 14.1974 17.3733 14.2472L17.3884 14.2491C21.0127 14.6477 23.0549 16.7318 25.6325 19.4553C30.1901 24.271 34.2418 24.2552 36.574 23.0232C37.4877 22.5404 37.844 22.0703 38.0411 21.6722C38.2724 21.2056 38.3618 20.7129 38.5108 19.8926L38.5232 19.8247L38.5233 19.8237L38.5472 19.6941L38.5473 19.6933C38.7029 18.8389 38.9361 17.6398 39.6917 16.4986C40.4774 15.312 41.6842 14.3841 43.4356 13.6901C44.6685 13.2017 45.2817 12.3945 45.5189 11.521L45.519 11.5209C45.7707 10.5932 45.6412 9.40481 44.9945 8.21344L44.9943 8.21304C44.9551 8.1411 44.9207 8.06709 44.891 7.99135L44.8907 7.99064C44.5249 7.06043 43.2311 5.24275 40.5849 3.73819Z" fill="#FFD209" stroke="black" stroke-linejoin="round"/>
<path d="M75.2681 49.6681C75.3964 49.797 75.4446 49.9856 75.3938 50.1603C71.7138 62.8266 61.3279 72.6376 48.3317 75.4931C48.2299 75.5155 48.1237 75.5055 48.0279 75.4646C45.2227 74.2662 42.8903 72.7161 41.7635 71.7929M75.2681 49.6681L42.0804 71.4061M75.2681 49.6681C74.168 48.5629 73.1814 47.8493 72.5987 47.5158C72.5687 47.4986 72.5369 47.4846 72.504 47.474C69.9924 46.6631 68.0072 47.4916 65.6387 48.8204L65.6384 48.8206C65.4101 48.9489 65.1687 49.0874 64.92 49.2302L64.9199 49.2303C63.9336 49.797 62.8235 50.4337 61.7335 50.882C60.2897 51.4757 58.6258 51.8626 56.7704 51.4915L56.6728 51.9798L56.7704 51.4915C50.859 50.3093 47.6034 50.5154 45.8984 51.3032L46.1079 51.7568L45.8983 51.3032C45.132 51.6571 44.6816 52.1283 44.3891 52.7174M75.2681 49.6681L44.3847 55.8221M41.7635 71.7929L42.0804 71.4061M41.7635 71.7929C41.7635 71.7929 41.7635 71.7929 41.7635 71.7929L42.0804 71.4061M41.7635 71.7929C41.7381 71.7721 41.7131 71.7526 41.6883 71.7344L41.6866 71.7331C41.0806 71.2838 40.6983 70.8632 40.4647 70.4668C40.2265 70.0626 40.1573 69.708 40.1418 69.4204L40.1418 69.4202C40.1013 68.6647 40.4027 67.692 41.1378 66.4278L41.1379 66.4276L41.2856 66.1739L41.7175 66.4254L41.2856 66.1739C42.3912 64.2743 43.1393 62.9813 43.5159 61.4711M42.0804 71.4061C42.049 71.3805 42.017 71.3555 41.9844 71.3315C40.8477 70.4888 40.665 69.8375 40.641 69.3935C40.6084 68.7831 40.8524 67.9135 41.57 66.6791L41.7177 66.4255C42.815 64.5401 43.604 63.1841 44.001 61.5921M43.5159 61.4711C43.5159 61.4712 43.5159 61.4712 43.5159 61.4712L44.001 61.5921M43.5159 61.4711L44.001 61.5921M43.5159 61.4711C43.8828 59.9989 43.8854 58.3587 43.8847 55.8223V55.8221V55.4881C43.8847 54.2462 44.0724 53.3538 44.3891 52.7174M44.001 61.5921C44.3858 60.0483 44.3854 58.34 44.3847 55.8263L44.3847 55.8221M44.3847 55.8221V55.4881C44.3847 54.2905 44.5667 53.4828 44.8367 52.9401C45.077 52.4561 45.4417 52.0648 46.108 51.7571C47.656 51.0418 50.7704 50.8015 56.6724 51.9818C58.6574 52.3788 60.4257 51.9605 61.9237 51.3445L44.3847 55.8221ZM44.3891 52.7174C44.389 52.7175 44.3889 52.7176 44.3889 52.7178L44.8366 52.9401L44.3891 52.7174Z" fill="#FFD209" stroke="black" stroke-linejoin="round"/>
</svg>
