<svg width="81" height="80" viewBox="0 0 81 80" fill="none" xmlns="http://www.w3.org/2000/svg">
<path fill-rule="evenodd" clip-rule="evenodd" d="M68.1018 13.2553C63.0955 13.2553 59.3792 11.0986 55.0958 8.56117L54.9442 8.47114C50.8075 6.01997 46.0792 3.21821 39.7302 3.33664C33.3879 3.34414 28.3652 6.22764 24.0858 8.6844L23.8157 8.8394C19.2861 11.4381 15.6349 13.4343 11.2811 13.121C10.0191 13.0302 8.88818 13.8967 8.64741 15.1389C5.43131 31.732 7.64054 45.4045 13.4642 55.6225C19.292 65.8472 28.6344 72.4179 39.2742 74.9325C39.6735 75.0269 40.0902 75.0215 40.4872 74.9169C51.8655 71.9132 61.0812 65.1629 66.5848 54.9369C72.0708 44.7439 73.7328 31.3575 70.5545 15.2707C70.3228 14.0994 69.2958 13.2553 68.1018 13.2553ZM45.4992 19.1664C45.4992 18.1139 44.8398 17.1741 43.8502 16.8158C42.8605 16.4575 41.7525 16.7574 41.0785 17.566L24.4122 37.5652C23.7913 38.3105 23.6574 39.3475 24.0688 40.2262C24.4802 41.1045 25.3626 41.6659 26.3326 41.6659L33.8328 41.6662V55.8332C33.8328 56.8855 34.4922 57.8255 35.4818 58.1839C36.4715 58.5422 37.5795 58.2422 38.2535 57.4335L54.9198 37.4329C55.5408 36.6875 55.6745 35.6505 55.2632 34.7719C54.8515 33.8935 53.9692 33.3324 52.9988 33.3325L45.4995 33.333L45.4992 19.1664Z" fill="#141B34"/>
<path d="M45.4992 19.1664C45.4992 18.1139 44.8398 17.1741 43.8502 16.8158C42.8605 16.4575 41.7525 16.7574 41.0785 17.566L24.4122 37.5652C23.7913 38.3105 23.6574 39.3475 24.0688 40.2262C24.4802 41.1045 25.3626 41.6659 26.3326 41.6659L33.8328 41.6662V55.8332C33.8328 56.8855 34.4922 57.8255 35.4818 58.1839C36.4715 58.5422 37.5795 58.2422 38.2535 57.4335L54.9198 37.4329C55.5408 36.6875 55.6745 35.6505 55.2632 34.7719C54.8515 33.8935 53.9692 33.3324 52.9988 33.3325L45.4995 33.333L45.4992 19.1664Z" fill="#FFD209"/>
</svg>
