<svg width="80" height="80" viewBox="0 0 80 80" fill="none" xmlns="http://www.w3.org/2000/svg">
<path fill-rule="evenodd" clip-rule="evenodd" d="M16.6667 73.3333C16.6667 71.4923 18.1591 70 20.0001 70H60.0001C61.8411 70 63.3334 71.4923 63.3334 73.3333C63.3334 75.1743 61.8411 76.6667 60.0001 76.6667H20.0001C18.1591 76.6667 16.6667 75.1743 16.6667 73.3333Z" fill="#141B34"/>
<path d="M41.743 5.68641L41.743 5.68646L55.3657 29.9046L55.6412 30.3943L56.0956 30.0638L72.1569 18.3829L71.8628 17.9785L72.1569 18.3828C72.8425 17.8842 73.768 17.872 74.4668 18.3525C75.1652 18.8329 75.4849 19.7016 75.2647 20.5203C75.2647 20.5203 75.2647 20.5203 75.2647 20.5204L63.598 63.8536C63.3628 64.7267 62.5711 65.3337 61.6665 65.3337H18.3333C17.429 65.3337 16.6372 64.7267 16.4021 63.8537L4.73544 20.5203L4.25263 20.6503L4.73544 20.5203C4.51501 19.7016 4.83472 18.8329 5.53325 18.3525C6.23179 17.872 7.15736 17.8842 7.84301 18.3829L8.1371 17.9785L7.84301 18.3829L23.9043 30.0638L24.3587 30.3943L24.6342 29.9046L38.257 5.68646L38.257 5.68641C38.6111 5.05672 39.2775 4.66699 39.9998 4.66699C40.7226 4.66699 41.3889 5.05675 41.743 5.68641ZM39.9998 44.5003C36.9624 44.5003 34.4998 46.9629 34.4998 50.0003C34.4998 53.0378 36.9624 55.5003 39.9998 55.5003H40.0332C43.0706 55.5003 45.5332 53.0378 45.5332 50.0003C45.5332 46.9629 43.0706 44.5003 40.0332 44.5003H39.9998Z" fill="#FFD209" stroke="black"/>
</svg>
