<svg width="81" height="80" viewBox="0 0 81 80" fill="none" xmlns="http://www.w3.org/2000/svg">
<path fill-rule="evenodd" clip-rule="evenodd" d="M29.4998 33.3337C26.2658 33.3337 23.8332 35.836 23.8332 40.0003C23.8332 44.1647 26.2658 46.667 29.4998 46.667C29.8886 46.667 30.5802 46.4743 31.589 45.7413C32.5654 45.0317 33.5646 44.014 34.4982 42.8807C35.3375 41.862 36.0595 40.8293 36.5988 40.0003C36.0595 39.1713 35.3375 38.1387 34.4982 37.12C33.5646 35.9867 32.5654 34.969 31.589 34.2593C30.5802 33.5263 29.8886 33.3337 29.4998 33.3337ZM44.4008 40.0003C44.9402 40.8293 45.6622 41.862 46.5015 42.8807C47.4352 44.014 48.4342 45.0317 49.4105 45.7413C50.4195 46.4743 51.1112 46.667 51.4998 46.667C54.7338 46.667 57.1665 44.1647 57.1665 40.0003C57.1665 35.836 54.7338 33.3337 51.4998 33.3337C51.1112 33.3337 50.4195 33.5263 49.4105 34.2593C48.4342 34.969 47.4352 35.9867 46.5015 37.12C45.6622 38.1387 44.9402 39.1713 44.4008 40.0003ZM40.4998 46.037C40.2295 46.3927 39.9435 46.7557 39.6435 47.12C38.5175 48.4867 37.1118 49.969 35.5082 51.1343C33.9365 52.2763 31.8725 53.3337 29.4998 53.3337C21.6882 53.3337 17.1665 46.8817 17.1665 40.0003C17.1665 33.1189 21.6882 26.667 29.4998 26.667C31.8725 26.667 33.9365 27.7244 35.5082 28.8663C37.1118 30.0317 38.5175 31.5141 39.6435 32.8808C39.9435 33.245 40.2295 33.608 40.4998 33.9637C40.7702 33.608 41.0562 33.245 41.3562 32.8808C42.4822 31.5141 43.8878 30.0317 45.4915 28.8663C47.0632 27.7244 49.1272 26.667 51.4998 26.667C59.3115 26.667 63.8332 33.1189 63.8332 40.0003C63.8332 46.8817 59.3115 53.3337 51.4998 53.3337C49.1272 53.3337 47.0632 52.2763 45.4915 51.1343C43.8878 49.969 42.4822 48.4867 41.3562 47.12C41.0562 46.7557 40.7702 46.3927 40.4998 46.037Z" fill="#FFD209"/>
<path fill-rule="evenodd" clip-rule="evenodd" d="M3.8335 16.667C3.8335 11.1442 8.31066 6.66699 13.8335 6.66699H18.8335C20.6744 6.66699 22.1668 8.15939 22.1668 10.0003C22.1668 11.8413 20.6744 13.3337 18.8335 13.3337H13.8335C11.9926 13.3337 10.5002 14.8261 10.5002 16.667V63.3337C10.5002 65.1747 11.9926 66.667 13.8335 66.667H18.8335C20.6744 66.667 22.1668 68.1593 22.1668 70.0003C22.1668 71.8413 20.6744 73.3337 18.8335 73.3337H13.8335C8.31066 73.3337 3.8335 68.8567 3.8335 63.3337V16.667ZM58.8335 10.0003C58.8335 8.15936 60.3258 6.66699 62.1668 6.66699L67.1668 6.66703C72.6898 6.66709 77.1668 11.1442 77.1668 16.667V63.3337C77.1668 68.8567 72.6898 73.3337 67.1668 73.3337H62.1668C60.3258 73.3337 58.8335 71.8413 58.8335 70.0003C58.8335 68.1593 60.3258 66.667 62.1668 66.667H67.1668C69.0078 66.667 70.5002 65.1747 70.5002 63.3337V16.667C70.5002 14.8261 69.0078 13.3337 67.1668 13.3337L62.1668 13.3337C60.3258 13.3337 58.8335 11.8413 58.8335 10.0003Z" fill="#141B34"/>
</svg>
