<svg width="81" height="80" viewBox="0 0 81 80" fill="none" xmlns="http://www.w3.org/2000/svg">
<path fill-rule="evenodd" clip-rule="evenodd" d="M43.8528 70.833C43.8528 72.674 42.3602 74.1663 40.5195 74.1663C38.6785 74.1663 37.1862 72.674 37.1862 70.833V55.833H35.2052C34.6198 55.8333 33.9008 55.834 33.3127 55.7603L33.3016 55.759C32.8801 55.7063 30.96 55.467 30.0454 53.5817C29.1289 51.6923 30.1353 50.025 30.3531 49.6643L30.3612 49.651C30.6686 49.141 31.1157 48.5713 31.4835 48.1027L31.5627 48.002C32.5448 46.7493 33.818 45.135 35.0862 43.8317C35.7188 43.1813 36.4432 42.5107 37.2128 41.981C37.8968 41.5103 39.0642 40.833 40.4998 40.833C41.9355 40.833 43.1028 41.5103 43.7868 41.981C44.5565 42.5107 45.2808 43.1813 45.9135 43.8317C47.1818 45.135 48.4548 46.7493 49.4372 48.002L49.5162 48.1027C49.8838 48.5713 50.3312 49.141 50.6385 49.651L50.6465 49.6643C50.8642 50.025 51.8708 51.6923 50.9542 53.5817C50.0398 55.467 48.1195 55.7063 47.6982 55.759L47.6868 55.7603C47.0988 55.834 46.3798 55.8333 45.7945 55.833H43.8528V70.833Z" fill="#141B34"/>
<path d="M5.1665 41.6663C5.1665 33.091 10.9479 25.8669 18.8278 23.6787L18.8479 23.6731C19.1573 23.5872 19.4197 23.5144 19.6267 23.4374C19.8413 23.3577 20.0503 23.2551 20.22 23.0813C20.3894 22.9078 20.4869 22.6972 20.5614 22.4814C20.6332 22.2735 20.6994 22.0108 20.7773 21.7014L20.7824 21.6813C20.7824 21.6813 20.7824 21.6813 20.7824 21.6813C23.0058 12.8604 30.9901 6.33301 40.4998 6.33301C50.9586 6.33301 59.5734 14.2297 60.7069 24.3857C60.7069 24.3858 60.7069 24.3858 60.7069 24.3859L60.7094 24.4083C60.7527 24.7974 60.7891 25.1244 60.8429 25.3823C60.8981 25.647 60.9844 25.9094 61.1736 26.1243L61.5488 25.7939L61.1736 26.1243C61.3635 26.3401 61.6154 26.459 61.8726 26.5476C62.1237 26.634 62.4469 26.7124 62.8324 26.806L62.8563 26.8117C70.3036 28.6187 75.8332 35.3307 75.8332 43.3329C75.8332 52.7218 68.222 60.3329 58.8332 60.3329H55.1685C54.4206 60.3329 53.8697 60.3329 53.4885 60.3187C53.5049 60.3015 53.5219 60.2837 53.5395 60.2654C53.8554 59.9366 54.3359 59.4695 54.99 58.8338L54.6415 58.4753L54.99 58.8338C58.4826 55.4393 58.5672 49.8597 55.1843 46.3603C54.7995 45.8798 54.4165 45.3916 54.0311 44.9006C52.2809 42.6701 50.4854 40.3818 48.2837 38.5066C46.1274 36.67 43.4633 35.3329 40.4998 35.3329C37.5364 35.3329 34.8723 36.67 32.7159 38.5066C30.5138 40.3821 28.718 42.6708 26.9676 44.9017C26.5826 45.3923 26.1998 45.8802 25.8154 46.3603C22.4323 49.8597 22.5173 55.4393 26.0098 58.8338C26.6637 59.4695 27.1443 59.9366 27.4602 60.2654C27.4778 60.2837 27.4948 60.3015 27.5112 60.3187C27.13 60.3329 26.5792 60.3329 25.8312 60.3329H23.8332C13.5238 60.3329 5.1665 51.9758 5.1665 41.6663Z" fill="#FFD209" stroke="black"/>
</svg>
