<?xml version="1.0" encoding="utf-8"?>
<!-- Generator: Adobe Illustrator 23.0.3, SVG Export Plug-In . SVG Version: 6.00 Build 0)  -->
<svg version="1.1" id="Слой_1" xmlns="http://www.w3.org/2000/svg" xmlns:xlink="http://www.w3.org/1999/xlink" x="0px" y="0px"
	 viewBox="0 0 81 80" style="enable-background:new 0 0 81 80;" xml:space="preserve">
<style type="text/css">
	.st0{fill:#141B34;}
	.st1{fill:#FFD209;stroke:#000000;stroke-linejoin:round;}
</style>
<path class="st0" d="M48.4,5.1c0.2,0.4,0.4,0.8,0.6,1.1c1.1,2,1.4,4.3,0.8,6.5c-0.6,2.3-2.3,4.2-4.8,5.2c-1.1,0.4-1.5,0.9-1.6,1.1
	c-0.2,0.3-0.3,0.7-0.5,1.5l0,0.2c-0.1,0.7-0.3,1.9-0.9,2.9c-0.7,1.3-1.7,2.4-3.4,3.3c-4.6,2.4-10.8,1.4-16.3-4.5
	c-2.7-2.8-3.7-3.6-5.5-3.8c0,0-0.1,0-0.1,0c-1.1-0.2-3.4,0-6,1.2C6.9,25.7,4.7,32.6,4.7,40c0,19.5,15.6,35.4,35,35.8
	c-0.2-0.2-0.5-0.4-0.7-0.5c-2-1.5-3.2-3.4-3.3-5.7c-0.1-2.1,0.7-4,1.6-5.5c1.3-2.2,1.7-3,1.9-3.8c0.2-0.9,0.2-1.9,0.2-4.9
	c0-1.6,0.2-3.3,1-4.8c0.8-1.5,2-2.7,3.7-3.5c3.1-1.4,7.6-1.3,13.6-0.1c0.7,0.1,1.4,0,2.4-0.4c0.8-0.3,1.6-0.8,2.5-1.3
	c0.3-0.2,0.6-0.3,0.9-0.5c2.6-1.5,6.2-3.2,10.7-1.6c0.1,0,0.2,0.1,0.3,0.1c0.4,0.2,1,0.6,1.6,1c0.2-1.4,0.3-2.9,0.3-4.4
	C76.3,22.9,64.4,8.7,48.4,5.1z"/>
<path class="st1" d="M40.6,3.7c-0.1,0-0.2-0.1-0.2-0.1c-9.4,0-18,3.7-24.5,9.6c-0.1,0.1-0.2,0.4-0.1,0.5c0.1,0.2,0.3,0.3,0.5,0.3
	c0.4,0,0.8,0,1.2,0.1l0,0c3.6,0.4,5.7,2.5,8.2,5.2c4.6,4.8,8.6,4.8,10.9,3.6c0.9-0.5,1.3-1,1.5-1.4c0.2-0.5,0.3-1,0.5-1.8l0-0.1l0,0
	l0-0.1l0,0c0.2-0.9,0.4-2.1,1.1-3.2c0.8-1.2,2-2.1,3.7-2.8c1.2-0.5,1.8-1.3,2.1-2.2l0,0c0.3-0.9,0.1-2.1-0.5-3.3l0,0
	c0-0.1-0.1-0.1-0.1-0.2l0,0C44.5,7.1,43.2,5.2,40.6,3.7z"/>
<path class="st1" d="M75.4,50.2c-3.7,12.7-14.1,22.5-27.1,25.3c-0.1,0-0.2,0-0.3,0c-2.8-1.2-5.1-2.7-6.3-3.7c0,0,0,0-0.1-0.1
	c-0.6-0.4-1-0.9-1.2-1.3c-0.2-0.4-0.3-0.8-0.3-1.1v-0.1c0-0.7,0.3-1.7,1-2.9l0.1-0.3c1.1-1.9,1.9-3.2,2.2-4.7
	c0.4-1.5,0.4-3.1,0.4-5.7v-0.3c0-1.2,0.2-2.1,0.5-2.8c0.3-0.6,0.7-1.1,1.5-1.4c1.7-0.8,5-1,10.9,0.2c1.9,0.4,3.5,0,5-0.6
	c1.1-0.5,2.2-1.1,3.2-1.7c0.3-0.1,0.5-0.3,0.7-0.4c2.4-1.3,4.3-2.2,6.9-1.3c0,0,0.1,0,0.1,0c0.6,0.3,1.6,1,2.7,2.1
	C75.4,49.8,75.4,50,75.4,50.2z"/>
</svg>
