<svg width="15" height="15" viewBox="0 0 15 15" fill="none" xmlns="http://www.w3.org/2000/svg">
<g clip-path="url(#clip0_4030_262)">
<path d="M14.638 7.31788L9.58215 2.26187C9.43783 2.11755 9.24547 2.03833 9.04037 2.03833C8.83504 2.03833 8.64279 2.11766 8.49847 2.26187L8.03943 2.72102C7.89522 2.86512 7.81578 3.05759 7.81578 3.26281C7.81578 3.46791 7.89522 3.66687 8.03943 3.81097L10.989 6.76699L1.61815 6.76699C1.19565 6.76699 0.861816 7.09775 0.861816 7.52037V8.16948C0.861816 8.5921 1.19565 8.95621 1.61815 8.95621H11.0224L8.03955 11.9287C7.89534 12.0731 7.81589 12.2603 7.81589 12.4655C7.81589 12.6705 7.89534 12.8605 8.03955 13.0047L8.49858 13.4624C8.64291 13.6067 8.83515 13.6853 9.04048 13.6853C9.24559 13.6853 9.43794 13.6057 9.58227 13.4613L14.6382 8.40543C14.7828 8.26065 14.8624 8.06739 14.8618 7.86194C14.8623 7.65581 14.7828 7.46243 14.638 7.31788Z" fill="black"/>
</g>
<defs>
<clipPath id="clip0_4030_262">
<rect width="14" height="14" fill="white" transform="translate(0.861816 0.861816)"/>
</clipPath>
</defs>
</svg>
