<?xml version="1.0" encoding="utf-8"?>
<!-- Generator: Adobe Illustrator 23.0.3, SVG Export Plug-In . SVG Version: 6.00 Build 0)  -->
<svg version="1.1" id="Слой_1" xmlns="http://www.w3.org/2000/svg" xmlns:xlink="http://www.w3.org/1999/xlink" x="0px" y="0px"
	 viewBox="0 0 120 120" style="enable-background:new 0 0 120 120;" xml:space="preserve">
<style type="text/css">
	.st0{fill:#FFD209;}
</style>
<path d="M106,72c0-14.4-11.6-26-26-26c-14.4,0-26,11.6-26,26c-3.3,0-6,2.7-6,6v20c0,3.3,2.7,6,6,6h12c1.1,0,2-0.9,2-2V88
	c0-2.2-0.8-5.6-1.8-7.6L62,72c0-9.9,8.1-18,18-18c9.9,0,18,8.1,18,18l-4.2,8.4c-1,2-1.8,5.4-1.8,7.6v14.5c-3.6,2.3-7.7,3.5-12,3.5
	h-4v6h4c7.7,0,14.6-3.1,19.7-8h6.3c3.3,0,6-2.7,6-6V78C112,74.7,109.3,72,106,72z"/>
<g>
	<path class="st0" d="M102,68c0-14.4-11.6-26-26-26c-14.4,0-26,11.6-26,26c-3.3,0-6,2.7-6,6v20c0,3.3,2.7,6,6,6h12c1.1,0,2-0.9,2-2
		V84c0-2.2-0.8-5.6-1.8-7.6L58,68c0-9.9,8.1-18,18-18c9.9,0,18,8.1,18,18l-4.2,8.4c-1,2-1.8,5.4-1.8,7.6v14.5
		c-3.6,2.3-7.7,3.5-12,3.5h-4v6h4c7.7,0,14.6-3.1,19.7-8h6.3c3.3,0,6-2.7,6-6V74C108,70.7,105.3,68,102,68z"/>
	<path d="M76,108.5h-4.5v-7H76c4.1,0,8-1.1,11.5-3.3V84c0-2.3,0.8-5.8,1.8-7.8l4.2-8.3c-0.1-9.6-7.9-17.4-17.5-17.4
		c-9.6,0-17.4,7.8-17.5,17.4l4.2,8.3c1,2,1.8,5.5,1.8,7.8v14c0,1.4-1.1,2.5-2.5,2.5H50c-3.6,0-6.5-2.9-6.5-6.5V74
		c0-3.4,2.7-6.2,6-6.5c0.3-14.4,12-26,26.5-26c14.5,0,26.2,11.6,26.5,26c3.4,0.3,6,3.1,6,6.5v20c0,3.6-2.9,6.5-6.5,6.5h-6.1
		C90.5,105.7,83.4,108.5,76,108.5z M72.5,107.5H76c7.2,0,14.1-2.8,19.3-7.9l0.1-0.1h6.5c3,0,5.5-2.5,5.5-5.5V74c0-3-2.5-5.5-5.5-5.5
		h-0.5V68c0-14.1-11.4-25.5-25.5-25.5c-14.1,0-25.5,11.4-25.5,25.5v0.5H50c-3,0-5.5,2.5-5.5,5.5v20c0,3,2.5,5.5,5.5,5.5h12
		c0.8,0,1.5-0.7,1.5-1.5V84c0-2.1-0.8-5.5-1.7-7.4l-4.3-8.5V68c0-10.2,8.3-18.5,18.5-18.5c10.2,0,18.5,8.3,18.5,18.5v0.1l-4.3,8.5
		c-1,1.9-1.7,5.2-1.7,7.4v14.7l-0.2,0.1c-3.7,2.4-7.9,3.6-12.3,3.6h-3.5V107.5z"/>
</g>
<path d="M42,32c0-2.2,1.8-4,4-4c2.2,0,4,1.8,4,4c0,2.2-1.8,4-4,4C43.8,36,42,34.2,42,32z M32,36c-2.2,0-4-1.8-4-4c0-2.2,1.8-4,4-4
	c2.2,0,4,1.8,4,4C36,34.2,34.2,36,32,36z M60,28c2.2,0,4,1.8,4,4c0,2.2-1.8,4-4,4c-2.2,0-4-1.8-4-4C56,29.8,57.8,28,60,28z M76,36
	c1.4,0,2.7,0.1,4,0.3V20c0-4.4-3.6-8-8-8H20c-4.4,0-8,3.6-8,8v24c0,4.4,3.6,8,8,8v12l20-12h8.3C53.9,42.5,64.2,36,76,36z"/>
</svg>
