<?xml version="1.0" encoding="utf-8"?>
<!-- Generator: Adobe Illustrator 23.0.3, SVG Export Plug-In . SVG Version: 6.00 Build 0)  -->
<svg version="1.1" id="Слой_1" xmlns="http://www.w3.org/2000/svg" xmlns:xlink="http://www.w3.org/1999/xlink" x="0px" y="0px"
	 viewBox="0 0 120 120" style="enable-background:new 0 0 120 120;" xml:space="preserve">
<style type="text/css">
	.st0{fill:#FFFFFF;}
</style>
<path d="M16.8,31.2c0.5,0,1,0.2,1.3,0.6c0.3,0.4,0.5,0.8,0.5,1.3c0,0.5-0.2,1-0.5,1.3c-0.3,0.4-0.8,0.6-1.3,0.6
	c-0.5,0-1-0.2-1.3-0.6S15,33.6,15,33.1s0.2-1,0.5-1.3C15.9,31.4,16.3,31.2,16.8,31.2z M24.3,31.2c0.5,0,1,0.2,1.3,0.6
	c0.3,0.4,0.5,0.8,0.5,1.3c0,0.5-0.2,1-0.5,1.3c-0.3,0.4-0.8,0.6-1.3,0.6c-0.5,0-1-0.2-1.3-0.6c-0.3-0.4-0.5-0.8-0.5-1.3
	c0-0.5,0.2-1,0.5-1.3C23.4,31.4,23.8,31.2,24.3,31.2z M31.8,31.2c0.5,0,1,0.2,1.3,0.6c0.3,0.4,0.5,0.8,0.5,1.3c0,0.5-0.2,1-0.5,1.3
	c-0.3,0.4-0.8,0.6-1.3,0.6c-0.5,0-1-0.2-1.3-0.6c-0.3-0.4-0.5-0.8-0.5-1.3s0.2-1,0.5-1.3C30.9,31.4,31.3,31.2,31.8,31.2z M13.1,42.5
	h0.4v4.4h45.6c-0.3-1-0.4-2.1-0.2-3.1c0.2-1,0.8-2,1.5-2.7l6.1-6c0.6-0.6,1.3-1,2.1-1.3c0.8-0.3,1.6-0.4,2.4-0.3v-4.1
	c0-1.5-0.6-2.9-1.6-4s-2.5-1.6-4-1.6H13.1c-1.5,0-2.9,0.6-4,1.7c-1.1,1.1-1.6,2.5-1.7,4v7.4c0,1.5,0.6,2.9,1.7,4
	C10.2,41.9,11.6,42.5,13.1,42.5z"/>
<path d="M31.8,88.8c-0.5,0-1-0.2-1.3-0.6c-0.3-0.4-0.5-0.8-0.5-1.3c0-0.5,0.2-1,0.5-1.3c0.3-0.4,0.8-0.6,1.3-0.6
	c0.5,0,1,0.2,1.3,0.6s0.5,0.8,0.5,1.3c0,0.5-0.2,1-0.5,1.3C32.8,88.6,32.3,88.8,31.8,88.8z M24.3,88.8c-0.5,0-1-0.2-1.3-0.6
	c-0.3-0.4-0.5-0.8-0.5-1.3c0-0.5,0.2-1,0.5-1.3c0.3-0.4,0.8-0.6,1.3-0.6c0.5,0,1,0.2,1.3,0.6c0.3,0.4,0.5,0.8,0.5,1.3
	c0,0.5-0.2,1-0.5,1.3C25.3,88.6,24.8,88.8,24.3,88.8z M16.8,88.8c-0.5,0-1-0.2-1.3-0.6S15,87.4,15,86.9c0-0.5,0.2-1,0.5-1.3
	c0.3-0.4,0.8-0.6,1.3-0.6c0.5,0,1,0.2,1.3,0.6c0.3,0.4,0.5,0.8,0.5,1.3c0,0.5-0.2,1-0.5,1.3C17.8,88.6,17.3,88.8,16.8,88.8z
	 M66.5,84.9c-0.8-1-6.7-6.3-7-7.4H13.1c-1.5,0-2.9,0.6-4,1.7c-1.1,1.1-1.6,2.5-1.7,4v7.4c0,1.5,0.6,2.9,1.7,4s2.5,1.6,4,1.7h52.2
	c1.5,0,2.9-0.6,4-1.6c1.1-1.1,1.6-2.5,1.6-4v-4.1c-0.8,0.1-1.7,0-2.4-0.3C67.8,85.9,67.1,85.5,66.5,84.9z"/>
<path d="M16.8,58.1c0.5,0,1,0.2,1.3,0.6c0.3,0.4,0.5,0.8,0.5,1.3c0,0.5-0.2,1-0.5,1.3c-0.3,0.4-0.8,0.6-1.3,0.6
	c-0.5,0-1-0.2-1.3-0.6C15.2,61,15,60.5,15,60c0-0.5,0.2-1,0.5-1.3S16.3,58.1,16.8,58.1z M24.3,58.1c0.5,0,1,0.2,1.3,0.6
	c0.3,0.4,0.5,0.8,0.5,1.3c0,0.5-0.2,1-0.5,1.3c-0.3,0.4-0.8,0.6-1.3,0.6c-0.5,0-1-0.2-1.3-0.6c-0.3-0.4-0.5-0.8-0.5-1.3
	c0-0.5,0.2-1,0.5-1.3C23.4,58.3,23.8,58.1,24.3,58.1z M31.8,58.1c0.5,0,1,0.2,1.3,0.6c0.3,0.4,0.5,0.8,0.5,1.3c0,0.5-0.2,1-0.5,1.3
	s-0.8,0.6-1.3,0.6c-0.5,0-1-0.2-1.3-0.6C30.2,61,30,60.5,30,60c0-0.5,0.2-1,0.5-1.3C30.9,58.3,31.3,58.1,31.8,58.1z M13.1,69.3h0.4
	v4.4h45.4c0.2-0.9,0.6-1.8,1.2-2.5l1-1.3l-1.7-0.2c-1.4-0.1-2.7-0.8-3.6-1.8c-0.9-1-1.5-2.4-1.4-3.8v-8.6c0-1.1,0.3-2.1,0.8-3
	c0.6-0.9,1.4-1.6,2.3-2.1H13.1c-1.5,0-2.9,0.6-4,1.6c-1.1,1.1-1.6,2.5-1.6,4v7.4c0,1.5,0.6,2.9,1.6,4C10.2,68.7,11.6,69.3,13.1,69.3
	z"/>
<path d="M89.3,73.4C76.9,73,76.9,55,89.3,54.6C101.7,55,101.7,73,89.3,73.4z M114.8,57.9l-4.3-0.4c-0.4-0.1-0.8-0.2-1.1-0.5
	c-0.3-0.3-0.6-0.6-0.7-1c-0.2-0.4-0.2-0.8-0.2-1.2s0.2-0.8,0.4-1.1l2.7-3.3c0.3-0.4,0.4-0.8,0.4-1.3c0-0.5-0.2-0.9-0.5-1.2l-6.1-6.1
	c-0.3-0.3-0.8-0.5-1.2-0.5c-0.5,0-0.9,0.1-1.3,0.4l-3.4,2.7c-0.3,0.2-0.7,0.4-1.1,0.4s-0.8,0-1.2-0.2c-0.4-0.2-0.7-0.4-1-0.7
	c-0.3-0.3-0.4-0.7-0.5-1.1l-0.4-4.3c0-0.5-0.3-0.9-0.6-1.2c-0.3-0.3-0.8-0.5-1.3-0.5H85c-0.5,0-0.9,0.2-1.3,0.5
	c-0.3,0.3-0.6,0.7-0.6,1.2l-0.4,4.3c-0.1,0.4-0.2,0.8-0.5,1.1c-0.3,0.3-0.6,0.6-1,0.7c-0.4,0.2-0.8,0.2-1.2,0.2
	c-0.4,0-0.8-0.2-1.1-0.4l-3.4-2.7c-0.4-0.3-0.8-0.5-1.3-0.4c-0.5,0-0.9,0.2-1.2,0.5l-6.1,6.1c-0.3,0.3-0.5,0.8-0.5,1.2
	s0.1,0.9,0.4,1.3l2.7,3.4c0.2,0.3,0.4,0.7,0.4,1.1c0,0.4,0,0.8-0.2,1.2c-0.2,0.4-0.4,0.7-0.7,1c-0.3,0.3-0.7,0.4-1.1,0.5l-4.3,0.4
	c-0.5,0-0.9,0.3-1.2,0.6s-0.5,0.8-0.5,1.3v8.6c0,0.5,0.2,0.9,0.5,1.3c0.3,0.3,0.7,0.6,1.2,0.6l4.3,0.4c0.4,0.1,0.8,0.2,1.1,0.5
	s0.6,0.6,0.7,1c0.2,0.4,0.2,0.8,0.2,1.2c0,0.4-0.2,0.8-0.4,1.1l-2.7,3.3c-0.3,0.4-0.4,0.8-0.4,1.3s0.2,0.9,0.5,1.2l6.1,6.1
	c0.3,0.3,0.8,0.5,1.2,0.5c0.5,0,0.9-0.1,1.3-0.4l3.4-2.7c0.3-0.2,0.7-0.4,1.1-0.4c0.4,0,0.8,0,1.2,0.2c0.4,0.2,0.7,0.4,1,0.7
	c0.3,0.3,0.4,0.7,0.5,1.1l0.4,4.3c0,0.5,0.3,0.9,0.6,1.2c0.3,0.3,0.8,0.5,1.3,0.5h8.5c0.5,0,0.9-0.2,1.3-0.5
	c0.3-0.3,0.6-0.7,0.6-1.2l0.4-4.3c0.1-0.4,0.2-0.8,0.5-1.1c0.3-0.3,0.6-0.6,1-0.7c0.4-0.2,0.8-0.2,1.2-0.2s0.8,0.2,1.1,0.4l3.4,2.7
	c0.4,0.3,0.8,0.4,1.3,0.4c0.5,0,0.9-0.2,1.2-0.5l6.1-6.1c0.3-0.3,0.5-0.8,0.5-1.2c0-0.5-0.1-0.9-0.4-1.3l-2.7-3.4
	c-0.2-0.3-0.4-0.7-0.4-1.1c0-0.4,0-0.8,0.2-1.2c0.2-0.4,0.4-0.7,0.7-1s0.7-0.4,1.1-0.5l4.3-0.4c0.5,0,0.9-0.3,1.2-0.6
	c0.3-0.3,0.5-0.8,0.5-1.3v-8.6c0-0.5-0.2-0.9-0.5-1.3S115.3,57.9,114.8,57.9z"/>
<g>
	<path class="st0" d="M85.3,69.4C72.9,69,72.9,51,85.3,50.6C97.7,51,97.7,69,85.3,69.4z M110.8,53.9l-4.3-0.4
		c-0.4-0.1-0.8-0.2-1.1-0.5c-0.3-0.3-0.6-0.6-0.7-1c-0.2-0.4-0.2-0.8-0.2-1.2s0.2-0.8,0.4-1.1l2.7-3.3c0.3-0.4,0.4-0.8,0.4-1.3
		c0-0.5-0.2-0.9-0.5-1.2l-6.1-6.1c-0.3-0.3-0.8-0.5-1.2-0.5c-0.5,0-0.9,0.1-1.3,0.4l-3.4,2.7c-0.3,0.2-0.7,0.4-1.1,0.4
		s-0.8,0-1.2-0.2c-0.4-0.2-0.7-0.4-1-0.7c-0.3-0.3-0.4-0.7-0.5-1.1l-0.4-4.3c0-0.5-0.3-0.9-0.6-1.2c-0.3-0.3-0.8-0.5-1.3-0.5H81
		c-0.5,0-0.9,0.2-1.3,0.5c-0.3,0.3-0.6,0.7-0.6,1.2l-0.4,4.3c-0.1,0.4-0.2,0.8-0.5,1.1c-0.3,0.3-0.6,0.6-1,0.7
		c-0.4,0.2-0.8,0.2-1.2,0.2c-0.4,0-0.8-0.2-1.1-0.4l-3.4-2.7c-0.4-0.3-0.8-0.5-1.3-0.4c-0.5,0-0.9,0.2-1.2,0.5l-6.1,6.1
		c-0.3,0.3-0.5,0.8-0.5,1.2c0,0.5,0.1,0.9,0.4,1.3l2.7,3.4c0.2,0.3,0.4,0.7,0.4,1.1c0,0.4,0,0.8-0.2,1.2c-0.2,0.4-0.4,0.7-0.7,1
		c-0.3,0.3-0.7,0.4-1.1,0.5l-4.3,0.4c-0.5,0-0.9,0.3-1.2,0.6s-0.5,0.8-0.5,1.3v8.6c0,0.5,0.2,0.9,0.5,1.3c0.3,0.3,0.7,0.6,1.2,0.6
		l4.3,0.4c0.4,0.1,0.8,0.2,1.1,0.5s0.6,0.6,0.7,1c0.2,0.4,0.2,0.8,0.2,1.2c0,0.4-0.2,0.8-0.4,1.1l-2.7,3.3c-0.3,0.4-0.4,0.8-0.4,1.3
		c0,0.5,0.2,0.9,0.5,1.2l6.1,6.1c0.3,0.3,0.8,0.5,1.2,0.5c0.5,0,0.9-0.1,1.3-0.4l3.4-2.7c0.3-0.2,0.7-0.4,1.1-0.4
		c0.4,0,0.8,0,1.2,0.2c0.4,0.2,0.7,0.4,1,0.7c0.3,0.3,0.4,0.7,0.5,1.1l0.4,4.3c0,0.5,0.3,0.9,0.6,1.2c0.3,0.3,0.8,0.5,1.3,0.5h8.5
		c0.5,0,0.9-0.2,1.3-0.5c0.3-0.3,0.6-0.7,0.6-1.2l0.4-4.3c0.1-0.4,0.2-0.8,0.5-1.1c0.3-0.3,0.6-0.6,1-0.7c0.4-0.2,0.8-0.2,1.2-0.2
		s0.8,0.2,1.1,0.4l3.4,2.7c0.4,0.3,0.8,0.4,1.3,0.4c0.5,0,0.9-0.2,1.2-0.5l6.1-6.1c0.3-0.3,0.5-0.8,0.5-1.2c0-0.5-0.1-0.9-0.4-1.3
		l-2.7-3.4c-0.2-0.3-0.4-0.7-0.4-1.1c0-0.4,0-0.8,0.2-1.2c0.2-0.4,0.4-0.7,0.7-1s0.7-0.4,1.1-0.5l4.3-0.4c0.5,0,0.9-0.3,1.2-0.6
		c0.3-0.3,0.5-0.8,0.5-1.3v-8.6c0-0.5-0.2-0.9-0.5-1.3S111.3,53.9,110.8,53.9z"/>
	<path d="M89.6,87.7C89.6,87.7,89.6,87.7,89.6,87.7H81c0,0,0,0,0,0c-0.6,0-1.2-0.2-1.6-0.6c-0.4-0.4-0.7-0.9-0.8-1.5l-0.4-4.3
		c-0.1-0.3-0.2-0.6-0.4-0.8c-0.2-0.2-0.5-0.4-0.8-0.6c-0.3-0.1-0.6-0.2-0.9-0.1c-0.3,0-0.6,0.1-0.9,0.3l-3.3,2.7
		c-0.5,0.4-1,0.6-1.6,0.5c-0.6,0-1.1-0.3-1.6-0.7l-6.1-6.1c-0.4-0.4-0.7-1-0.7-1.6c0-0.6,0.2-1.2,0.5-1.6l2.7-3.3
		c0.2-0.2,0.3-0.5,0.3-0.9c0-0.3,0-0.6-0.1-0.9c-0.1-0.3-0.3-0.6-0.6-0.8c-0.2-0.2-0.5-0.3-0.9-0.4l-4.3-0.4
		c-0.6-0.1-1.1-0.3-1.5-0.8c-0.4-0.4-0.6-1-0.6-1.6v-8.5c0-0.6,0.2-1.2,0.6-1.6s0.9-0.7,1.5-0.8l4.3-0.4c0.3-0.1,0.6-0.2,0.8-0.4
		c0.2-0.2,0.4-0.5,0.6-0.8c0.1-0.3,0.2-0.6,0.1-0.9c0-0.3-0.1-0.6-0.3-0.9l-2.7-3.3c-0.4-0.5-0.6-1-0.5-1.6c0-0.6,0.3-1.1,0.7-1.6
		l6.1-6.1c0.4-0.4,1-0.7,1.6-0.7c0.6,0,1.2,0.2,1.6,0.5l3.4,2.7c0.2,0.2,0.5,0.3,0.9,0.3c0.3,0,0.6,0,0.9-0.1
		c0.3-0.1,0.6-0.3,0.8-0.6c0.2-0.2,0.3-0.5,0.4-0.9l0.4-4.3c0.1-0.6,0.3-1.1,0.8-1.5c0.4-0.4,1-0.6,1.6-0.6c0,0,0,0,0,0h8.5
		c0.6,0,1.2,0.2,1.6,0.6c0.4,0.4,0.7,0.9,0.8,1.5l0.4,4.3c0.1,0.3,0.2,0.6,0.4,0.8c0.2,0.2,0.5,0.4,0.8,0.6c0.3,0.1,0.6,0.2,0.9,0.1
		c0.3,0,0.6-0.1,0.9-0.3l3.3-2.7c0.5-0.4,1-0.6,1.6-0.5c0.6,0,1.1,0.3,1.6,0.7l6.1,6.1c0.4,0.4,0.7,1,0.7,1.6c0,0.6-0.2,1.2-0.5,1.6
		l-2.7,3.3c-0.2,0.2-0.3,0.5-0.3,0.9c0,0.3,0,0.6,0.1,0.9c0.1,0.3,0.3,0.6,0.6,0.8c0.3,0.2,0.6,0.3,0.9,0.4l4.3,0.4
		c0.6,0.1,1.1,0.3,1.5,0.8c0.4,0.4,0.6,1,0.6,1.6v8.5c0,0.6-0.2,1.2-0.6,1.6c-0.4,0.4-0.9,0.7-1.5,0.8l-4.3,0.4
		c-0.3,0.1-0.6,0.2-0.8,0.4c-0.2,0.2-0.4,0.5-0.6,0.8c-0.1,0.3-0.2,0.6-0.1,0.9s0.1,0.6,0.3,0.9l2.7,3.3c0.4,0.5,0.6,1,0.5,1.6
		c0,0.6-0.3,1.1-0.7,1.6l-6.1,6.1c-0.4,0.4-1,0.7-1.6,0.7c-0.6,0-1.2-0.2-1.6-0.5L95.3,80c-0.2-0.2-0.5-0.3-0.8-0.3
		c-0.3,0-0.6,0-0.9,0.1c-0.3,0.1-0.6,0.3-0.8,0.6c-0.2,0.3-0.3,0.6-0.4,0.9L92,85.5c-0.1,0.6-0.3,1.1-0.8,1.5
		C90.8,87.5,90.2,87.7,89.6,87.7z M81,86.7h8.6c0.4,0,0.7-0.1,0.9-0.4c0.3-0.2,0.4-0.5,0.4-0.9l0.4-4.3c0.1-0.5,0.3-1,0.6-1.4
		c0.3-0.4,0.7-0.7,1.2-0.9c0.4-0.2,0.9-0.2,1.4-0.2c0.5,0.1,0.9,0.2,1.3,0.5l3.4,2.7c0.3,0.2,0.6,0.3,0.9,0.3c0.3,0,0.7-0.2,0.9-0.4
		l6.1-6.1c0.2-0.2,0.4-0.6,0.4-0.9c0-0.3-0.1-0.7-0.3-0.9l-2.7-3.4c-0.3-0.4-0.5-0.9-0.5-1.4c-0.1-0.5,0-1,0.2-1.4
		c0.2-0.4,0.5-0.8,0.9-1.2c0.4-0.3,0.8-0.5,1.3-0.6l4.4-0.4c0.3,0,0.7-0.2,0.9-0.4c0.2-0.3,0.4-0.6,0.4-0.9v-8.6
		c0-0.3-0.1-0.7-0.4-0.9c-0.2-0.3-0.5-0.4-0.9-0.4l-4.3-0.4c-0.5-0.1-1-0.3-1.4-0.6c-0.4-0.3-0.7-0.7-0.9-1.2
		c-0.2-0.5-0.3-0.9-0.2-1.4c0.1-0.5,0.2-1,0.5-1.4l2.8-3.4c0.2-0.3,0.3-0.6,0.3-0.9c0-0.3-0.2-0.7-0.4-0.9l-6.1-6.1
		c-0.2-0.2-0.6-0.4-0.9-0.4c-0.3,0-0.7,0.1-0.9,0.3L96,40.8c-0.4,0.3-0.9,0.5-1.4,0.5c-0.5,0-1,0-1.4-0.2c-0.4-0.2-0.8-0.5-1.2-0.9
		c-0.3-0.4-0.5-0.8-0.6-1.3L91,34.5c0-0.3-0.2-0.7-0.4-0.9c-0.3-0.2-0.6-0.3-0.9-0.4H81c0,0,0,0,0,0c-0.3,0-0.7,0.1-0.9,0.4
		c-0.3,0.2-0.4,0.5-0.4,0.9l-0.4,4.3c-0.1,0.5-0.3,1-0.6,1.3c-0.3,0.4-0.7,0.7-1.2,0.9c-0.4,0.2-0.9,0.3-1.4,0.2
		c-0.5,0-0.9-0.2-1.3-0.5L71.3,38c-0.3-0.2-0.6-0.3-0.9-0.3c-0.3,0-0.7,0.2-0.9,0.4l-6.1,6.1c-0.2,0.2-0.4,0.6-0.4,0.9
		c0,0.3,0.1,0.7,0.3,0.9l2.7,3.4c0.3,0.4,0.5,0.9,0.5,1.4c0.1,0.5,0,1-0.2,1.4s-0.5,0.8-0.9,1.2c-0.4,0.3-0.8,0.5-1.3,0.6l-4.4,0.4
		c-0.3,0-0.7,0.2-0.9,0.4s-0.4,0.6-0.4,0.9v8.6c0,0.3,0.1,0.7,0.4,0.9c0.2,0.3,0.5,0.4,0.9,0.4l4.3,0.4c0.5,0.1,1,0.3,1.4,0.6
		c0.4,0.3,0.7,0.7,0.9,1.2c0.2,0.5,0.3,0.9,0.2,1.4c0,0.5-0.2,1-0.5,1.4L63.3,74c-0.2,0.3-0.3,0.6-0.3,0.9c0,0.3,0.2,0.7,0.4,0.9
		l6.1,6.1c0.2,0.2,0.6,0.4,0.9,0.4c0.3,0,0.7-0.1,0.9-0.3l3.4-2.7c0.4-0.3,0.9-0.5,1.4-0.5c0.5,0,1,0,1.4,0.2
		c0.4,0.2,0.8,0.5,1.2,0.9c0.3,0.4,0.5,0.8,0.6,1.3l0.4,4.4c0,0.3,0.2,0.7,0.4,0.9C80.4,86.6,80.7,86.7,81,86.7z M85.3,69.9
		L85.3,69.9c-6.7-0.2-9.8-5.3-9.8-9.9c0-4.6,3.1-9.7,9.8-9.9c6.7,0.2,9.8,5.3,9.8,9.9C95.1,64.6,92,69.7,85.3,69.9L85.3,69.9z
		 M85.3,51.1c-6,0.2-8.8,4.7-8.8,8.9c0,4.1,2.8,8.7,8.8,8.9c6-0.2,8.8-4.7,8.8-8.9C94.1,55.9,91.3,51.3,85.3,51.1z"/>
</g>
<g>
	<defs>
		<path id="SVGID_1_" d="M85.3,69.4C72.9,69,72.9,51,85.3,50.6C97.7,51,97.7,69,85.3,69.4z M110.8,53.9l-4.3-0.4
			c-0.4-0.1-0.8-0.2-1.1-0.5s-0.6-0.6-0.7-1s-0.2-0.8-0.2-1.2c0-0.4,0.2-0.8,0.4-1.1l2.7-3.3c0.3-0.4,0.4-0.8,0.4-1.3
			c0-0.5-0.2-0.9-0.5-1.2l-6.1-6.1c-0.3-0.3-0.8-0.5-1.2-0.5c-0.5,0-0.9,0.1-1.3,0.4l-3.4,2.7c-0.3,0.2-0.7,0.4-1.1,0.4
			s-0.8,0-1.2-0.2c-0.4-0.2-0.7-0.4-1-0.7c-0.3-0.3-0.4-0.7-0.5-1.1l-0.4-4.3c0-0.5-0.3-0.9-0.6-1.2s-0.8-0.5-1.3-0.5H81
			c-0.5,0-0.9,0.2-1.3,0.5c-0.3,0.3-0.6,0.7-0.6,1.2l-0.4,4.3c-0.1,0.4-0.2,0.8-0.5,1.1s-0.6,0.6-1,0.7c-0.4,0.2-0.8,0.2-1.2,0.2
			c-0.4,0-0.8-0.2-1.1-0.4l-3.4-2.7c-0.4-0.3-0.8-0.5-1.3-0.4c-0.5,0-0.9,0.2-1.2,0.5l-6.1,6.1c-0.3,0.3-0.5,0.8-0.5,1.2
			s0.1,0.9,0.4,1.3l2.7,3.4c0.2,0.3,0.4,0.7,0.4,1.1c0,0.4,0,0.8-0.2,1.2c-0.2,0.4-0.4,0.7-0.7,1c-0.3,0.3-0.7,0.4-1.1,0.5l-4.3,0.4
			c-0.5,0-0.9,0.3-1.2,0.6s-0.5,0.8-0.5,1.3v8.5c0,0.5,0.2,0.9,0.5,1.3c0.3,0.3,0.7,0.6,1.2,0.6l4.3,0.4c0.4,0.1,0.8,0.2,1.1,0.5
			s0.6,0.6,0.7,1c0.2,0.4,0.2,0.8,0.2,1.2c0,0.4-0.2,0.8-0.4,1.1l-2.7,3.3c-0.3,0.4-0.4,0.8-0.4,1.3s0.2,0.9,0.5,1.2l6.1,6.1
			c0.3,0.3,0.8,0.5,1.2,0.5c0.5,0,0.9-0.1,1.3-0.4l3.4-2.7c0.3-0.2,0.7-0.4,1.1-0.4s0.8,0,1.2,0.2c0.4,0.2,0.7,0.4,1,0.7
			c0.3,0.3,0.4,0.7,0.5,1.1l0.4,4.3c0,0.5,0.3,0.9,0.6,1.2c0.3,0.3,0.8,0.5,1.3,0.5h8.6c0.5,0,0.9-0.2,1.3-0.5s0.6-0.7,0.6-1.2
			l0.4-4.3c0.1-0.4,0.2-0.8,0.5-1.1c0.3-0.3,0.6-0.6,1-0.7c0.4-0.2,0.8-0.2,1.2-0.2s0.8,0.2,1.1,0.4l3.4,2.7
			c0.4,0.3,0.8,0.4,1.3,0.4c0.5,0,0.9-0.2,1.2-0.5l6.1-6.1c0.3-0.3,0.5-0.8,0.5-1.2s-0.1-0.9-0.4-1.3l-2.7-3.4
			c-0.2-0.3-0.4-0.7-0.4-1.1c0-0.4,0-0.8,0.2-1.2c0.2-0.4,0.4-0.7,0.7-1c0.3-0.3,0.7-0.4,1.1-0.5l4.3-0.4c0.5,0,0.9-0.3,1.2-0.6
			c0.3-0.3,0.5-0.8,0.5-1.3v-8.5c0-0.5-0.2-0.9-0.5-1.3S111.3,53.9,110.8,53.9z"/>
	</defs>
	<clipPath id="SVGID_2_">
		<use xlink:href="#SVGID_1_"  style="overflow:visible;"/>
	</clipPath>
</g>
</svg>
