<?xml version="1.0" encoding="utf-8"?>
<!-- Generator: Adobe Illustrator 23.0.3, SVG Export Plug-In . SVG Version: 6.00 Build 0)  -->
<svg version="1.1" id="Слой_1" xmlns="http://www.w3.org/2000/svg" xmlns:xlink="http://www.w3.org/1999/xlink" x="0px" y="0px"
	 viewBox="0 0 120 120" style="enable-background:new 0 0 120 120;" xml:space="preserve">
<style type="text/css">
	.st0{fill:#FFFFFF;}
</style>
<path d="M95.7,37.3c-1.1-4.3-3.5-8.2-6.8-11.1c-3.9-3.3-8.8-5.2-13.9-5.2c-3.8,0-7.5,1-10.7,2.9c-3.4-3.1-7.9-4.9-12.7-4.9
	c-10.1,0-18.4,8.1-18.8,18.1c-3.5,1-6.7,3-9.1,5.8c-3,3.4-4.6,7.8-4.6,12.3C19,65.6,27.4,74,37.8,74h52.5c10.4,0,18.8-8.4,18.8-18.8
	C109,47,103.5,39.7,95.7,37.3z"/>
<g>
	<path class="st0" d="M91.7,33.3c-1.1-4.3-3.5-8.2-6.8-11.1c-3.9-3.3-8.8-5.2-13.9-5.2c-3.8,0-7.5,1-10.7,2.9
		c-3.4-3.1-7.9-4.9-12.7-4.9c-10.1,0-18.4,8.1-18.8,18.1c-3.5,1-6.7,3-9.1,5.8c-3,3.4-4.6,7.8-4.6,12.3C15,61.6,23.4,70,33.8,70
		h52.5c10.4,0,18.8-8.4,18.8-18.8C105,43,99.5,35.7,91.7,33.3z"/>
	<path d="M86.2,70.5H33.8c-10.6,0-19.3-8.6-19.3-19.3c0-4.7,1.7-9.1,4.7-12.7c2.4-2.8,5.5-4.8,9-5.8c0.5-10.3,8.9-18.3,19.2-18.3
		c4.7,0,9.2,1.7,12.7,4.8c3.2-1.8,6.9-2.8,10.7-2.8c5.2,0,10.3,1.9,14.3,5.3c3.4,2.9,5.8,6.7,6.9,11.1c7.9,2.5,13.4,10,13.4,18.4
		C105.5,61.9,96.9,70.5,86.2,70.5z M47.5,15.5c-9.9,0-17.9,7.8-18.3,17.7l0,0.4l-0.4,0.1c-3.4,1-6.5,2.9-8.9,5.6
		c-2.9,3.3-4.5,7.6-4.5,12c0,10.1,8.2,18.3,18.3,18.3h52.5c10.1,0,18.3-8.2,18.3-18.3c0-8-5.3-15.2-13-17.5l-0.3-0.1l-0.1-0.3
		c-1.1-4.2-3.4-8-6.7-10.8c-3.8-3.3-8.6-5-13.6-5c-3.7,0-7.3,1-10.5,2.8l-0.3,0.2l-0.3-0.2C56.4,17.2,52.1,15.5,47.5,15.5z"/>
</g>
<g>
	<defs>
		<path id="SVGID_1_" d="M91.7,33.3c-1.1-4.3-3.5-8.2-6.8-11.1c-3.9-3.3-8.8-5.2-13.9-5.2c-3.8,0-7.5,1-10.7,2.9
			c-3.4-3.1-7.9-4.9-12.7-4.9c-10.1,0-18.4,8.1-18.8,18.1c-3.5,1-6.7,3-9.1,5.8c-3,3.4-4.6,7.8-4.6,12.3C15,61.6,23.4,70,33.8,70
			h52.5c10.4,0,18.8-8.4,18.8-18.8C105,43,99.5,35.7,91.7,33.3z"/>
	</defs>
	<clipPath id="SVGID_2_">
		<use xlink:href="#SVGID_1_"  style="overflow:visible;"/>
	</clipPath>
</g>
<path d="M43.3,75.3v5H34c-1.2-4.1-4.9-7-9.3-7c-5.3,0-9.7,4.3-9.7,9.7s4.3,9.7,9.7,9.7c4.4,0,8.1-3,9.3-7h12c1.5,0,2.6-1.2,2.6-2.6
	v-7.7H43.3z"/>
<path d="M62.6,86V75.3h-5.3V86c-4.1,1.2-7,4.9-7,9.3c0,5.3,4.3,9.7,9.7,9.7s9.7-4.3,9.7-9.7C69.7,90.9,66.7,87.1,62.6,86z"/>
<path d="M95.3,73.3c-4.4,0-8.1,3-9.3,7h-9.3v-5h-5.3V83c0,1.5,1.2,2.6,2.6,2.6h12c1.2,4.1,4.9,7,9.3,7c5.3,0,9.7-4.3,9.7-9.7
	S100.7,73.3,95.3,73.3z"/>
</svg>
