<?xml version="1.0" encoding="utf-8"?>
<!-- Generator: Adobe Illustrator 23.0.3, SVG Export Plug-In . SVG Version: 6.00 Build 0)  -->
<svg version="1.1" id="Слой_1" xmlns="http://www.w3.org/2000/svg" xmlns:xlink="http://www.w3.org/1999/xlink" x="0px" y="0px"
	 viewBox="0 0 100 100" style="enable-background:new 0 0 100 100;" xml:space="preserve">
<style type="text/css">
	.st0{fill:#FFD209;}
</style>
<g>
	<path class="st0" d="M49.2,21.2h-1.7c-1.7,0-3.1-1.4-3.1-3.1c0-1.7,1.4-3.1,3.1-3.1h1.7c1.7,0,3.1,1.4,3.1,3.1
		C52.3,19.8,50.9,21.2,49.2,21.2z M35.5,21.2h-1.7c-1.7,0-3.1-1.4-3.1-3.1c0-1.7,1.4-3.1,3.1-3.1h1.7c1.7,0,3.1,1.4,3.1,3.1
		C38.6,19.8,37.2,21.2,35.5,21.2z M21.7,21.2h-1.7c-1.7,0-3.1-1.4-3.1-3.1c0-1.7,1.4-3.1,3.1-3.1h1.7c1.7,0,3.1,1.4,3.1,3.1
		C24.9,19.8,23.5,21.2,21.7,21.2z M84.2,12.5c0-3.4-2.8-6.3-6.3-6.3H12.5c-3.4,0-6.3,2.8-6.3,6.3v14.3h77.9V12.5z"/>
	<path d="M84.7,27.3H5.8V12.5c0-3.7,3-6.8,6.8-6.8h65.4c3.7,0,6.8,3,6.8,6.8V27.3z M6.8,26.3h76.9V12.5c0-3.2-2.6-5.8-5.8-5.8H12.5
		c-3.2,0-5.8,2.6-5.8,5.8V26.3z M49.2,21.7h-1.7c-2,0-3.6-1.6-3.6-3.6s1.6-3.6,3.6-3.6h1.7c2,0,3.6,1.6,3.6,3.6S51.2,21.7,49.2,21.7
		z M47.5,15.5c-1.4,0-2.6,1.2-2.6,2.6s1.2,2.6,2.6,2.6h1.7c1.4,0,2.6-1.2,2.6-2.6s-1.2-2.6-2.6-2.6H47.5z M35.5,21.7h-1.7
		c-2,0-3.6-1.6-3.6-3.6s1.6-3.6,3.6-3.6h1.7c2,0,3.6,1.6,3.6,3.6S37.5,21.7,35.5,21.7z M33.8,15.5c-1.4,0-2.6,1.2-2.6,2.6
		s1.2,2.6,2.6,2.6h1.7c1.4,0,2.6-1.2,2.6-2.6s-1.2-2.6-2.6-2.6H33.8z M21.7,21.7h-1.7c-2,0-3.6-1.6-3.6-3.6s1.6-3.6,3.6-3.6h1.7
		c2,0,3.6,1.6,3.6,3.6S23.7,21.7,21.7,21.7z M20.1,15.5c-1.4,0-2.6,1.2-2.6,2.6s1.2,2.6,2.6,2.6h1.7c1.4,0,2.6-1.2,2.6-2.6
		s-1.2-2.6-2.6-2.6H20.1z"/>
</g>
<path d="M38.6,65.7c-1.7,0-3.1-1.4-3.1-3.1c0-1.7,1.4-3.1,3.1-3.1h13.3c1.7,0,3.1,1.4,3.1,3.1c0,1.7-1.4,3.1-3.1,3.1H38.6z
	 M26.7,51.5c0-1.7,1.4-3.1,3.1-3.1h30.8c1.7,0,3.1,1.4,3.1,3.1c0,1.7-1.4,3.1-3.1,3.1H29.8C28.1,54.6,26.7,53.2,26.7,51.5z
	 M53.4,76.7c0-2.8,1.8-5.4,4.4-6.3l4.3-1.6c3.1-1.1,5.5-3.5,6.6-6.6l1.6-4.4c0.9-2.6,3.5-4.4,6.3-4.4c2.8,0,5.4,1.8,6.3,4.4l1.2,3.2
	V33H6.3v44.9c0,3.4,2.8,6.3,6.3,6.3h48.6L57.8,83C55.2,82.1,53.4,79.5,53.4,76.7z"/>
<path d="M97.5,80.3l-4.4-1.6c-4.8-1.7-8.7-5.6-10.4-10.4L81.1,64c-0.1-0.4-0.7-0.4-0.8,0l-1.6,4.4C77,73.2,73.2,77,68.3,78.7
	L64,80.3c-0.4,0.1-0.4,0.7,0,0.8l4.4,1.6c4.8,1.7,8.7,5.6,10.4,10.4l1.6,4.4c0.1,0.4,0.7,0.4,0.8,0l1.6-4.4
	c1.7-4.8,5.6-8.6,10.4-10.4l4.4-1.6C97.8,81,97.8,80.4,97.5,80.3z"/>
<g>
	<path class="st0" d="M93.5,76.3l-4.4-1.6c-4.8-1.7-8.7-5.6-10.4-10.4L77.1,60c-0.1-0.4-0.7-0.4-0.8,0l-1.6,4.4
		C73,69.2,69.2,73,64.3,74.7L60,76.3c-0.4,0.1-0.4,0.7,0,0.8l4.4,1.6c4.8,1.7,8.7,5.6,10.4,10.4l1.6,4.4c0.1,0.4,0.7,0.4,0.8,0
		l1.6-4.4c1.7-4.8,5.6-8.6,10.4-10.4l4.4-1.6C93.8,77,93.8,76.4,93.5,76.3z"/>
	<path d="M76.7,94.3c-0.4,0-0.8-0.2-0.9-0.6l-1.6-4.4c-1.7-4.7-5.4-8.4-10.1-10.1l-4.4-1.6c-0.4-0.1-0.6-0.5-0.6-0.9
		s0.2-0.8,0.6-0.9l4.4-1.6c4.7-1.7,8.4-5.4,10.1-10.1l1.6-4.4c0.1-0.4,0.5-0.6,0.9-0.6c0.4,0,0.8,0.2,0.9,0.6l1.6,4.4
		c1.7,4.7,5.4,8.4,10.1,10.1l4.4,1.6c0.4,0.1,0.6,0.5,0.6,0.9s-0.2,0.8-0.6,0.9l-4.4,1.6c-4.7,1.7-8.4,5.4-10.1,10.1l-1.6,4.4
		C77.5,94,77.1,94.3,76.7,94.3z M60.3,76.7l4.2,1.5c5,1.8,8.9,5.7,10.7,10.7l1.6,4.4l1.5-4.4c1.8-5,5.7-8.9,10.7-10.7l4.2-1.5
		l-4.2-1.5c-5-1.8-8.9-5.7-10.7-10.7l-1.6-4.4l-1.5,4.4c-1.8,5-5.7,8.9-10.7,10.7L60.3,76.7z"/>
</g>
</svg>
