<?xml version="1.0" encoding="utf-8"?>
<!-- Generator: Adobe Illustrator 23.0.3, SVG Export Plug-In . SVG Version: 6.00 Build 0)  -->
<svg version="1.1" id="Слой_1" xmlns="http://www.w3.org/2000/svg" xmlns:xlink="http://www.w3.org/1999/xlink" x="0px" y="0px"
	 viewBox="0 0 120 120" style="enable-background:new 0 0 120 120;" xml:space="preserve">
<style type="text/css">
	.st0{fill:#FFFFFF;}
</style>
<path d="M120,60.5v-0.9h-17.7c-0.1-11.2-4.6-21.3-11.8-28.8h14.6v-0.9H90.2V14.9h-0.9v14.6c-7.5-7.2-17.6-11.7-28.8-11.8V0h-0.9
	v17.7c-11.2,0.1-21.3,4.6-28.8,11.8V14.9h-0.9v14.9H14.9v0.9h14.6c-7.2,7.5-11.7,17.6-11.8,28.8H0v0.9h17.7
	c0.1,11.2,4.6,21.3,11.8,28.8H14.9v0.9h14.9v14.9h0.9V90.5c7.5,7.2,17.6,11.7,28.8,11.8V120h0.9v-17.7c11.2-0.1,21.3-4.6,28.8-11.8
	v14.6h0.9V90.2h14.9v-0.9H90.5c7.2-7.5,11.7-17.6,11.8-28.8H120z M89.3,60.5v27.9L71.5,70.6l-0.7,0.7l18.1,18.1H60.5v-0.1h-0.9v0.1
	H30.8c0,0,0,0-0.1-0.1V60.5h0v-0.9h0V31.6l17.8,17.8l0.7-0.7l-18-18h28.5v0.1h0.9v-0.1h28.8c0,0,0,0,0.1,0.1v28.8V60.5z M90.2,31.7
	c6.8,7.3,11,17.1,11.1,27.8H90.2V31.7z M88.3,29.8H60.5V18.6C71.2,18.7,81,22.9,88.3,29.8z M59.5,29.8H31.7c7.3-6.8,17-11,27.8-11.1
	V29.8z M29.8,31.7v27.8H18.6C18.7,48.8,22.9,39,29.8,31.7z M29.8,60.5v27.8c-6.8-7.3-11-17-11.1-27.8H29.8z M31.7,90.2h27.8v11.1
	C48.8,101.3,39,97.1,31.7,90.2z M60.5,90.2h27.8c-7.3,6.8-17.1,11-27.8,11.1V90.2z M90.2,88.3V60.5h11.1C101.3,71.2,97,81,90.2,88.3
	z"/>
<g>
	<path d="M71.7,71.8c-4.1,4.1-7.4,8.9-9.8,14.4c-2.4-5.5-5.6-10.3-9.7-14.4s-8.9-7.3-14.4-9.7c5.5-2.4,10.3-5.7,14.4-9.8
		s7.3-8.9,9.7-14.4c2.4,5.5,5.7,10.3,9.8,14.4c4.1,4.1,8.9,7.4,14.4,9.8C80.7,64.4,75.9,67.6,71.7,71.8z M103.4,61.9
		c-2.1-0.1-4.1-0.3-5.6-0.5v0c-1.9-0.3-3.8-0.7-5.6-1.2c0,0-0.3-0.1-0.5-0.2c-0.2-0.1-0.4-0.1-0.4-0.1c-1.2-0.4-2.3-0.8-3.5-1.3
		c-5.1-2.3-9.6-5.3-13.4-9.1c-3.8-3.8-6.8-8.3-9.1-13.4c-0.5-1.1-0.9-2.3-1.3-3.5l-0.3-0.9c-0.5-1.8-1-3.7-1.2-5.6h-0.1
		c-0.2-1.5-0.3-3.5-0.5-5.6c-0.1,2.1-0.3,4-0.5,5.7h0c-0.3,1.9-0.7,3.8-1.3,5.6L60,32.6c-0.4,1.2-0.8,2.3-1.3,3.5
		c-2.1,5.1-5.1,9.5-8.8,13.2l-0.7,0.7c-3.7,3.6-8,6.5-13,8.6c-1.1,0.5-2.3,0.9-3.5,1.3l-0.9,0.3c-1.8,0.5-3.7,1-5.6,1.2
		c-1.5,0.2-3.5,0.3-5.7,0.5c2.1,0.1,4,0.3,5.7,0.5c2.2,0.3,4.3,0.8,6.4,1.5c1.3,0.4,2.5,0.9,3.7,1.4c5.1,2.2,9.6,5.2,13.4,9
		c3.8,3.8,6.8,8.3,9,13.4c0.5,1.1,0.9,2.3,1.3,3.5l0.3,0.9c0.6,1.8,1,3.7,1.3,5.6h0c0.2,1.7,0.4,3.6,0.5,5.7
		c0.1-2.1,0.3-4.1,0.5-5.6h0.1c0.3-1.9,0.7-3.8,1.2-5.6l0.3-0.9c0.4-1.2,0.8-2.3,1.3-3.5c2.2-4.9,5-9.3,8.6-13l0.7-0.7
		c3.8-3.7,8.2-6.7,13.2-8.8c1.1-0.5,2.3-0.9,3.5-1.3l0.9-0.3c1.9-0.6,3.8-1,5.7-1.3v0C99.6,62.1,101.5,62,103.4,61.9L103.4,61.9z"/>
	<path class="st0" d="M69.7,69.8c-4.1,4.1-7.4,8.9-9.8,14.4c-2.4-5.5-5.6-10.3-9.7-14.4s-8.9-7.3-14.4-9.7
		c5.5-2.4,10.3-5.7,14.4-9.8s7.3-8.9,9.7-14.4c2.4,5.5,5.7,10.3,9.8,14.4c4.1,4.1,8.9,7.4,14.4,9.8C78.7,62.4,73.9,65.6,69.7,69.8z
		 M101.4,59.9c-2.1-0.1-4.1-0.3-5.6-0.5v0c-1.9-0.3-3.8-0.7-5.6-1.2c0,0-0.3-0.1-0.5-0.2c-0.2-0.1-0.4-0.1-0.4-0.1
		c-1.2-0.4-2.3-0.8-3.5-1.3c-5.1-2.3-9.6-5.3-13.4-9.1c-3.8-3.8-6.8-8.3-9.1-13.4c-0.5-1.1-0.9-2.3-1.3-3.5l-0.3-0.9
		c-0.5-1.8-1-3.7-1.2-5.6h-0.1c-0.2-1.5-0.3-3.5-0.5-5.6c-0.1,2.1-0.3,4-0.5,5.7h0c-0.3,1.9-0.7,3.8-1.3,5.6L58,30.6
		c-0.4,1.2-0.8,2.3-1.3,3.5c-2.1,5.1-5.1,9.5-8.8,13.2l-0.7,0.7c-3.7,3.6-8,6.5-13,8.6c-1.1,0.5-2.3,0.9-3.5,1.3l-0.9,0.3
		c-1.8,0.5-3.7,1-5.6,1.2c-1.5,0.2-3.5,0.3-5.7,0.5c2.1,0.1,4,0.3,5.7,0.5c2.2,0.3,4.3,0.8,6.4,1.5c1.3,0.4,2.5,0.9,3.7,1.4
		c5.1,2.2,9.6,5.2,13.4,9c3.8,3.8,6.8,8.3,9,13.4c0.5,1.1,0.9,2.3,1.3,3.5l0.3,0.9c0.6,1.8,1,3.7,1.3,5.6h0c0.2,1.7,0.4,3.6,0.5,5.7
		c0.1-2.1,0.3-4.1,0.5-5.6h0.1c0.3-1.9,0.7-3.8,1.2-5.6l0.3-0.9c0.4-1.2,0.8-2.3,1.3-3.5c2.2-4.9,5-9.3,8.6-13l0.7-0.7
		c3.8-3.7,8.2-6.7,13.2-8.8c1.1-0.5,2.3-0.9,3.5-1.3l0.9-0.3c1.9-0.6,3.8-1,5.7-1.3v0C97.6,60.1,99.5,60,101.4,59.9L101.4,59.9z"/>
</g>
</svg>
