<svg width="148" height="148" viewBox="0 0 148 148" fill="none" xmlns="http://www.w3.org/2000/svg">
<circle cx="74.0001" cy="74" r="72" fill="#FFD209" stroke="black" stroke-width="4"/>
<g clip-path="url(#clip0_1_674)">
<path d="M95.8751 84.7917C104.319 84.7917 111.188 77.9227 111.188 69.4792C111.188 65.6705 109.78 62.0201 107.223 59.2002C105.153 56.9165 102.47 55.3265 99.5187 54.6054C99.3632 44.687 91.2466 36.6667 81.2918 36.6667C75.5809 36.6667 70.3315 39.278 66.8913 43.7425C64.9909 42.9256 62.9441 42.5001 60.8751 42.5001C52.4316 42.5001 45.5626 49.369 45.5626 57.8125C45.5626 58.7081 45.6435 59.6019 45.8036 60.4877C40.5969 61.9768 36.8126 66.7876 36.8126 72.3959C36.8126 79.2307 42.3737 84.7917 49.2085 84.7917H60.146V98.8191L54.3821 100.741C53.1796 99.2013 51.3082 98.2084 49.2085 98.2084C45.59 98.2084 42.646 101.152 42.646 104.771C42.646 108.389 45.59 111.333 49.2085 111.333C52.7871 111.333 55.7037 108.454 55.7681 104.89L63.025 102.471C63.9183 102.173 64.521 101.338 64.521 100.396V84.7917H71.8126V98.5844C69.2662 99.4878 67.4376 101.919 67.4376 104.771C67.4376 108.389 70.3816 111.333 74.0001 111.333C77.6186 111.333 80.5626 108.389 80.5626 104.771C80.5626 101.919 78.734 99.4878 76.1876 98.5844V84.7917H83.4793V100.396C83.4793 101.338 84.082 102.173 84.9752 102.471L92.2321 104.89C92.2965 108.454 95.2132 111.333 98.7918 111.333C102.41 111.333 105.354 108.389 105.354 104.771C105.354 101.152 102.41 98.2084 98.7918 98.2084C96.692 98.2084 94.8207 99.2013 93.6181 100.741L87.8543 98.8191V84.7917H95.8751ZM49.2085 106.958C48.0002 106.958 47.021 105.979 47.021 104.771C47.021 103.563 48.0002 102.583 49.2085 102.583C50.4167 102.583 51.396 103.563 51.396 104.771C51.396 105.979 50.4167 106.958 49.2085 106.958ZM74.0001 106.958C72.7919 106.958 71.8126 105.979 71.8126 104.771C71.8126 103.563 72.7919 102.583 74.0001 102.583C75.2084 102.583 76.1876 103.563 76.1876 104.771C76.1876 105.979 75.2084 106.958 74.0001 106.958ZM98.7918 102.583C100 102.583 100.979 103.563 100.979 104.771C100.979 105.979 100 106.958 98.7918 106.958C97.5835 106.958 96.6043 105.979 96.6043 104.771C96.6043 103.563 97.5835 102.583 98.7918 102.583Z" fill="black"/>
</g>
<defs>
<clipPath id="clip0_1_674">
<rect width="74.6667" height="74.6667" fill="white" transform="translate(36.6668 36.6667)"/>
</clipPath>
</defs>
</svg>
