<?xml version="1.0" encoding="utf-8"?>
<!-- Generator: Adobe Illustrator 23.0.3, SVG Export Plug-In . SVG Version: 6.00 Build 0)  -->
<svg version="1.1" id="Слой_1" xmlns="http://www.w3.org/2000/svg" xmlns:xlink="http://www.w3.org/1999/xlink" x="0px" y="0px"
	 viewBox="0 0 102 100" style="enable-background:new 0 0 102 100;" xml:space="preserve">
<style type="text/css">
	.st0{fill:#FFD209;}
</style>
<g>
	<g>
		<path class="st0" d="M91,30.1c-28.3,0-52.5,0-79.9,0c-4.7,0-8.5,3.8-8.5,8.5v22.7c0,4.7,3.8,8.5,8.5,8.5h2.1h75.5H91
			c4.7,0,8.5-3.8,8.5-8.5V38.6C99.5,33.9,95.6,30.1,91,30.1z"/>
		<path d="M91,71.1H11c-5.4,0-9.7-4.4-9.7-9.7V38.6c0-5.4,4.4-9.7,9.7-9.7H91c5.4,0,9.7,4.4,9.7,9.7v22.7
			C100.7,66.8,96.3,71.1,91,71.1z M11,31.3c-4,0-7.3,3.3-7.3,7.3v22.7c0,4,3.3,7.3,7.3,7.3H91c4,0,7.3-3.3,7.3-7.3V38.6
			c0-4-3.3-7.3-7.3-7.3H11z"/>
	</g>
	<path d="M93.5,45.6L87.8,57c-1.1,2-4,2-5.1,0l-3.1-6.2L76.5,57c-1.1,2.1-5.1,2-5.6-0.9l-5.1-10c-0.3-0.4-0.5-0.9-0.6-1.5
		c0,0.3-0.1,0.7-0.3,1L59.4,57c-1.1,2-4,2-5.1,0l-3.1-6.2L47.7,57c-1,1.9-4.1,1.9-5.1,0c-0.4-0.9-5.8-11.4-5.9-12.3
		c-0.1,0.6-0.3,1.2-0.7,1.6c-0.5,1-5.2,10.6-5.8,11.3c-1.6,1.8-3.7,1-4.6-0.6l-3.1-6.2L19.3,57c-1.1,2-4,2-5.1,0L8.5,45.6
		c-1.7-3.3,3.4-5.9,5.1-2.5l3.1,6.2l3.1-6.2c1.1-2,4.1-2,5.1,0l3.1,6.2l3.1-6.2c1.3-2.5,5.3-1.9,5.5,1.2c0.1-3,4.1-3.8,5.4-1.2
		l3.1,6.2l3.1-6.2c1-1.9,4.5-1.9,5.5,0l3.1,6.2l3.1-6.2c1.3-2.5,5.2-1.9,5.4,1.2c0.1-3.1,4.2-3.7,5.5-1.2l3.1,6.2l3.1-6.2
		c1-1.9,4.1-1.9,5.1,0l3.1,6.2l3.1-6.2C90.1,39.7,95.1,42.2,93.5,45.6z"/>
	<g>
		<path d="M36.6,24.5h11.3v-11C43.7,14.7,39.7,18.6,36.6,24.5z"/>
		<path d="M54,7.5v0.2C61.2,9,67.5,15,71.7,24.5h13.4C77.7,14.6,66.4,8.4,54,7.5z"/>
		<path d="M16.9,24.5h13.4C34.5,15.1,40.9,9.1,48,7.7V7.5C35.6,8.4,24.3,14.6,16.9,24.5z"/>
		<path d="M54,13.5v10.9h11.3C62.3,18.6,58.3,14.7,54,13.5z"/>
	</g>
	<g>
		<path d="M36.6,75.5c3,5.8,7,9.7,11.3,10.9V75.5H36.6z"/>
		<path d="M54,75.5v10.9c4.3-1.2,8.3-5.2,11.3-10.9H54z"/>
		<path d="M71.7,75.5C67.5,84.9,61.1,90.9,54,92.3v0.2c12.4-0.9,23.7-7.1,31.1-16.9L71.7,75.5L71.7,75.5z"/>
		<path d="M30.3,75.5H16.9c7.4,9.7,18.7,16,31.1,16.9v-0.2C40.8,91,34.5,85,30.3,75.5z"/>
	</g>
</g>
</svg>
