<svg width="192" height="24" viewBox="0 0 192 24" fill="none" xmlns="http://www.w3.org/2000/svg">
<g clip-path="url(#clip0_416_1194)">
<path d="M27.5681 23.4295C26.2217 23.4295 25.1487 23.4158 24.0756 23.4329C23.2076 23.4465 22.965 22.7289 22.6062 22.1821C19.6023 17.62 16.6156 13.0476 13.6185 8.47858C13.2495 7.91814 12.8599 7.37478 12.1559 6.87585C12.1559 12.3299 12.1559 17.7806 12.1559 23.3338C10.748 23.3338 9.57924 23.3338 8.41735 23.3338C7.98334 22.0694 7.90816 2.51532 8.37634 0.509341C9.71935 0.509341 11.1205 0.505924 12.5216 0.509341C13.3657 0.512759 13.6254 1.2099 13.9876 1.77376C16.9265 6.31541 19.8586 10.8536 22.7941 15.3919C22.9718 15.6653 23.1734 15.9181 23.6382 16.1232C23.6382 10.9937 23.6382 5.86432 23.6382 0.523011C25.2854 0.523011 26.7548 0.423908 28.2003 0.581105C28.6719 0.632366 29.1675 1.29191 29.4887 1.78059C32.3558 6.16163 35.1854 10.5632 38.0286 14.9613C38.2952 15.3714 38.5754 15.7746 39.1017 16.1027C39.1017 11.0006 39.1017 5.89507 39.1017 0.646035C40.4447 0.646035 41.6544 0.646035 42.994 0.646035C42.994 8.17444 42.994 15.6516 42.994 23.2415C41.7672 23.6003 40.5164 23.5115 39.3101 23.344C38.8761 23.2825 38.4558 22.664 38.1551 22.2129C35.076 17.5653 32.0209 12.8972 28.9556 8.23937C28.5933 7.68918 28.2106 7.15607 27.5647 6.70498C27.5681 12.1898 27.5681 17.6781 27.5681 23.4295Z" fill="#FF0000"/>
<path d="M168.329 0.799805C175.929 0.799805 183.416 0.799805 190.893 0.799805C191.293 1.99929 191.406 21.0544 191.01 23.3235C183.505 23.3235 175.98 23.3235 168.329 23.3235C168.329 15.8566 168.329 8.43757 168.329 0.799805ZM182.008 9.83868C182.008 8.00698 182.008 6.39399 182.008 4.70924C180.375 4.70924 179.001 4.70924 177.446 4.70924C177.446 6.42475 177.446 7.99331 177.446 9.78742C175.601 9.78742 173.93 9.78742 172.204 9.78742C172.204 11.4072 172.204 12.7981 172.204 14.4213C173.974 14.4213 175.645 14.4213 177.545 14.4213C177.545 16.2633 177.545 17.8728 177.545 19.4824C179.124 19.4824 180.46 19.4824 182.039 19.4824C182.039 17.7464 182.039 16.1334 182.039 14.3427C183.908 14.3427 185.535 14.3427 187.247 14.3427C187.247 12.7673 187.247 11.3833 187.247 9.83868C185.569 9.83868 183.994 9.83868 182.008 9.83868Z" fill="#FF0000"/>
<path d="M143.321 0.813606C147.302 0.270248 151.174 0.00711265 154.991 0.776015C159.454 1.67478 163.09 4.18994 163.561 10.1771C163.65 11.3048 163.657 12.4565 163.551 13.5842C163.045 18.9426 158.77 23.1733 153.46 23.4227C150.278 23.5731 147.086 23.4501 143.898 23.4432C143.741 23.4432 143.584 23.3578 143.321 23.2826C143.321 15.8567 143.321 8.43086 143.321 0.813606ZM148.788 19.691C150.787 19.9678 152.571 19.7867 154.29 19.1511C155.797 18.594 156.946 17.5552 157.472 16.031C158.381 13.3928 158.494 10.7034 157.585 8.0242C157.147 6.73586 156.341 5.70382 155.148 5.07503C153.166 4.02933 151.044 4.03958 148.788 4.30613C148.788 9.47657 148.788 14.5001 148.788 19.691Z" fill="white"/>
<path d="M118.388 0.454759C119.389 0.454759 120.291 0.369326 121.169 0.471846C122.748 0.656382 123.572 1.56198 123.736 3.16813C123.787 3.6739 123.766 4.18992 123.77 4.70252C123.787 8.3454 123.807 11.9849 123.811 15.6278C123.811 17.2886 124.282 18.7341 125.933 19.3766C127.744 20.0806 129.668 20.2241 131.308 19.0075C131.965 18.5222 132.382 17.5449 132.614 16.7111C132.884 15.744 132.894 14.6846 132.904 13.6662C132.935 9.96864 132.918 6.26766 132.918 2.57009C132.918 1.95839 132.918 1.3501 132.918 0.54361C133.96 0.512854 134.808 0.379578 135.625 0.482098C137.607 0.731564 138.273 1.53464 138.28 3.5372C138.294 7.46373 138.311 11.3903 138.276 15.3168C138.232 20.2753 135.703 23.04 130.738 23.802C128.383 24.1643 126.087 24.0173 123.818 23.3954C120.971 22.6162 119.238 20.7401 118.668 17.8456C118.47 16.8443 118.319 15.8191 118.312 14.8042C118.271 10.4231 118.292 6.0387 118.295 1.65766C118.292 1.38086 118.336 1.10064 118.388 0.454759Z" fill="white"/>
<path d="M58.7002 23.4739C58.4165 23.4739 58.1329 23.4739 57.8458 23.4739C52.6583 23.4739 48.7967 20.4974 47.4571 15.4329C46.4251 11.5337 46.9274 7.89082 49.3537 4.58967C52.1252 0.816923 57.1863 -0.85074 62.0047 0.427346C66.6011 1.64734 70.0457 5.56361 70.5276 10.2317C71.0539 15.3577 69.3794 19.503 64.9437 22.3633C63.7134 23.1561 62.4012 23.5935 60.9146 23.4876C60.1833 23.4295 59.4383 23.4739 58.7002 23.4739ZM66.42 12.1864C66.6592 4.55208 59.4554 2.32055 55.0436 4.76395C51.8313 6.54097 50.9462 9.49697 51.2059 12.887C51.4383 15.9318 52.8053 18.3855 55.751 19.5611C58.6523 20.7161 61.4648 20.4154 63.8877 18.2898C65.7672 16.6392 66.4917 14.476 66.42 12.1864Z" fill="white"/>
<path d="M116.706 23.4056C114.693 23.4056 113.002 23.4056 111.16 23.4056C109.058 17.4286 106.96 11.4654 104.862 5.50212C104.756 5.4987 104.646 5.4987 104.54 5.49528C103.59 8.19498 102.64 10.8913 101.663 13.6798C103.194 14.001 104.862 13.714 105.853 15.0365C106.406 15.7781 106.669 16.7418 107.179 17.8592C104.715 18.1224 102.521 17.8661 100.2 18.0472C99.5442 19.7934 98.8744 21.5807 98.1978 23.3851C96.4652 23.3851 94.8351 23.3851 93.0615 23.3851C93.2016 22.8554 93.2734 22.4248 93.4272 22.0284C96.0414 15.3612 98.6796 8.70417 101.273 2.0301C101.598 1.19627 102.032 0.680246 102.948 0.618734C103.512 0.581143 104.072 0.447867 104.639 0.43078C106.803 0.362433 107.917 1.06299 108.716 3.06555C110.61 7.81566 112.469 12.5794 114.338 17.3398C115.103 19.2911 115.862 21.2424 116.706 23.4056Z" fill="white"/>
<path d="M71.9595 0.919342C73.4118 0.297386 74.707 0.290551 75.9954 0.570773C77.5913 0.915925 78.2542 2.19059 78.7326 3.57462C79.546 5.93942 80.3285 8.31789 81.1282 10.6895C81.8185 12.7365 82.5122 14.7835 83.2128 16.8271C83.3153 17.1312 83.4759 17.4114 83.7254 17.9514C84.2756 16.3794 84.7506 15.0501 85.2119 13.7139C86.3772 10.3273 87.5186 6.93045 88.7079 3.54728C89.7775 0.505844 92.0534 -0.406587 95.1427 1.01844C94.5823 2.4879 94.0253 3.97103 93.458 5.44732C91.3187 11.0244 89.1761 16.5981 87.03 22.1718C86.4763 23.6139 86.4695 23.6208 84.9625 23.6378C83.8245 23.6515 82.6865 23.631 81.5451 23.6344C80.9197 23.6344 80.4994 23.4294 80.2534 22.7732C77.5263 15.5422 74.7719 8.31789 71.9595 0.919342Z" fill="white"/>
<path d="M4.17653 0.587891C4.17653 8.20173 4.17653 15.6823 4.17653 23.3166C2.88819 23.3166 1.6306 23.3166 0.239746 23.3166C0.239746 15.7609 0.239746 8.24274 0.239746 0.587891C1.52467 0.587891 2.74466 0.587891 4.17653 0.587891Z" fill="white"/>
</g>
<defs>
<clipPath id="clip0_416_1194">
<rect width="191.016" height="24" fill="white" transform="translate(0.239746)"/>
</clipPath>
</defs>
</svg>
