<svg width="48" height="48" viewBox="0 0 48 48" fill="none" xmlns="http://www.w3.org/2000/svg">
<g clip-path="url(#clip0_416_1208)">
<path d="M41.4545 0H6.54545C4.80949 0 3.14463 0.689608 1.91712 1.91712C0.689608 3.14463 0 4.80949 0 6.54545L0 41.4545C0 43.1905 0.689608 44.8554 1.91712 46.0829C3.14463 47.3104 4.80949 48 6.54545 48H41.4545C43.1905 48 44.8554 47.3104 46.0829 46.0829C47.3104 44.8554 48 43.1905 48 41.4545V6.54545C48 4.80949 47.3104 3.14463 46.0829 1.91712C44.8554 0.689608 43.1905 0 41.4545 0ZM16.3636 37.9855C16.364 38.1186 16.3381 38.2504 16.2874 38.3735C16.2367 38.4966 16.1622 38.6084 16.0682 38.7027C15.9743 38.7969 15.8626 38.8717 15.7397 38.9227C15.6167 38.9737 15.4849 39 15.3518 39H11.04C10.9067 39.0004 10.7746 38.9744 10.6513 38.9235C10.5281 38.8726 10.4161 38.7979 10.3218 38.7036C10.2275 38.6094 10.1528 38.4974 10.1019 38.3741C10.0511 38.2509 10.0251 38.1188 10.0255 37.9855V19.9091C10.0255 19.64 10.1323 19.382 10.3226 19.1917C10.5129 19.0014 10.7709 18.8945 11.04 18.8945H15.3518C15.6204 18.8953 15.8778 19.0025 16.0674 19.1927C16.2571 19.3828 16.3636 19.6405 16.3636 19.9091V37.9855ZM13.1945 17.1818C12.3854 17.1818 11.5945 16.9419 10.9218 16.4924C10.249 16.0429 9.72467 15.4039 9.41504 14.6564C9.10541 13.9089 9.02439 13.0864 9.18224 12.2928C9.34009 11.4993 9.72971 10.7703 10.3018 10.1982C10.874 9.62608 11.6029 9.23645 12.3964 9.07861C13.19 8.92076 14.0126 9.00177 14.7601 9.3114C15.5076 9.62103 16.1465 10.1454 16.596 10.8181C17.0455 11.4909 17.2855 12.2818 17.2855 13.0909C17.2855 14.1759 16.8545 15.2164 16.0873 15.9836C15.3201 16.7508 14.2795 17.1818 13.1945 17.1818ZM38.9018 38.0564C38.9022 38.179 38.8783 38.3004 38.8316 38.4137C38.7848 38.5271 38.7161 38.63 38.6294 38.7167C38.5428 38.8034 38.4398 38.8721 38.3265 38.9188C38.2131 38.9656 38.0917 38.9895 37.9691 38.9891H33.3327C33.2101 38.9895 33.0887 38.9656 32.9754 38.9188C32.862 38.8721 32.7591 38.8034 32.6724 38.7167C32.5857 38.63 32.517 38.5271 32.4703 38.4137C32.4235 38.3004 32.3996 38.179 32.4 38.0564V29.5882C32.4 28.3227 32.7709 24.0464 29.0918 24.0464C26.2418 24.0464 25.6609 26.9727 25.5464 28.2873V38.0673C25.5464 38.3123 25.45 38.5475 25.278 38.722C25.106 38.8966 24.8723 38.9964 24.6273 39H20.1491C20.0267 39 19.9056 38.9759 19.7926 38.9289C19.6796 38.882 19.5769 38.8133 19.4905 38.7266C19.4041 38.64 19.3357 38.5372 19.2891 38.424C19.2425 38.3109 19.2187 38.1896 19.2191 38.0673V19.83C19.2187 19.7076 19.2425 19.5864 19.2891 19.4733C19.3357 19.3601 19.4041 19.2573 19.4905 19.1706C19.5769 19.084 19.6796 19.0152 19.7926 18.9683C19.9056 18.9214 20.0267 18.8973 20.1491 18.8973H24.6273C24.8746 18.8973 25.1119 18.9955 25.2868 19.1705C25.4617 19.3454 25.56 19.5826 25.56 19.83V21.4064C26.6182 19.8164 28.1864 18.5945 31.5327 18.5945C38.9455 18.5945 38.8964 25.5164 38.8964 29.3182L38.9018 38.0564Z" fill="#FFD209"/>
</g>
<defs>
<clipPath id="clip0_416_1208">
<rect width="48" height="48" fill="white"/>
</clipPath>
</defs>
</svg>
