<svg width="180" height="31" viewBox="0 0 180 31" fill="none" xmlns="http://www.w3.org/2000/svg">
<g clip-path="url(#clip0_603_302)">
<path fill-rule="evenodd" clip-rule="evenodd" d="M103.265 18.7133H105.621V21.4496H108.358V23.8058H105.621V26.5421H103.265V23.8058H100.529V21.4496H103.265V18.7133ZM104.443 16.7485C107.689 16.7485 110.319 19.3784 110.319 22.6239C110.319 25.8694 107.689 28.4992 104.443 28.4992C101.198 28.4992 98.5679 25.8694 98.5679 22.6239C98.5679 19.3822 101.198 16.7485 104.443 16.7485Z" fill="black"/>
<path d="M86.7374 14.8598H91.636C91.4954 13.2371 90.7316 12.4238 89.352 12.4238C88.6224 12.4238 88.0219 12.6556 87.5583 13.1231C87.0946 13.5905 86.821 14.1682 86.7374 14.8598ZM84.0011 10.6605C85.3388 9.26192 87.106 8.56266 89.295 8.56266C91.5676 8.56266 93.2854 9.23152 94.4521 10.5692C95.6188 11.907 96.2003 13.7121 96.2003 15.9848C96.2003 16.4902 96.1585 16.9804 96.0787 17.4441H86.7374C86.8172 18.1738 87.163 18.7666 87.7711 19.2227C88.3791 19.6787 89.1696 19.9067 90.1463 19.9067C92.0921 19.9067 93.8364 19.5609 95.3794 18.873H95.6834V22.8596C94.3039 23.4867 92.4569 23.8021 90.1463 23.8021C87.6495 23.8021 85.6619 23.0876 84.1835 21.6587C82.7014 20.2297 81.9641 18.379 81.9641 16.1064C81.9603 13.8756 82.6406 12.059 84.0011 10.6605ZM57.9421 10.2652C60.4351 9.12891 62.7381 8.56266 64.8473 8.56266C66.8349 8.56266 68.4463 9.10991 69.6852 10.2044C71.3497 9.10991 73.0333 8.56266 74.7359 8.56266C78.4678 8.56266 80.3338 10.592 80.3338 14.647V23.3802H75.6479V14.4646C75.6479 13.9554 75.4769 13.5601 75.1311 13.2789C74.7853 12.9939 74.371 12.8533 73.8846 12.8533C73.1967 12.8533 72.4024 13.0775 71.5132 13.5221V23.3802H66.7969V14.4646C66.7969 13.9554 66.6259 13.5601 66.2801 13.2789C65.9342 12.9939 65.52 12.8533 65.0336 12.8533C64.2431 12.8533 63.4602 13.0471 62.6887 13.4309V23.3802H57.9421V10.2652ZM46.3092 8.9883V17.9647C46.3092 18.4094 46.4954 18.7818 46.8717 19.0744C47.2479 19.3671 47.6773 19.5153 48.1638 19.5153C48.8934 19.5153 49.7447 19.3139 50.7214 18.9072V8.9883H55.4073V23.9883C55.4073 26.0975 54.7726 27.7012 53.5071 28.7957C52.2378 29.8902 50.5504 30.4375 48.4412 30.4375C45.9254 30.4375 43.9796 30.0309 42.6001 29.2214V25.2044H42.9953C44.6789 25.8923 46.3928 26.2381 48.1372 26.2381C48.8896 26.2381 49.5053 26.0291 49.9918 25.6148C50.4782 25.2006 50.7214 24.5964 50.7214 23.8059V22.833C49.4635 23.2776 48.5932 23.5019 48.103 23.5019C46.1952 23.5019 44.6333 23.0458 43.4171 22.1337C42.201 21.2216 41.593 19.7699 41.593 17.7823V8.9883H46.3092ZM38.2335 0.4375V18.6944C38.2335 19.2227 38.4273 19.4849 38.8111 19.4849C39.3812 19.4849 39.898 19.4545 40.3617 19.3937H40.5137V23.3802C39.9056 23.5627 39.1531 23.6539 38.2601 23.6539C35.0754 23.6539 33.483 22.1717 33.483 19.2113V0.4375H38.2335ZM16.9211 10.2652C19.4559 9.12891 21.8083 8.56266 23.9783 8.56266C28.5616 8.56266 30.8532 10.5996 30.8532 14.6774V23.3802H26.1407V14.495C26.1407 14.0086 25.9583 13.6133 25.5935 13.3093C25.2286 13.0053 24.7498 12.8533 24.1645 12.8533C23.3133 12.8533 22.4696 13.0471 21.6373 13.4309V23.3802H16.9211V10.2652ZM5.37939 8.9883V18.0255C5.37939 18.4512 5.58081 18.8046 5.98744 19.0896C6.39408 19.3747 6.91093 19.5153 7.53799 19.5153C8.16505 19.5153 8.67809 19.3747 9.07333 19.0896C9.46857 18.8046 9.66619 18.4512 9.66619 18.0255V8.9883H14.4128V18.7248C14.4128 20.2677 13.7934 21.4953 12.5583 22.4074C11.3003 23.3422 9.62818 23.8059 7.53799 23.8059C5.44779 23.8059 3.77944 23.346 2.53292 22.4226C1.28641 21.4991 0.663147 20.264 0.663147 18.7248V8.9883H5.37939Z" fill="black"/>
<path d="M167.989 16.2734C167.989 17.6719 168.415 18.8386 169.266 19.7735C170.117 20.7274 171.181 21.2024 172.462 21.2024C173.739 21.2024 175.08 21.039 176.479 20.716V12.5908C175.141 11.7776 173.8 11.3747 172.462 11.3747C171.185 11.3747 170.121 11.846 169.266 12.7885C168.415 13.7309 167.989 14.8939 167.989 16.2734ZM167.107 10.8883C168.445 9.44795 170.11 8.72968 172.097 8.72968C172.929 8.72968 173.663 8.87029 174.305 9.15532C174.944 9.44035 175.669 9.87359 176.479 10.4626V0.48291H179.341V22.8176C176.745 23.5055 174.453 23.8513 172.466 23.8513C170.315 23.8513 168.551 23.133 167.172 21.6889C165.792 20.2486 165.105 18.4434 165.105 16.2734C165.097 14.1224 165.77 12.3286 167.107 10.8883ZM153.092 9.18192V18.7664C153.092 19.4961 153.426 20.0889 154.095 20.545C154.764 21.001 155.577 21.229 156.527 21.229C157.462 21.229 158.26 21.001 158.933 20.545C159.602 20.0889 159.936 19.4961 159.936 18.7664V9.18192H162.798V19.1313C162.798 20.5906 162.22 21.7383 161.065 22.5706C159.909 23.4219 158.397 23.8475 156.531 23.8475C154.665 23.8475 153.149 23.4219 151.982 22.5706C150.815 21.7193 150.234 20.5716 150.234 19.1313V9.18192H153.092ZM135.853 16.3038C135.853 17.6643 136.298 18.8196 137.191 19.7735C138.084 20.7464 139.178 21.2328 140.478 21.2328C141.778 21.2328 142.872 20.7502 143.766 19.7887C144.659 18.8234 145.103 17.6643 145.103 16.3038C145.103 14.9433 144.659 13.7842 143.766 12.8189C142.872 11.8536 141.778 11.3747 140.478 11.3747C139.178 11.3747 138.084 11.8574 137.191 12.8189C136.298 13.7842 135.853 14.9433 135.853 16.3038ZM132.992 16.3038C132.992 14.1528 133.702 12.359 135.12 10.9187C136.541 9.47835 138.323 8.76008 140.474 8.76008C142.625 8.76008 144.412 9.47835 145.829 10.9187C147.25 12.359 147.957 14.1528 147.957 16.3038C147.957 18.432 147.247 20.2182 145.829 21.6585C144.389 23.1178 142.603 23.8513 140.474 23.8513C138.346 23.8513 136.564 23.1254 135.135 21.6775C133.706 20.222 132.992 18.432 132.992 16.3038ZM129.685 0.48291V20.1383C129.685 20.4614 129.75 20.716 129.883 20.8984C130.016 21.0808 130.183 21.172 130.384 21.172C130.791 21.172 131.308 21.1302 131.935 21.0504H132.087V23.4561C131.521 23.6195 130.86 23.6993 130.111 23.6993C127.899 23.6993 126.793 22.5934 126.793 20.3816V0.48291H129.685ZM113.572 10.8275C115.012 9.42894 116.806 8.72968 118.957 8.72968C119.789 8.72968 120.69 8.85509 121.666 9.10971C122.639 9.36434 123.453 9.70257 124.102 10.1282V12.8987H123.859C122.256 11.884 120.656 11.3785 119.052 11.3785C117.714 11.3785 116.585 11.846 115.673 12.7771C114.761 13.7081 114.305 14.8749 114.305 16.2772C114.305 17.6757 114.761 18.85 115.673 19.7925C116.585 20.735 117.71 21.2062 119.052 21.2062C120.656 21.2062 122.256 20.7084 123.859 19.7165H124.102V22.4566C122.742 23.3914 121.028 23.8551 118.961 23.8551C116.791 23.8551 114.989 23.1444 113.56 21.7269C112.131 20.3056 111.417 18.4814 111.417 16.2506C111.413 14.0502 112.131 12.245 113.572 10.8275Z" fill="black"/>
</g>
<defs>
<clipPath id="clip0_603_302">
<rect width="178.674" height="30" fill="white" transform="translate(0.663147 0.4375)"/>
</clipPath>
</defs>
</svg>
