<svg width="24" height="24" viewBox="0 0 24 24" fill="none" xmlns="http://www.w3.org/2000/svg">
<path fill-rule="evenodd" clip-rule="evenodd" d="M12 22.8593C17.9974 22.8593 22.8593 17.9974 22.8593 12C22.8593 6.00258 17.9974 1.14072 12 1.14072C6.00258 1.14072 1.14072 6.00258 1.14072 12C1.14072 17.9974 6.00258 22.8593 12 22.8593ZM12 24C18.6274 24 24 18.6274 24 12C24 5.37258 18.6274 0 12 0C5.37258 0 0 5.37258 0 12C0 18.6274 5.37258 24 12 24Z" fill="black"/>
<path fill-rule="evenodd" clip-rule="evenodd" d="M18.4803 7.24579C19.1485 7.91401 19.1485 8.9974 18.4803 9.66562L11.3898 16.7561C10.7216 17.4243 9.63817 17.4243 8.96995 16.7561L5.74701 13.5331C5.0788 12.8649 5.0788 11.7815 5.74701 11.1133C6.41523 10.4451 7.49862 10.4451 8.16684 11.1133L10.1799 13.1263L16.0604 7.24579C16.7286 6.57757 17.812 6.57757 18.4803 7.24579Z" fill="black"/>
</svg>
