<svg width="440" height="414" viewBox="0 0 440 414" fill="none" xmlns="http://www.w3.org/2000/svg">
<g clip-path="url(#clip0_1_6)">
<path d="M326.379 82.5518L326.344 82.9702L326.758 83.0396C344.529 86.0179 358.085 101.468 358.075 120.095C358.075 140.844 341.251 157.668 320.502 157.668H117.408C96.6588 157.668 79.8345 140.844 79.8345 120.095C79.8345 100.502 94.8258 84.4242 113.961 82.681L114.33 82.6474L114.373 82.2792C116.647 62.7791 132.5 47.6979 151.697 47.6979C161.801 47.6979 170.972 51.8682 177.728 58.6637L178.303 59.2416L178.495 58.4498C186.502 25.5599 216.146 1.13866 251.5 1.13866C293.008 1.13866 326.659 34.79 326.659 76.298C326.659 78.4096 326.549 80.4836 326.379 82.5518Z" fill="#FFF5C4" stroke="black" stroke-width="0.913065"/>
<path d="M320.502 147.427H117.418C98.2214 147.427 82.3522 133.202 79.761 114.721C79.509 116.475 79.3779 118.27 79.3779 120.095C79.3779 141.096 96.4066 158.125 117.408 158.125H320.502C341.503 158.125 358.532 141.096 358.532 120.095C358.532 118.27 358.401 116.485 358.149 114.731C355.568 133.202 339.698 147.427 320.502 147.427Z" fill="black"/>
<path d="M313.617 180.164H296.628V192.908H313.617V180.164Z" fill="black"/>
<path d="M385.804 180.164H368.816V192.908H385.804V180.164Z" fill="black"/>
<path d="M395.947 170.727H286.485V186.294H395.947V170.727Z" fill="#FFF5C4"/>
<path d="M385.805 175.909H324.344V180.154H385.805V175.909Z" fill="#FFF5C4"/>
<path d="M311.368 177.563C311.368 178.863 312.426 179.922 313.727 179.922C315.028 179.922 316.086 178.863 316.086 177.563C316.086 176.262 315.028 175.204 313.727 175.204C312.426 175.204 311.368 176.262 311.368 177.563Z" fill="#FFD209"/>
<path d="M303.353 177.563C303.353 178.863 304.411 179.922 305.712 179.922C307.012 179.922 308.071 178.863 308.071 177.563C308.071 176.262 307.012 175.204 305.712 175.204C304.411 175.204 303.353 176.262 303.353 177.563Z" fill="#FFD209"/>
<path d="M295.327 177.563C295.327 178.863 296.386 179.922 297.687 179.922C298.987 179.922 300.046 178.863 300.046 177.563C300.046 176.262 298.987 175.204 297.687 175.204C296.386 175.204 295.327 176.262 295.327 177.563Z" fill="#FFD209"/>
<path d="M258.447 411.982H410.687C426.324 411.982 438.998 399.309 438.998 383.672V231.432C438.998 215.794 426.324 203.121 410.687 203.121" stroke="black" stroke-width="1.88737" stroke-miterlimit="10" stroke-linecap="round" stroke-linejoin="round"/>
<path d="M438.997 286.793C438.997 271.155 426.324 258.482 410.687 258.482" stroke="black" stroke-width="1.88737" stroke-miterlimit="10" stroke-linecap="round" stroke-linejoin="round"/>
<path d="M438.997 341.841C438.997 326.204 426.324 313.53 410.687 313.53" stroke="black" stroke-width="1.88737" stroke-miterlimit="10" stroke-linecap="round" stroke-linejoin="round"/>
<path d="M411.624 368.266C422.059 368.266 430.508 376.725 430.508 387.15L430.498 389.429C430.498 399.864 422.039 408.312 411.614 408.312H277.643" stroke="black" stroke-width="1.95402" stroke-miterlimit="10" stroke-linecap="round" stroke-linejoin="round"/>
<path d="M396.259 202.577C396.259 206.317 399.294 209.342 403.024 209.342H407.087C410.828 209.342 413.853 206.307 413.853 202.577C413.853 198.836 410.818 195.812 407.087 195.812H403.024C399.284 195.801 396.259 198.836 396.259 202.577Z" fill="black"/>
<path d="M303.958 234.779H281.616V246.575H303.958V234.779Z" fill="black"/>
<path d="M389.323 234.779H366.981V246.575H389.323V234.779Z" fill="black"/>
<path d="M407.935 232.359C407.935 236.1 404.9 239.124 401.169 239.124H269.769C266.029 239.124 263.004 236.09 263.004 232.359V196.477C263.004 192.736 266.039 189.712 269.769 189.712H401.169C404.91 189.712 407.935 192.747 407.935 196.477V232.359Z" fill="#FFF5C4"/>
<path d="M401.169 229.647H269.769C266.029 229.647 263.004 226.612 263.004 222.882V232.359C263.004 236.1 266.039 239.124 269.769 239.124H401.169C404.91 239.124 407.934 236.09 407.934 232.359V222.882C407.934 226.623 404.9 229.647 401.169 229.647Z" fill="black"/>
<path d="M272.27 198.295H311.266C312.022 198.295 312.635 198.908 312.635 199.664V219.705C312.635 220.461 312.022 221.074 311.266 221.074H272.27C271.514 221.074 270.901 220.461 270.901 219.705V199.664C270.901 198.908 271.514 198.295 272.27 198.295Z" fill="#FFD209" stroke="black" stroke-width="0.913065"/>
<path d="M321.693 198.295H397.992C398.748 198.295 399.362 198.908 399.362 199.664V219.705C399.362 220.461 398.748 221.074 397.992 221.074H321.693C320.937 221.074 320.323 220.461 320.323 219.705V199.664C320.323 198.908 320.937 198.295 321.693 198.295Z" fill="#FFD209" stroke="black" stroke-width="0.913065"/>
<path d="M354.539 201.891H339.225V207.305H354.539V201.891Z" fill="black"/>
<path d="M393.93 201.891H378.616V207.305H393.93V201.891Z" fill="black"/>
<path d="M374.078 201.891H358.764V207.305H374.078V201.891Z" fill="#FFF5C4"/>
<path d="M396.259 258.139C396.259 261.88 399.294 264.904 403.024 264.904H407.087C410.828 264.904 413.852 261.87 413.852 258.139C413.852 254.399 410.818 251.374 407.087 251.374H403.024C399.284 251.364 396.259 254.399 396.259 258.139Z" fill="black"/>
<path d="M303.958 290.342H281.616V302.138H303.958V290.342Z" fill="black"/>
<path d="M389.323 290.342H366.981V302.138H389.323V290.342Z" fill="black"/>
<path d="M407.934 287.922C407.934 291.662 404.9 294.687 401.169 294.687H269.769C266.029 294.687 263.004 291.652 263.004 287.922V252.04C263.004 248.299 266.039 245.274 269.769 245.274H401.169C404.91 245.274 407.934 248.309 407.934 252.04V287.922Z" fill="#FFF5C4"/>
<path d="M401.169 285.21H269.769C266.028 285.21 263.004 282.175 263.004 278.445V287.922C263.004 291.662 266.038 294.687 269.769 294.687H401.169C404.91 294.687 407.934 291.652 407.934 287.922V278.445C407.934 282.185 404.9 285.21 401.169 285.21Z" fill="black"/>
<path d="M272.27 253.857H311.265C312.022 253.857 312.635 254.47 312.635 255.227V275.267C312.635 276.024 312.022 276.637 311.265 276.637H272.27C271.514 276.637 270.901 276.024 270.901 275.267V255.227C270.901 254.47 271.514 253.857 272.27 253.857Z" fill="#FFD209" stroke="black" stroke-width="0.913065"/>
<path d="M321.693 253.857H397.992C398.748 253.857 399.361 254.47 399.361 255.227V275.267C399.361 276.024 398.748 276.637 397.992 276.637H321.693C320.936 276.637 320.323 276.024 320.323 275.267V255.227C320.323 254.47 320.936 253.857 321.693 253.857Z" fill="#FFD209" stroke="black" stroke-width="0.913065"/>
<path d="M354.539 257.464H339.224V262.878H354.539V257.464Z" fill="black"/>
<path d="M393.93 257.464H378.615V262.878H393.93V257.464Z" fill="black"/>
<path d="M374.078 257.464H358.764V262.878H374.078V257.464Z" fill="#FFF5C4"/>
<path d="M396.259 313.702C396.259 317.442 399.294 320.467 403.024 320.467H407.087C410.828 320.467 413.852 317.432 413.852 313.702C413.852 309.961 410.818 306.937 407.087 306.937H403.024C399.284 306.927 396.259 309.961 396.259 313.702Z" fill="black"/>
<path d="M303.958 345.904H281.616V357.7H303.958V345.904Z" fill="black"/>
<path d="M389.323 345.904H366.981V357.7H389.323V345.904Z" fill="black"/>
<path d="M407.934 343.484C407.934 347.225 404.9 350.249 401.169 350.249H269.769C266.029 350.249 263.004 347.215 263.004 343.484V307.602C263.004 303.862 266.039 300.837 269.769 300.837H401.169C404.91 300.837 407.934 303.872 407.934 307.602V343.484Z" fill="#FFF5C4"/>
<path d="M401.169 340.772H269.769C266.028 340.772 263.004 337.738 263.004 334.007V343.484C263.004 347.225 266.038 350.249 269.769 350.249H401.169C404.91 350.249 407.934 347.215 407.934 343.484V334.007C407.934 337.748 404.9 340.772 401.169 340.772Z" fill="black"/>
<path d="M272.27 309.42H311.265C312.022 309.42 312.635 310.033 312.635 310.789V330.83C312.635 331.586 312.022 332.2 311.265 332.2H272.27C271.514 332.2 270.901 331.586 270.901 330.83V310.789C270.901 310.033 271.514 309.42 272.27 309.42Z" fill="#FFD209" stroke="black" stroke-width="0.913065"/>
<path d="M321.693 309.42H397.992C398.748 309.42 399.361 310.033 399.361 310.789V330.83C399.361 331.586 398.748 332.2 397.992 332.2H321.693C320.936 332.2 320.323 331.586 320.323 330.83V310.789C320.323 310.033 320.936 309.42 321.693 309.42Z" fill="#FFD209" stroke="black" stroke-width="0.913065"/>
<path d="M354.539 313.026H339.224V318.44H354.539V313.026Z" fill="black"/>
<path d="M393.93 313.026H378.615V318.44H393.93V313.026Z" fill="black"/>
<path d="M374.078 313.026H358.764V318.44H374.078V313.026Z" fill="#FFF5C4"/>
<path d="M396.259 369.264C396.259 373.005 399.294 376.029 403.024 376.029H407.087C410.828 376.029 413.852 372.995 413.852 369.264C413.852 365.524 410.818 362.499 407.087 362.499H403.024C399.284 362.489 396.259 365.524 396.259 369.264Z" fill="black"/>
<path d="M303.958 401.467H281.616V413.263H303.958V401.467Z" fill="black"/>
<path d="M389.323 401.467H366.981V413.263H389.323V401.467Z" fill="black"/>
<path d="M407.934 399.047C407.934 402.787 404.9 405.812 401.169 405.812H269.769C266.029 405.812 263.004 402.777 263.004 399.047V363.165C263.004 359.424 266.039 356.4 269.769 356.4H401.169C404.91 356.4 407.934 359.434 407.934 363.165V399.047Z" fill="#FFF5C4"/>
<path d="M401.169 396.345H269.769C266.028 396.345 263.004 393.31 263.004 389.58V399.057C263.004 402.797 266.038 405.822 269.769 405.822H401.169C404.91 405.822 407.934 402.787 407.934 399.057V389.58C407.934 393.31 404.9 396.345 401.169 396.345Z" fill="black"/>
<path d="M272.27 364.982H311.265C312.022 364.982 312.635 365.595 312.635 366.352V386.393C312.635 387.149 312.022 387.762 311.265 387.762H272.27C271.514 387.762 270.901 387.149 270.901 386.393V366.352C270.901 365.595 271.514 364.982 272.27 364.982Z" fill="#FFD209" stroke="black" stroke-width="0.913065"/>
<path d="M321.693 364.982H397.992C398.748 364.982 399.361 365.595 399.361 366.352V386.393C399.361 387.149 398.748 387.762 397.992 387.762H321.693C320.936 387.762 320.323 387.149 320.323 386.393V366.352C320.323 365.595 320.936 364.982 321.693 364.982Z" fill="#FFD209" stroke="black" stroke-width="0.913065"/>
<path d="M354.539 368.589H339.224V374.003H354.539V368.589Z" fill="black"/>
<path d="M393.93 368.589H378.615V374.003H393.93V368.589Z" fill="black"/>
<path d="M374.078 368.589H358.764V374.003H374.078V368.589Z" fill="#FFF5C4"/>
<g filter="url(#filter0_d_1_6)">
<mask id="path-54-inside-1_1_6" fill="white">
<path fill-rule="evenodd" clip-rule="evenodd" d="M242.86 142.497L221.325 179.811H234.33V249.912H251.379V179.811H264.395L242.86 142.497Z"/>
</mask>
<path fill-rule="evenodd" clip-rule="evenodd" d="M242.86 142.497L221.325 179.811H234.33V249.912H251.379V179.811H264.395L242.86 142.497Z" fill="#FFF5C4"/>
<path d="M221.325 179.811L220.534 179.355L219.743 180.724H221.325V179.811ZM242.86 142.497L243.651 142.041L242.86 140.671L242.069 142.041L242.86 142.497ZM234.33 179.811H235.243V178.898H234.33V179.811ZM234.33 249.912H233.417V250.825H234.33V249.912ZM251.379 249.912V250.825H252.292V249.912H251.379ZM251.379 179.811V178.898H250.466V179.811H251.379ZM264.395 179.811V180.724H265.977L265.186 179.355L264.395 179.811ZM222.115 180.268L243.651 142.954L242.069 142.041L220.534 179.355L222.115 180.268ZM234.33 178.898H221.325V180.724H234.33V178.898ZM233.417 179.811V249.912H235.243V179.811H233.417ZM234.33 250.825H251.379V248.999H234.33V250.825ZM252.292 249.912V179.811H250.466V249.912H252.292ZM264.395 178.898H251.379V180.724H264.395V178.898ZM242.069 142.954L263.605 180.268L265.186 179.355L243.651 142.041L242.069 142.954Z" fill="black" mask="url(#path-54-inside-1_1_6)"/>
</g>
<path d="M220.407 259.339H143.561V404.29H220.407V259.339Z" fill="black"/>
<path d="M60.5679 412.957V401.974H303.39V412.957H60.5679Z" fill="#FFF5C4" stroke="black" stroke-width="0.913065"/>
<path d="M303.706 366.613C303.706 371.825 299.481 376.05 294.269 376.05H69.6894C64.477 376.05 60.2526 371.825 60.2526 366.613V236.866C60.2526 231.653 64.477 227.429 69.6894 227.429H294.269C299.481 227.429 303.706 231.653 303.706 236.866V366.613Z" fill="white"/>
<g filter="url(#filter1_d_1_6)">
<path d="M294.269 379.346H69.6892C62.662 379.346 56.9454 373.63 56.9454 366.603V236.866C56.9454 229.839 62.662 224.122 69.6892 224.122H294.269C301.296 224.122 307.012 229.839 307.012 236.866V366.613C307.012 373.63 301.296 379.346 294.269 379.346ZM69.6892 230.726C66.3117 230.726 63.5593 233.478 63.5593 236.856V366.603C63.5593 369.98 66.3117 372.733 69.6892 372.733H294.269C297.646 372.733 300.398 369.98 300.398 366.603V236.866C300.398 233.488 297.646 230.736 294.269 230.736H69.6892V230.726Z" fill="#FFF5C4"/>
</g>
<g filter="url(#filter2_d_1_6)">
<mask id="path-60-inside-2_1_6" fill="white">
<path fill-rule="evenodd" clip-rule="evenodd" d="M182.478 142.497H199.527V212.598H212.543L191.008 249.912L169.462 212.598H182.478V142.497Z"/>
</mask>
<path fill-rule="evenodd" clip-rule="evenodd" d="M182.478 142.497H199.527V212.598H212.543L191.008 249.912L169.462 212.598H182.478V142.497Z" fill="#FFF5C4"/>
<path d="M199.527 142.497H200.44V141.584H199.527V142.497ZM182.478 142.497V141.584H181.565V142.497H182.478ZM199.527 212.598H198.614V213.511H199.527V212.598ZM212.543 212.598L213.334 213.055L214.124 211.685H212.543V212.598ZM191.008 249.912L190.217 250.369L191.008 251.738L191.798 250.369L191.008 249.912ZM169.462 212.598V211.685H167.88L168.671 213.055L169.462 212.598ZM182.478 212.598V213.511H183.391V212.598H182.478ZM199.527 141.584H182.478V143.41H199.527V141.584ZM200.44 212.598V142.497H198.614V212.598H200.44ZM199.527 213.511H212.543V211.685H199.527V213.511ZM211.752 212.142L190.217 249.456L191.798 250.369L213.334 213.055L211.752 212.142ZM191.798 249.456L170.253 212.142L168.671 213.055L190.217 250.369L191.798 249.456ZM169.462 213.511H182.478V211.685H169.462V213.511ZM181.565 142.497V212.598H183.391V142.497H181.565Z" fill="black" mask="url(#path-60-inside-2_1_6)"/>
</g>
<path opacity="0.2" d="M110.562 210.179C110.421 208.525 109.383 207.083 107.87 206.408L60.5449 185.487C60.1617 185.316 59.7685 185.225 59.3552 185.165C59.2846 185.155 59.2039 185.145 59.1334 185.145C58.3671 185.074 57.5807 185.165 56.8649 185.487L9.52932 206.408C8.00692 207.083 6.97854 208.525 6.83739 210.179C1.05025 276.458 54.5964 299.516 55.1408 299.738C55.6954 299.97 56.2902 300.091 56.885 300.091H57.9336H60.5045C61.0994 300.091 61.6942 299.97 62.2487 299.738C62.8032 299.516 116.349 276.448 110.562 210.179Z" fill="#000042"/>
<path d="M99.9253 205.833L52.5999 184.913L5.27439 205.833C-0.290944 269.552 50.7952 290.795 50.7952 290.795H54.4146C54.4146 290.795 105.491 269.552 99.9253 205.833Z" fill="#FFD209"/>
<path d="M54.4149 295.342H50.7954C50.2006 295.342 49.6058 295.221 49.0512 294.989C48.5068 294.768 -5.03935 271.7 0.747791 205.43C0.888941 203.776 1.9274 202.335 3.43972 201.659L50.7652 180.739C51.9347 180.225 53.2757 180.225 54.4452 180.739L101.771 201.659C103.293 202.335 104.321 203.776 104.463 205.43C110.25 271.71 56.7036 294.768 56.1591 294.989C55.6046 295.221 55.0098 295.342 54.4149 295.342ZM51.7532 286.238H53.447C59.7685 283.304 98.9981 262.868 95.5903 208.888L52.6001 189.883L9.60998 208.888C6.2123 262.868 45.4318 283.304 51.7532 286.238Z" fill="black"/>
<path opacity="0.1" d="M104.463 205.43C104.321 203.776 103.283 202.335 101.771 201.659L54.4452 180.739C53.6184 180.376 52.7111 180.285 51.844 180.426V295.332H54.4149C55.0098 295.332 55.6046 295.211 56.1591 294.979C56.7036 294.768 110.25 271.71 104.463 205.43Z" fill="#000042"/>
<path d="M59.4197 261.335C73.2954 258.096 81.9183 244.222 78.6795 230.347C75.4407 216.471 61.5667 207.848 47.691 211.087C33.8153 214.326 25.1923 228.2 28.4311 242.075C31.67 255.951 45.544 264.574 59.4197 261.335Z" fill="black"/>
<path d="M46.7024 256.708L34.1804 235.071L39.7558 231.845L47.4989 245.214L67.5926 219.494L72.674 223.467L46.7024 256.708Z" fill="white"/>
<path opacity="0.2" d="M281.403 261.87H133.116C132.077 261.87 131.23 262.717 131.23 263.755V344.351C131.23 345.39 132.077 346.237 133.116 346.237H281.403C282.442 346.237 283.289 345.39 283.289 344.351V263.755C283.289 262.717 282.452 261.87 281.403 261.87Z" fill="#000042"/>
<path d="M275.738 259.984H127.45V340.581H275.738V259.984Z" fill="#FFD209" stroke="black" stroke-width="3.77465" stroke-miterlimit="10" stroke-linecap="round" stroke-linejoin="round"/>
<path d="M275.657 259.994H127.45V270.258H275.657V259.994Z" fill="black"/>
<path d="M266.704 264.38C266.704 265.812 267.863 266.971 269.295 266.971C270.727 266.971 271.886 265.812 271.886 264.38C271.886 262.948 270.727 261.789 269.295 261.789C267.863 261.789 266.704 262.948 266.704 264.38Z" fill="white"/>
<path d="M257.267 264.38C257.267 265.812 258.427 266.971 259.858 266.971C261.29 266.971 262.449 265.812 262.449 264.38C262.449 262.948 261.29 261.789 259.858 261.789C258.427 261.789 257.267 262.948 257.267 264.38Z" fill="white"/>
<path d="M247.83 264.38C247.83 265.812 248.989 266.971 250.421 266.971C251.853 266.971 253.012 265.812 253.012 264.38C253.012 262.948 251.853 261.789 250.421 261.789C248.989 261.789 247.83 262.948 247.83 264.38Z" fill="white"/>
<path opacity="0.2" d="M205.445 293.477H94.4206C93.3821 293.477 92.5352 294.324 92.5352 295.362V361.804C92.5352 362.842 93.3821 363.689 94.4206 363.689H205.435C206.473 363.689 207.32 362.842 207.32 361.804V295.362C207.33 294.324 206.483 293.477 205.445 293.477Z" fill="#000042"/>
<path d="M199.779 291.592H88.7645V358.033H199.779V291.592Z" fill="#FFD209" stroke="black" stroke-width="3.77465" stroke-miterlimit="10" stroke-linecap="round" stroke-linejoin="round"/>
<path d="M199.698 291.612H88.7646V301.875H199.698V291.612Z" fill="black"/>
<path d="M190.735 295.998C190.735 297.429 191.894 298.589 193.326 298.589C194.758 298.589 195.917 297.429 195.917 295.998C195.917 294.566 194.758 293.406 193.326 293.406C191.894 293.396 190.735 294.556 190.735 295.998Z" fill="white"/>
<path d="M181.298 295.998C181.298 297.429 182.458 298.589 183.889 298.589C185.321 298.589 186.48 297.429 186.48 295.998C186.48 294.566 185.321 293.406 183.889 293.406C182.458 293.396 181.298 294.556 181.298 295.998Z" fill="white"/>
<path d="M171.861 295.998C171.861 297.429 173.021 298.589 174.452 298.589C175.884 298.589 177.044 297.429 177.044 295.998C177.044 294.566 175.884 293.406 174.452 293.406C173.021 293.396 171.861 294.556 171.861 295.998Z" fill="white"/>
</g>
<defs>
<filter id="filter0_d_1_6" x="221.325" y="142.497" width="46.7231" height="107.415" filterUnits="userSpaceOnUse" color-interpolation-filters="sRGB">
<feFlood flood-opacity="0" result="BackgroundImageFix"/>
<feColorMatrix in="SourceAlpha" type="matrix" values="0 0 0 0 0 0 0 0 0 0 0 0 0 0 0 0 0 0 127 0" result="hardAlpha"/>
<feOffset dx="3.65226"/>
<feComposite in2="hardAlpha" operator="out"/>
<feColorMatrix type="matrix" values="0 0 0 0 0 0 0 0 0 0 0 0 0 0 0 0 0 0 1 0"/>
<feBlend mode="normal" in2="BackgroundImageFix" result="effect1_dropShadow_1_6"/>
<feBlend mode="normal" in="SourceGraphic" in2="effect1_dropShadow_1_6" result="shape"/>
</filter>
<filter id="filter1_d_1_6" x="56.9454" y="224.122" width="251.893" height="158.877" filterUnits="userSpaceOnUse" color-interpolation-filters="sRGB">
<feFlood flood-opacity="0" result="BackgroundImageFix"/>
<feColorMatrix in="SourceAlpha" type="matrix" values="0 0 0 0 0 0 0 0 0 0 0 0 0 0 0 0 0 0 127 0" result="hardAlpha"/>
<feOffset dx="1.82613" dy="3.65226"/>
<feComposite in2="hardAlpha" operator="out"/>
<feColorMatrix type="matrix" values="0 0 0 0 0 0 0 0 0 0 0 0 0 0 0 0 0 0 1 0"/>
<feBlend mode="normal" in2="BackgroundImageFix" result="effect1_dropShadow_1_6"/>
<feBlend mode="normal" in="SourceGraphic" in2="effect1_dropShadow_1_6" result="shape"/>
</filter>
<filter id="filter2_d_1_6" x="169.462" y="142.497" width="46.7332" height="107.415" filterUnits="userSpaceOnUse" color-interpolation-filters="sRGB">
<feFlood flood-opacity="0" result="BackgroundImageFix"/>
<feColorMatrix in="SourceAlpha" type="matrix" values="0 0 0 0 0 0 0 0 0 0 0 0 0 0 0 0 0 0 127 0" result="hardAlpha"/>
<feOffset dx="3.65226"/>
<feComposite in2="hardAlpha" operator="out"/>
<feColorMatrix type="matrix" values="0 0 0 0 0 0 0 0 0 0 0 0 0 0 0 0 0 0 1 0"/>
<feBlend mode="normal" in2="BackgroundImageFix" result="effect1_dropShadow_1_6"/>
<feBlend mode="normal" in="SourceGraphic" in2="effect1_dropShadow_1_6" result="shape"/>
</filter>
<clipPath id="clip0_1_6">
<rect width="439.641" height="412.712" fill="white" transform="translate(0.304321 0.6922)"/>
</clipPath>
</defs>
</svg>
