<?xml version="1.0" encoding="utf-8"?>
<!-- Generator: Adobe Illustrator 23.0.3, SVG Export Plug-In . SVG Version: 6.00 Build 0)  -->
<svg version="1.1" id="Слой_1" xmlns="http://www.w3.org/2000/svg" xmlns:xlink="http://www.w3.org/1999/xlink" x="0px" y="0px"
	 viewBox="0 0 440 414" style="enable-background:new 0 0 440 414;" xml:space="preserve">
<style type="text/css">
	.st0{fill:#FFF5C4;stroke:#000000;stroke-width:0.9131;}
	.st1{fill:#FFF5C4;}
	.st2{fill:#FFD209;}
	.st3{fill:none;stroke:#000000;stroke-width:1.8874;stroke-linecap:round;stroke-linejoin:round;stroke-miterlimit:10;}
	.st4{fill:none;stroke:#000000;stroke-width:1.954;stroke-linecap:round;stroke-linejoin:round;stroke-miterlimit:10;}
	.st5{fill:#FFD209;stroke:#000000;stroke-width:0.9131;}
	.st6{fill-rule:evenodd;clip-rule:evenodd;}
	.st7{fill-rule:evenodd;clip-rule:evenodd;fill:#FFF5C4;}
	.st8{fill:#FFFFFF;}
	.st9{opacity:0.2;fill:#000042;enable-background:new    ;}
	.st10{opacity:0.1;fill:#000042;enable-background:new    ;}
	.st11{fill:#FFD209;stroke:#000000;stroke-width:3.7747;stroke-linecap:round;stroke-linejoin:round;stroke-miterlimit:10;}
</style>
<path class="st0" d="M326.4,82.6l0,0.4l0.4,0.1c17.8,3,31.3,18.4,31.3,37.1c0,20.7-16.8,37.6-37.6,37.6H117.4
	c-20.7,0-37.6-16.8-37.6-37.6c0-19.6,15-35.7,34.1-37.4l0.4,0l0-0.4c2.3-19.5,18.1-34.6,37.3-34.6c10.1,0,19.3,4.2,26,11l0.6,0.6
	l0.2-0.8c8-32.9,37.7-57.3,73-57.3c41.5,0,75.2,33.7,75.2,75.2C326.7,78.4,326.5,80.5,326.4,82.6z"/>
<path d="M320.5,147.4H117.4c-19.2,0-35.1-14.2-37.7-32.7c-0.3,1.8-0.4,3.5-0.4,5.4c0,21,17,38,38,38h203.1c21,0,38-17,38-38
	c0-1.8-0.1-3.6-0.4-5.4C355.6,133.2,339.7,147.4,320.5,147.4z"/>
<path d="M313.6,180.2h-17v12.7h17V180.2z"/>
<path d="M385.8,180.2h-17v12.7h17V180.2z"/>
<path class="st1" d="M395.9,170.7H286.5v15.6h109.5V170.7z"/>
<path class="st1" d="M385.8,175.9h-61.5v4.2h61.5V175.9z"/>
<path class="st2" d="M311.4,177.6c0,1.3,1.1,2.4,2.4,2.4c1.3,0,2.4-1.1,2.4-2.4c0-1.3-1.1-2.4-2.4-2.4
	C312.4,175.2,311.4,176.3,311.4,177.6z"/>
<path class="st2" d="M303.4,177.6c0,1.3,1.1,2.4,2.4,2.4c1.3,0,2.4-1.1,2.4-2.4c0-1.3-1.1-2.4-2.4-2.4
	C304.4,175.2,303.4,176.3,303.4,177.6z"/>
<path class="st2" d="M295.3,177.6c0,1.3,1.1,2.4,2.4,2.4c1.3,0,2.4-1.1,2.4-2.4c0-1.3-1.1-2.4-2.4-2.4
	C296.4,175.2,295.3,176.3,295.3,177.6z"/>
<path class="st3" d="M258.4,412h152.2c15.6,0,28.3-12.7,28.3-28.3V231.4c0-15.6-12.7-28.3-28.3-28.3"/>
<path class="st3" d="M439,286.8c0-15.6-12.7-28.3-28.3-28.3"/>
<path class="st3" d="M439,341.8c0-15.6-12.7-28.3-28.3-28.3"/>
<path class="st4" d="M411.6,368.3c10.4,0,18.9,8.5,18.9,18.9l0,2.3c0,10.4-8.5,18.9-18.9,18.9h-134"/>
<path d="M396.3,202.6c0,3.7,3,6.8,6.8,6.8h4.1c3.7,0,6.8-3,6.8-6.8c0-3.7-3-6.8-6.8-6.8H403C399.3,195.8,396.3,198.8,396.3,202.6z"
	/>
<path d="M304,234.8h-22.3v11.8H304V234.8z"/>
<path d="M389.3,234.8H367v11.8h22.3V234.8z"/>
<path class="st1" d="M407.9,232.4c0,3.7-3,6.8-6.8,6.8H269.8c-3.7,0-6.8-3-6.8-6.8v-35.9c0-3.7,3-6.8,6.8-6.8h131.4
	c3.7,0,6.8,3,6.8,6.8V232.4z"/>
<path d="M401.2,229.6H269.8c-3.7,0-6.8-3-6.8-6.8v9.5c0,3.7,3,6.8,6.8,6.8h131.4c3.7,0,6.8-3,6.8-6.8v-9.5
	C407.9,226.6,404.9,229.6,401.2,229.6z"/>
<path class="st5" d="M272.3,198.3h39c0.8,0,1.4,0.6,1.4,1.4v20c0,0.8-0.6,1.4-1.4,1.4h-39c-0.8,0-1.4-0.6-1.4-1.4v-20
	C270.9,198.9,271.5,198.3,272.3,198.3z"/>
<path class="st5" d="M321.7,198.3H398c0.8,0,1.4,0.6,1.4,1.4v20c0,0.8-0.6,1.4-1.4,1.4h-76.3c-0.8,0-1.4-0.6-1.4-1.4v-20
	C320.3,198.9,320.9,198.3,321.7,198.3z"/>
<path d="M354.5,201.9h-15.3v5.4h15.3V201.9z"/>
<path d="M393.9,201.9h-15.3v5.4h15.3V201.9z"/>
<path class="st1" d="M374.1,201.9h-15.3v5.4h15.3V201.9z"/>
<path d="M396.3,258.1c0,3.7,3,6.8,6.8,6.8h4.1c3.7,0,6.8-3,6.8-6.8c0-3.7-3-6.8-6.8-6.8H403C399.3,251.4,396.3,254.4,396.3,258.1z"
	/>
<path d="M304,290.3h-22.3v11.8H304V290.3z"/>
<path d="M389.3,290.3H367v11.8h22.3V290.3z"/>
<path class="st1" d="M407.9,287.9c0,3.7-3,6.8-6.8,6.8H269.8c-3.7,0-6.8-3-6.8-6.8V252c0-3.7,3-6.8,6.8-6.8h131.4
	c3.7,0,6.8,3,6.8,6.8V287.9z"/>
<path d="M401.2,285.2H269.8c-3.7,0-6.8-3-6.8-6.8v9.5c0,3.7,3,6.8,6.8,6.8h131.4c3.7,0,6.8-3,6.8-6.8v-9.5
	C407.9,282.2,404.9,285.2,401.2,285.2z"/>
<path class="st5" d="M272.3,253.9h39c0.8,0,1.4,0.6,1.4,1.4v20c0,0.8-0.6,1.4-1.4,1.4h-39c-0.8,0-1.4-0.6-1.4-1.4v-20
	C270.9,254.5,271.5,253.9,272.3,253.9z"/>
<path class="st5" d="M321.7,253.9H398c0.8,0,1.4,0.6,1.4,1.4v20c0,0.8-0.6,1.4-1.4,1.4h-76.3c-0.8,0-1.4-0.6-1.4-1.4v-20
	C320.3,254.5,320.9,253.9,321.7,253.9z"/>
<path d="M354.5,257.5h-15.3v5.4h15.3V257.5z"/>
<path d="M393.9,257.5h-15.3v5.4h15.3V257.5z"/>
<path class="st1" d="M374.1,257.5h-15.3v5.4h15.3V257.5z"/>
<path d="M396.3,313.7c0,3.7,3,6.8,6.8,6.8h4.1c3.7,0,6.8-3,6.8-6.8c0-3.7-3-6.8-6.8-6.8H403C399.3,306.9,396.3,310,396.3,313.7z"/>
<path d="M304,345.9h-22.3v11.8H304V345.9z"/>
<path d="M389.3,345.9H367v11.8h22.3V345.9z"/>
<path class="st1" d="M407.9,343.5c0,3.7-3,6.8-6.8,6.8H269.8c-3.7,0-6.8-3-6.8-6.8v-35.9c0-3.7,3-6.8,6.8-6.8h131.4
	c3.7,0,6.8,3,6.8,6.8V343.5z"/>
<path d="M401.2,340.8H269.8c-3.7,0-6.8-3-6.8-6.8v9.5c0,3.7,3,6.8,6.8,6.8h131.4c3.7,0,6.8-3,6.8-6.8V334
	C407.9,337.7,404.9,340.8,401.2,340.8z"/>
<path class="st5" d="M272.3,309.4h39c0.8,0,1.4,0.6,1.4,1.4v20c0,0.8-0.6,1.4-1.4,1.4h-39c-0.8,0-1.4-0.6-1.4-1.4v-20
	C270.9,310,271.5,309.4,272.3,309.4z"/>
<path class="st5" d="M321.7,309.4H398c0.8,0,1.4,0.6,1.4,1.4v20c0,0.8-0.6,1.4-1.4,1.4h-76.3c-0.8,0-1.4-0.6-1.4-1.4v-20
	C320.3,310,320.9,309.4,321.7,309.4z"/>
<path d="M354.5,313h-15.3v5.4h15.3V313z"/>
<path d="M393.9,313h-15.3v5.4h15.3V313z"/>
<path class="st1" d="M374.1,313h-15.3v5.4h15.3V313z"/>
<path d="M396.3,369.3c0,3.7,3,6.8,6.8,6.8h4.1c3.7,0,6.8-3,6.8-6.8c0-3.7-3-6.8-6.8-6.8H403C399.3,362.5,396.3,365.5,396.3,369.3z"
	/>
<path d="M304,401.5h-22.3v11.8H304V401.5z"/>
<path d="M389.3,401.5H367v11.8h22.3V401.5z"/>
<path class="st1" d="M407.9,399c0,3.7-3,6.8-6.8,6.8H269.8c-3.7,0-6.8-3-6.8-6.8v-35.9c0-3.7,3-6.8,6.8-6.8h131.4
	c3.7,0,6.8,3,6.8,6.8V399z"/>
<path d="M401.2,396.3H269.8c-3.7,0-6.8-3-6.8-6.8v9.5c0,3.7,3,6.8,6.8,6.8h131.4c3.7,0,6.8-3,6.8-6.8v-9.5
	C407.9,393.3,404.9,396.3,401.2,396.3z"/>
<path class="st5" d="M272.3,365h39c0.8,0,1.4,0.6,1.4,1.4v20c0,0.8-0.6,1.4-1.4,1.4h-39c-0.8,0-1.4-0.6-1.4-1.4v-20
	C270.9,365.6,271.5,365,272.3,365z"/>
<path class="st5" d="M321.7,365H398c0.8,0,1.4,0.6,1.4,1.4v20c0,0.8-0.6,1.4-1.4,1.4h-76.3c-0.8,0-1.4-0.6-1.4-1.4v-20
	C320.3,365.6,320.9,365,321.7,365z"/>
<path d="M354.5,368.6h-15.3v5.4h15.3V368.6z"/>
<path d="M393.9,368.6h-15.3v5.4h15.3V368.6z"/>
<path class="st1" d="M374.1,368.6h-15.3v5.4h15.3V368.6z"/>
<polygon class="st6" points="232.9,251.3 232.9,181.2 218.9,181.2 242.9,139.7 266.8,181.2 252.8,181.2 252.8,251.3 "/>
<polygon class="st6" points="237,251.3 237,181.2 222.9,181.2 246.9,139.7 270.9,181.2 256.8,181.2 256.8,251.3 "/>
<path class="st7" d="M242.9,142.5l-21.5,37.3h13v70.1h17v-70.1h13L242.9,142.5z"/>
<path d="M220.4,259.3h-76.8v145h76.8V259.3z"/>
<path class="st0" d="M60.6,413v-11h242.8v11H60.6z"/>
<path class="st8" d="M303.7,366.6c0,5.2-4.2,9.4-9.4,9.4H69.7c-5.2,0-9.4-4.2-9.4-9.4V236.9c0-5.2,4.2-9.4,9.4-9.4h224.6
	c5.2,0,9.4,4.2,9.4,9.4V366.6z"/>
<path d="M296.7,383H72.1c-7,0-12.7-5.7-12.7-12.7V240.5c0-7,5.7-12.7,12.7-12.7h224.6c7,0,12.7,5.7,12.7,12.7v129.7
	C309.4,377.2,303.7,383,296.7,383z M72.1,234.3c-3.4,0-6.1,2.8-6.1,6.1v129.7c0,3.4,2.8,6.1,6.1,6.1h224.6c3.4,0,6.1-2.8,6.1-6.1
	V240.5c0-3.4-2.8-6.1-6.1-6.1L72.1,234.3L72.1,234.3z"/>
<path class="st1" d="M294.3,379.3H69.7c-7,0-12.7-5.7-12.7-12.7V236.9c0-7,5.7-12.7,12.7-12.7h224.6c7,0,12.7,5.7,12.7,12.7v129.7
	C307,373.6,301.3,379.3,294.3,379.3z M69.7,230.7c-3.4,0-6.1,2.8-6.1,6.1v129.7c0,3.4,2.8,6.1,6.1,6.1h224.6c3.4,0,6.1-2.8,6.1-6.1
	V236.9c0-3.4-2.8-6.1-6.1-6.1L69.7,230.7L69.7,230.7z"/>
<polygon class="st6" points="167,211.2 181.1,211.2 181.1,141.1 200.9,141.1 200.9,211.2 215,211.2 191,252.7 "/>
<polygon class="st6" points="171,211.2 185,211.2 185,141.1 204.9,141.1 204.9,211.2 219,211.2 195,252.7 "/>
<path class="st7" d="M182.5,142.5h17v70.1h13L191,249.9l-21.5-37.3h13V142.5z"/>
<path class="st9" d="M110.6,210.2c-0.1-1.7-1.2-3.1-2.7-3.8l-47.3-20.9c-0.4-0.2-0.8-0.3-1.2-0.3c-0.1,0-0.2,0-0.2,0
	c-0.8-0.1-1.6,0-2.3,0.3L9.5,206.4c-1.5,0.7-2.6,2.1-2.7,3.8c-5.8,66.3,47.8,89.3,48.3,89.6c0.6,0.2,1.1,0.4,1.7,0.4h1h2.6
	c0.6,0,1.2-0.1,1.7-0.4C62.8,299.5,116.3,276.4,110.6,210.2z"/>
<path class="st2" d="M99.9,205.8l-47.3-20.9L5.3,205.8c-5.6,63.7,45.5,85,45.5,85h3.6C54.4,290.8,105.5,269.6,99.9,205.8z"/>
<path d="M54.4,295.3h-3.6c-0.6,0-1.2-0.1-1.7-0.4c-0.5-0.2-54.1-23.3-48.3-89.6c0.1-1.7,1.2-3.1,2.7-3.8l47.3-20.9
	c1.2-0.5,2.5-0.5,3.7,0l47.3,20.9c1.5,0.7,2.5,2.1,2.7,3.8c5.8,66.3-47.8,89.3-48.3,89.6C55.6,295.2,55,295.3,54.4,295.3z
	 M51.8,286.2h1.7c6.3-2.9,45.6-23.4,42.1-77.4l-43-19l-43,19C6.2,262.9,45.4,283.3,51.8,286.2z"/>
<path class="st10" d="M104.5,205.4c-0.1-1.7-1.2-3.1-2.7-3.8l-47.3-20.9c-0.8-0.4-1.7-0.5-2.6-0.3v114.9h2.6c0.6,0,1.2-0.1,1.7-0.4
	C56.7,294.8,110.3,271.7,104.5,205.4z"/>
<path d="M59.4,261.3c13.9-3.2,22.5-17.1,19.3-31c-3.2-13.9-17.1-22.5-31-19.3s-22.5,17.1-19.3,31C31.7,256,45.5,264.6,59.4,261.3z"
	/>
<path class="st8" d="M46.7,256.7l-12.5-21.6l5.6-3.2l7.7,13.4l20.1-25.7l5.1,4L46.7,256.7z"/>
<path class="st9" d="M281.4,261.9H133.1c-1,0-1.9,0.8-1.9,1.9v80.6c0,1,0.8,1.9,1.9,1.9h148.3c1,0,1.9-0.8,1.9-1.9v-80.6
	C283.3,262.7,282.5,261.9,281.4,261.9z"/>
<path class="st11" d="M275.7,260H127.4v80.6h148.3V260z"/>
<path d="M275.7,260H127.4v10.3h148.2V260z"/>
<path class="st8" d="M266.7,264.4c0,1.4,1.2,2.6,2.6,2.6c1.4,0,2.6-1.2,2.6-2.6s-1.2-2.6-2.6-2.6
	C267.9,261.8,266.7,262.9,266.7,264.4z"/>
<path class="st8" d="M257.3,264.4c0,1.4,1.2,2.6,2.6,2.6c1.4,0,2.6-1.2,2.6-2.6s-1.2-2.6-2.6-2.6
	C258.4,261.8,257.3,262.9,257.3,264.4z"/>
<path class="st8" d="M247.8,264.4c0,1.4,1.2,2.6,2.6,2.6c1.4,0,2.6-1.2,2.6-2.6s-1.2-2.6-2.6-2.6C249,261.8,247.8,262.9,247.8,264.4
	z"/>
<path class="st9" d="M205.4,293.5h-111c-1,0-1.9,0.8-1.9,1.9v66.4c0,1,0.8,1.9,1.9,1.9h111c1,0,1.9-0.8,1.9-1.9v-66.4
	C207.3,294.3,206.5,293.5,205.4,293.5z"/>
<path class="st11" d="M199.8,291.6h-111V358h111V291.6z"/>
<path d="M199.7,291.6H88.8v10.3h110.9V291.6z"/>
<path class="st8" d="M190.7,296c0,1.4,1.2,2.6,2.6,2.6c1.4,0,2.6-1.2,2.6-2.6c0-1.4-1.2-2.6-2.6-2.6
	C191.9,293.4,190.7,294.6,190.7,296z"/>
<path class="st8" d="M181.3,296c0,1.4,1.2,2.6,2.6,2.6c1.4,0,2.6-1.2,2.6-2.6c0-1.4-1.2-2.6-2.6-2.6
	C182.5,293.4,181.3,294.6,181.3,296z"/>
<path class="st8" d="M171.9,296c0,1.4,1.2,2.6,2.6,2.6c1.4,0,2.6-1.2,2.6-2.6c0-1.4-1.2-2.6-2.6-2.6
	C173,293.4,171.9,294.6,171.9,296z"/>
</svg>
