<svg width="1689" height="1687" viewBox="0 0 1689 1687" fill="none" xmlns="http://www.w3.org/2000/svg">
<path opacity="0.9" d="M845.074 843.766L847.662 843.399L1688.02 878.993L1687.45 792.412L853.684 842.573L1681.12 729.17L1665.18 644.076L847.662 842.94L845.037 843.106L845.515 842.665L1634.17 544.946L1599.64 465.54L846.212 842.023L846.91 841.399L1559.02 393.913L1509.38 322.964L851.132 837.51L1466.46 272.565L1404.81 211.744L846.653 841.014L844.982 842.317L845.551 841.051L1354.44 170.812L1282.95 121.917L846.855 838.17L1192.15 74.1407L1111.56 42.4002L845.239 840.831L844.909 841.381L1032.16 20.3286L946.869 5.22893L844.523 842.023L844.285 842.427L843.936 839.858L879.532 0L792.901 0.550414L843.091 833.859L729.621 6.89852L644.476 22.8422L843.459 839.858L843.624 842.482L843.183 842.005L545.269 53.7938L465.816 88.3047L842.504 841.289L841.861 840.592L394.146 128.925L323.138 178.518L837.988 836.354L272.708 221.413L211.851 283.023L841.513 840.849L842.816 842.518L841.568 841.95L170.913 333.367L121.971 404.811L838.667 840.647L74.1847 495.556L42.4253 576.1L841.329 842.262L841.88 842.592L20.3407 655.451L5.23203 740.692L842.522 842.977L842.926 843.216L840.356 843.564L0 807.989L0.55074 894.569L834.316 844.408L6.90261 957.812L22.8557 1042.91L840.338 844.06L842.963 843.894L842.486 844.335L53.844 1142.05L88.3754 1221.46L841.806 844.995L841.109 845.619L129.002 1293.11L178.642 1364.05L836.868 849.509L221.544 1414.45L283.191 1475.27L841.347 845.986L843.018 844.683L842.449 845.931L333.565 1516.19L405.051 1565.08L841.164 848.812L495.85 1612.86L576.441 1644.6L842.761 846.17L843.091 845.619L655.84 1666.67L741.131 1681.77L843.477 844.977L843.716 844.573L844.083 847.142L808.468 1687L895.1 1686.43L844.909 853.141L958.38 1680.1L1043.52 1664.16L844.56 847.16L844.395 844.537L844.835 845.014L1142.73 1633.21L1222.17 1598.7L845.46 845.711L846.084 846.408L1293.84 1558.09L1364.83 1508.48L849.994 850.628L1415.29 1465.59L1476.15 1403.98L846.488 846.151L845.184 844.5L846.433 845.069L1517.07 1353.67L1565.99 1282.23L849.315 846.353L1613.82 1191.44L1645.57 1110.9L846.671 844.738L846.12 844.408L1667.66 1031.55L1682.77 946.308L845.478 844.023L845.074 843.766ZM843.642 843.142H843.605L843.587 843.124L843.642 843.142ZM843.642 843.894L843.605 843.913V843.858L843.642 843.894ZM843.33 843.179L843.201 843.197L843 843.051L843.257 843.087L843.33 843.179ZM842.724 841.931L842.926 842.115L843.22 842.702H843.201L842.724 841.931ZM842.632 842.775L842.467 842.647L843.073 842.849L843.091 842.885L842.632 842.775ZM841.953 843.656L843.146 843.362L843.312 843.473L843.091 843.583L843.348 843.491L843.385 843.528L843.293 843.619L843.165 843.583L843.275 843.638L843.183 843.729L841.953 843.656ZM843.367 843.326L843.44 843.307L843.514 843.381L843.495 843.399L843.367 843.326ZM842.43 844.775L842.614 844.573L843.201 844.28L843.183 844.298L842.43 844.775ZM843.275 844.867L843.146 845.032L843.348 844.445L843.385 844.408L843.275 844.867ZM843.385 843.876L843.293 844.041L843 844.151L843.238 843.894L843.385 843.876ZM843.459 843.711H843.367L843.403 843.674L843.459 843.711ZM843.477 843.674L843.422 843.656L843.495 843.583L843.514 843.601L843.477 843.674ZM843.495 842.83L843.477 842.794L843.367 842.482L843.624 842.72V842.885L843.477 842.812L843.532 842.849L843.495 842.83ZM843.55 844.5L843.587 844.243L843.697 844.17L843.716 844.298L843.55 844.5ZM844.193 842.922L844.119 842.977L844.101 842.94L844.174 842.849L844.193 842.922ZM843.844 841.473L844.138 842.647L844.028 842.812L843.917 842.592L843.936 842.647L844.009 842.83L843.991 842.867L843.899 842.757L843.936 842.629L843.881 842.739L843.789 842.647L843.844 841.473ZM843.917 842.995L843.899 843.014L843.826 842.977L843.844 842.922L843.917 842.995ZM843.789 842.867L843.826 842.904L843.807 842.959H843.789V842.867ZM843.807 844.078L843.881 844.005L843.899 844.023L843.826 844.133L843.807 844.078ZM844.156 845.527L843.862 844.353L843.973 844.188L844.083 844.408L843.991 844.151L844.028 844.115L844.119 844.206L844.083 844.335L844.138 844.206L844.23 844.298L844.156 845.527ZM844.083 844.005L844.101 843.986L844.174 844.023L844.156 844.078L844.083 844.005ZM844.211 844.133L844.174 844.096L844.193 844.041H844.211V844.133ZM844.248 843.583L844.174 843.674L844.119 843.711L844.046 843.748H843.917L843.826 843.674L843.789 843.619L843.752 843.546V843.417L843.826 843.326L843.881 843.289L843.954 843.252H844.083L844.174 843.326L844.211 843.381L844.23 843.454L844.248 843.583ZM846.029 843.344L844.854 843.638L844.688 843.528L844.909 843.417L844.854 843.436L844.725 843.381L844.817 843.289L846.029 843.344ZM845.57 842.225L845.386 842.427L844.799 842.72V842.702L845.57 842.225ZM844.725 842.133L844.854 841.968L844.652 842.573L844.615 842.592L844.725 842.133ZM844.615 843.124L844.707 842.959L845.001 842.849L844.762 843.106L844.615 843.124ZM844.542 843.289H844.633L844.597 843.326L844.542 843.289ZM844.523 843.326L844.578 843.344L844.505 843.417L844.487 843.399L844.523 843.326ZM844.505 844.17L844.523 844.206L844.468 844.151L844.505 844.17ZM844.303 842.702L844.45 842.5L844.431 842.757L844.321 842.83L844.303 842.702ZM844.376 843.087V843.142H844.358V843.106L844.376 843.087ZM844.358 843.858H844.395V843.876L844.358 843.858ZM844.376 844.28L844.358 844.115L844.505 844.206L844.615 844.5L844.376 844.28ZM844.578 843.693L844.523 843.619L844.56 843.601L844.652 843.674L844.578 843.693ZM844.615 843.491L844.707 843.399L844.835 843.454L844.633 843.528L844.615 843.491ZM844.67 843.821L844.799 843.803L845.001 843.949L844.744 843.913L844.67 843.821ZM845.276 845.069L845.056 844.885L844.762 844.298H844.78L845.276 845.069ZM844.927 844.151L844.909 844.115L845.368 844.225L845.533 844.353L844.927 844.151Z" fill="url(#paint0_radial_4041_403)"/>
<defs>
<radialGradient id="paint0_radial_4041_403" cx="0" cy="0" r="1" gradientUnits="userSpaceOnUse" gradientTransform="translate(844.009 843.5) rotate(90) scale(843.5 844.009)">
<stop stop-color="white"/>
<stop offset="1" stop-color="white" stop-opacity="0.2"/>
</radialGradient>
</defs>
</svg>
