<?xml version="1.0" encoding="utf-8"?>
<!-- Generator: Adobe Illustrator 23.0.3, SVG Export Plug-In . SVG Version: 6.00 Build 0)  -->
<svg version="1.1" id="Слой_1" xmlns="http://www.w3.org/2000/svg" xmlns:xlink="http://www.w3.org/1999/xlink" x="0px" y="0px"
	 viewBox="0 0 99.7 99.7" style="enable-background:new 0 0 99.7 99.7;" xml:space="preserve">
<style type="text/css">
	.st0{fill:#FFD209;}
</style>
<g>
	<path d="M73.4,89l13.2-38.2c2.5-6.2,3.3-11.1,3.3-15.5c0-1.6-0.1-3.1-0.3-4.4c3.4,6.2,5.3,13.2,5.3,20.8
		C94.9,67.6,86.2,81.5,73.4,89z M57.6,31.3c2.6-0.1,5-0.4,5-0.4c2.3-0.3,2.1-3.7-0.3-3.6c0,0-7,0.5-11.5,0.5
		c-4.3,0-11.4-0.5-11.4-0.5c-2.3-0.1-2.6,3.4-0.3,3.6c0,0,2.2,0.3,4.5,0.4l6.7,18.5l-9.5,28.4L25.1,31.3c2.6-0.1,5-0.4,5-0.4
		c2.3-0.3,2.1-3.7-0.3-3.6c0,0-7,0.5-11.5,0.5c-0.8,0-1.8,0-2.8-0.1c7.7-11.7,21-19.5,36.1-19.5c11.3,0,21.5,4.3,29.2,11.4
		c-0.2,0-0.4,0-0.6,0c-4.2,0-7.3,3.7-7.3,7.7c0,3.6,2.1,6.6,4.2,10.1c1.6,2.9,3.6,6.6,3.6,11.9c0,3.7-1.4,8-3.3,14l-4.3,14.4
		L57.6,31.3z M51.6,94.9c-4.2,0-8.3-0.6-12.2-1.8l13-37.7l13.3,36.4c0.1,0.2,0.2,0.4,0.3,0.6C61.5,94,56.7,94.9,51.6,94.9z
		 M8.4,51.6c0-6.3,1.3-12.2,3.7-17.6l20.6,56.5C18.3,83.5,8.4,68.7,8.4,51.6z M51.6,3.5C25.1,3.5,3.5,25.1,3.5,51.6
		c0,26.5,21.6,48.1,48.1,48.1c26.5,0,48.1-21.6,48.1-48.1C99.7,25.1,78.2,3.5,51.6,3.5z"/>
	<g>
		<path class="st0" d="M70.4,86l13.2-38.2c2.5-6.2,3.3-11.1,3.3-15.5c0-1.6-0.1-3.1-0.3-4.4c3.4,6.2,5.3,13.2,5.3,20.8
			C91.9,64.6,83.2,78.5,70.4,86z M54.6,28.3c2.6-0.1,5-0.4,5-0.4c2.3-0.3,2.1-3.7-0.3-3.6c0,0-7,0.5-11.5,0.5
			c-4.3,0-11.4-0.5-11.4-0.5c-2.3-0.1-2.6,3.4-0.3,3.6c0,0,2.2,0.3,4.5,0.4l6.7,18.5l-9.5,28.4L22.1,28.3c2.6-0.1,5-0.4,5-0.4
			c2.3-0.3,2.1-3.7-0.3-3.6c0,0-7,0.5-11.5,0.5c-0.8,0-1.8,0-2.8-0.1c7.7-11.7,21-19.5,36.1-19.5c11.3,0,21.5,4.3,29.2,11.4
			c-0.2,0-0.4,0-0.6,0c-4.2,0-7.3,3.7-7.3,7.7c0,3.6,2.1,6.6,4.2,10.1c1.6,2.9,3.6,6.6,3.6,11.9c0,3.7-1.4,8-3.3,14l-4.3,14.4
			L54.6,28.3z M48.6,91.9c-4.2,0-8.3-0.6-12.2-1.8l13-37.7l13.3,36.4c0.1,0.2,0.2,0.4,0.3,0.6C58.5,91,53.7,91.9,48.6,91.9z
			 M5.4,48.6c0-6.3,1.3-12.2,3.7-17.6l20.6,56.5C15.3,80.5,5.4,65.7,5.4,48.6z M48.6,0.5C22.1,0.5,0.5,22.1,0.5,48.6
			c0,26.5,21.6,48.1,48.1,48.1c26.5,0,48.1-21.6,48.1-48.1C96.7,22.1,75.2,0.5,48.6,0.5z"/>
		<path d="M48.6,97.2C21.8,97.2,0,75.4,0,48.6C0,21.8,21.8,0,48.6,0c13,0,25.2,5.1,34.4,14.3c9.2,9.2,14.3,21.4,14.3,34.4
			C97.2,75.4,75.4,97.2,48.6,97.2z M48.6,1C22.4,1,1,22.4,1,48.6c0,26.3,21.4,47.6,47.6,47.6c26.3,0,47.6-21.4,47.6-47.6
			c0-12.7-5-24.7-14-33.7C73.3,6,61.3,1,48.6,1z M48.6,92.4c-4.2,0-8.3-0.6-12.4-1.8l-0.5-0.1l13.6-39.5l13.8,37.8
			c0.1,0.2,0.2,0.3,0.3,0.5l0.3,0.5l-0.6,0.2C58.5,91.5,53.6,92.4,48.6,92.4z M37,89.8c8.3,2.3,17.1,2.1,25.2-0.6c0,0,0-0.1-0.1-0.1
			L49.4,53.9L37,89.8z M30.6,88.5L29.5,88C14.3,80.6,4.9,65.5,4.9,48.6c0-6.2,1.3-12.2,3.8-17.8l0.5-1.1L30.6,88.5z M9.1,32.4
			C6.9,37.5,5.9,43,5.9,48.6c0,16.1,8.8,30.5,23,37.9L9.1,32.4z M69.5,87.1l13.7-39.5c2.2-5.6,3.3-10.4,3.3-15.3
			c0-1.5-0.1-3-0.3-4.4l-0.4-2.7l1.3,2.4c3.5,6.4,5.4,13.7,5.4,21c0,15.5-8.3,30-21.8,37.8L69.5,87.1z M87.3,30.4c0,0.6,0,1.3,0,1.9
			c0,5-1.1,10-3.3,15.7L71.3,84.9c12.4-7.8,20.1-21.6,20.1-36.3C91.4,42.3,90,36.1,87.3,30.4z M37.9,76.8L21.4,27.9l0.7,0
			c2.6-0.1,4.9-0.4,4.9-0.4c0.9-0.1,1.2-0.8,1.2-1.4c0-0.6-0.4-1.2-1.4-1.2c-0.1,0-7.1,0.5-11.6,0.5c-0.8,0-1.8,0-2.8-0.1l-0.9,0
			l0.5-0.7C20.2,12.2,33.9,4.9,48.6,4.9c11,0,21.5,4.1,29.6,11.5l1,0.9l-1.6-0.1c-0.1,0-0.2,0-0.3,0c-4.2,0-6.8,3.7-6.8,7.2
			c0,3.1,1.7,5.9,3.7,9.1l0.5,0.8c1.8,3.1,3.6,6.8,3.6,12.2c0,3.6-1.3,7.5-3,13.1L75,60.6l-4.8,15.9L53.9,27.9l0.7,0
			c2.6-0.1,4.9-0.4,4.9-0.4c0.9-0.1,1.2-0.8,1.2-1.4c0-0.6-0.4-1.2-1.4-1.2c-0.1,0-7.1,0.5-11.6,0.5c-4.2,0-11.4-0.5-11.4-0.6
			c-1-0.1-1.3,0.8-1.4,1.2c0,0.6,0.2,1.3,1.1,1.3c0.1,0,2.3,0.3,4.5,0.4l0.3,0l6.9,18.9L47.8,47L37.9,76.8z M22.8,28.8l15.1,44.8
			l8.9-26.8l-6.6-18C38,28.7,36,28.4,36,28.4c-1.4-0.1-2.1-1.3-2.1-2.4c0.1-1.2,0.9-2.3,2.4-2.2c0.1,0,7.2,0.5,11.4,0.5
			c4.5,0,11.4-0.5,11.5-0.5c1.5-0.1,2.3,1,2.4,2.1c0.1,1.1-0.6,2.3-2,2.5c0,0-2,0.2-4.3,0.4l14.9,44.4l4.2-14
			c1.7-5.4,2.9-9.4,2.9-12.8c0-5.1-1.8-8.7-3.5-11.7l-0.5-0.8c-2-3.3-3.8-6.2-3.8-9.6c0-4.2,3.1-7.7,7-8.1
			C68.8,9.5,58.9,5.9,48.6,5.9c-14.1,0-27.2,6.9-35.2,18.5c0.7,0,1.3,0,1.9,0c4.5,0,11.4-0.5,11.5-0.5c1.5-0.1,2.3,1,2.4,2.1
			c0.1,1.1-0.6,2.3-2,2.5C27.1,28.4,25.1,28.7,22.8,28.8z"/>
	</g>
</g>
</svg>
