<?xml version="1.0" encoding="utf-8"?>
<!-- Generator: Adobe Illustrator 23.0.3, SVG Export Plug-In . SVG Version: 6.00 Build 0)  -->
<svg version="1.1" id="Слой_1" xmlns="http://www.w3.org/2000/svg" xmlns:xlink="http://www.w3.org/1999/xlink" x="0px" y="0px"
	 viewBox="0 0 100 100" style="enable-background:new 0 0 100 100;" xml:space="preserve">
<style type="text/css">
	.st0{fill:#FFD209;}
</style>
<g>
	<path class="st0" d="M77.3,72.7h-4.7v4.7c0,5-7.8,5-7.8,0v-4.7h-4.7c-5,0-5-7.8,0-7.8h4.7v-4.7c0-5,7.8-5,7.8,0v4.7h4.7
		C82.4,64.8,82.4,72.7,77.3,72.7z M61.7,48c-13.8,4.7-19.2,22.2-10.4,33.9c5.6,7.5,15.7,10.6,24.5,7.5c8.8-3,14.8-11.5,14.8-20.7
		C90.6,54,75.7,43.3,61.7,48z"/>
	<path d="M68.9,91.1c-6.9,0-13.7-3.2-18-8.9c-4.3-5.7-5.5-13-3.4-20c2.1-7,7.3-12.4,14-14.7h0c6.8-2.3,14.2-1.2,20.2,3.1
		c6,4.3,9.5,10.9,9.5,18.1c0,9.4-6.2,18.1-15.1,21.2C73.7,90.7,71.3,91.1,68.9,91.1z M68.6,47.4c-2.3,0-4.6,0.4-6.8,1.1h0
		c-6.5,2.2-11.3,7.3-13.4,14c-2.1,6.7-0.9,13.7,3.2,19.1c5.5,7.3,15.3,10.3,24,7.4c8.5-2.9,14.5-11.2,14.5-20.2
		c0-6.9-3.3-13.2-9-17.3C77.3,48.8,73,47.4,68.6,47.4z M68.8,81.6c-2.2,0-4.4-1.5-4.4-4.3v-4.2h-4.2c-2.8,0-4.3-2.2-4.3-4.4
		s1.5-4.4,4.3-4.4h4.2v-4.2c0-2.8,2.2-4.3,4.4-4.3s4.4,1.5,4.4,4.3v4.2h4.2c2.8,0,4.3,2.2,4.3,4.4s-1.5,4.4-4.3,4.4h-4.2v4.2
		C73.2,80.1,70.9,81.6,68.8,81.6z M60.2,65.3c-2.2,0-3.3,1.8-3.3,3.4s1,3.4,3.3,3.4h5.2v5.2c0,2.2,1.8,3.3,3.4,3.3s3.4-1,3.4-3.3
		v-5.2h5.2c2.2,0,3.3-1.8,3.3-3.4s-1-3.4-3.3-3.4h-5.2v-5.2c0-2.2-1.8-3.3-3.4-3.3s-3.4,1-3.4,3.3v5.2H60.2z"/>
</g>
<path d="M34.4,84.4h14.9c-8.3-10.3-6.9-25.7,3-34.4c9-7.9,22.8-8.2,32.1-0.7V34.4c0-5.2-4.2-9.4-9.4-9.4H64.6
	c1.5-3.1,1.4-6.8-0.3-9.9c-2.7-5.1-9.2-7.2-14.4-4.6c-5.3,2.6-7.6,9.2-5.1,14.5H34.4c-5.2,0-9.4,4.2-9.4,9.4v8.9
	c-4.9-2.3-11-0.6-13.9,4c-3.1,5-1.7,11.8,3.3,15c3.2,2.1,7.2,2.3,10.7,0.7v12C25,80.2,29.2,84.4,34.4,84.4z"/>
</svg>
