<?xml version="1.0" encoding="utf-8"?>
<!-- Generator: Adobe Illustrator 23.0.3, SVG Export Plug-In . SVG Version: 6.00 Build 0)  -->
<svg version="1.1" id="Слой_1" xmlns="http://www.w3.org/2000/svg" xmlns:xlink="http://www.w3.org/1999/xlink" x="0px" y="0px"
	 viewBox="0 0 90 90" style="enable-background:new 0 0 90 90;" xml:space="preserve">
<style type="text/css">
	.st0{fill-rule:evenodd;clip-rule:evenodd;}
	.st1{fill-rule:evenodd;clip-rule:evenodd;fill:#FFD209;}
</style>
<g>
	<path class="st0" d="M37.6,16.8c0.5,0.5,0.8,1.2,0.8,2c0,0.7-0.3,1.5-0.8,2c-0.5,0.5-1.2,0.8-2,0.8h-3.8c-0.7,0-1.5-0.3-2-0.8
		s-0.8-1.2-0.8-2c0-0.7,0.3-1.5,0.8-2c0.5-0.5,1.2-0.8,2-0.8h3.8C36.4,15.9,37.1,16.2,37.6,16.8z M26.4,16.8c0.5,0.5,0.8,1.2,0.8,2
		c0,0.7-0.3,1.5-0.8,2c-0.5,0.5-1.2,0.8-2,0.8h-3.8c-0.7,0-1.5-0.3-2-0.8c-0.5-0.5-0.8-1.2-0.8-2c0-0.7,0.3-1.5,0.8-2
		c0.5-0.5,1.2-0.8,2-0.8h3.8C25.1,15.9,25.8,16.2,26.4,16.8z M81.6,27.2V16.9c0-2.2-0.9-4.4-2.5-6c-1.6-1.6-3.7-2.5-6-2.5H16.9
		c-2.2,0-4.4,0.9-6,2.5c-1.6,1.6-2.5,3.7-2.5,6v10.3H81.6z M24.5,50.7c-0.7,1.1-1.1,2.3-1.1,3.6c0,1.7,0.7,3.4,1.9,4.6
		s2.9,1.9,4.6,1.9c1.3,0,2.6-0.4,3.6-1.1s1.9-1.7,2.4-2.9s0.6-2.5,0.4-3.8s-0.9-2.4-1.8-3.4s-2.1-1.5-3.4-1.8s-2.6-0.1-3.8,0.4
		S25.3,49.6,24.5,50.7z"/>
	<path d="M30,61.4c-1.9,0-3.7-0.7-5-2.1c-1.3-1.3-2.1-3.1-2.1-5c0-1.4,0.4-2.8,1.2-3.9l0,0c0.8-1.2,1.9-2.1,3.2-2.6
		c1.3-0.5,2.7-0.7,4.1-0.4c1.4,0.3,2.6,0.9,3.6,1.9c1,1,1.7,2.2,1.9,3.6c0.3,1.4,0.1,2.8-0.4,4.1c-0.5,1.3-1.4,2.4-2.6,3.2
		C32.8,61,31.4,61.4,30,61.4z M30,48.3c-0.8,0-1.6,0.2-2.3,0.5C26.6,49.2,25.6,50,25,51h0c-0.7,1-1,2.2-1,3.4c0,1.6,0.6,3.1,1.8,4.3
		c1.1,1.1,2.7,1.8,4.3,1.8c1.2,0,2.4-0.4,3.4-1c1-0.7,1.8-1.6,2.2-2.7s0.6-2.3,0.3-3.5c-0.2-1.2-0.8-2.3-1.7-3.1
		c-0.9-0.9-1.9-1.4-3.1-1.7C30.8,48.4,30.4,48.3,30,48.3z M82.1,27.7H7.9V16.9c0-2.4,0.9-4.6,2.6-6.3c1.7-1.7,3.9-2.6,6.3-2.6h56.3
		c2.4,0,4.6,0.9,6.3,2.6c1.7,1.7,2.6,3.9,2.6,6.3V27.7z M8.9,26.7h72.1v-9.8c0-2.1-0.8-4.1-2.3-5.6s-3.5-2.3-5.6-2.3H16.9
		c-2.1,0-4.1,0.8-5.6,2.3c-1.5,1.5-2.3,3.5-2.3,5.6V26.7z M31.9,22.1c-0.9,0-1.7-0.3-2.3-1s-1-1.5-1-2.3s0.3-1.7,1-2.3s1.5-1,2.3-1
		h3.8c0.9,0,1.7,0.4,2.3,1s1,1.4,1,2.3c0,0.9-0.4,1.7-1,2.3s-1.4,1-2.3,1H31.9z M35.6,16.4h-3.7c-0.6,0-1.2,0.2-1.6,0.7
		c-0.4,0.4-0.7,1-0.7,1.6s0.2,1.2,0.7,1.6c0.4,0.4,1,0.7,1.6,0.7h3.8c0.6,0,1.2-0.3,1.6-0.7s0.7-1,0.7-1.6c0-0.6-0.3-1.2-0.7-1.6
		S36.2,16.4,35.6,16.4z M20.6,22.1c-0.9,0-1.7-0.3-2.3-1s-1-1.5-1-2.3s0.3-1.7,1-2.3s1.5-1,2.3-1h3.8c0.9,0,1.7,0.4,2.3,1
		s1,1.4,1,2.3c0,0.9-0.4,1.7-1,2.3s-1.4,1-2.3,1H20.6z M24.4,16.4h-3.7c-0.6,0-1.2,0.2-1.6,0.7c-0.4,0.4-0.7,1-0.7,1.6
		s0.2,1.2,0.7,1.6c0.4,0.4,1,0.7,1.6,0.7h3.8c0.6,0,1.2-0.3,1.6-0.7s0.7-1,0.7-1.6c0-0.6-0.3-1.2-0.7-1.6S25,16.4,24.4,16.4z"/>
</g>
<g>
	<path class="st1" d="M19.9,61.1c-1.3-2-2.1-4.4-2.1-6.8c0-3.2,1.3-6.3,3.6-8.6s5.4-3.6,8.6-3.6c2.4,0,4.8,0.7,6.8,2.1
		c2,1.3,3.6,3.2,4.5,5.5s1.2,4.7,0.7,7s-1.6,4.5-3.3,6.2s-3.9,2.9-6.2,3.3c-2.4,0.5-4.8,0.2-7-0.7C23.1,64.7,21.2,63.2,19.9,61.1z
		 M48.6,65.7c-0.5-0.5-0.8-1.2-0.8-2v-7.5c0-0.7,0.3-1.5,0.8-2s1.2-0.8,2-0.8s1.5,0.3,2,0.8s0.8,1.2,0.8,2v7.5c0,0.7-0.3,1.5-0.8,2
		s-1.2,0.8-2,0.8S49.2,66.3,48.6,65.7z M58,65.7c-0.5-0.5-0.8-1.2-0.8-2V45c0-0.7,0.3-1.5,0.8-2s1.2-0.8,2-0.8s1.5,0.3,2,0.8
		s0.8,1.2,0.8,2v18.8c0,0.7-0.3,1.5-0.8,2s-1.2,0.8-2,0.8S58.5,66.3,58,65.7z M67,65.7c-0.5-0.5-0.8-1.2-0.8-2V52.5
		c0-0.7,0.3-1.5,0.8-2c0.5-0.5,1.2-0.8,2-0.8c0.7,0,1.5,0.3,2,0.8c0.5,0.5,0.8,1.2,0.8,2v11.3c0,0.7-0.3,1.5-0.8,2
		c-0.5,0.5-1.2,0.8-2,0.8C68.3,66.6,67.5,66.3,67,65.7z M8.4,32.8h73.1v40.3c0,2.2-0.9,4.4-2.5,6s-3.7,2.5-6,2.5H16.9
		c-2.2,0-4.4-0.9-6-2.5s-2.5-3.7-2.5-6V32.8z"/>
	<path d="M73.1,82.1H16.9c-2.4,0-4.6-0.9-6.3-2.6c-1.7-1.7-2.6-3.9-2.6-6.3V32.3h74.1v40.8c0,2.4-0.9,4.6-2.6,6.3
		C77.8,81.1,75.5,82.1,73.1,82.1z M8.9,33.3v39.8c0,2.1,0.8,4.1,2.3,5.6s3.5,2.3,5.6,2.3h56.3c2.1,0,4.1-0.8,5.6-2.3
		s2.3-3.5,2.3-5.6V33.3H8.9z M30,67.1c-1.7,0-3.3-0.3-4.8-1c-2.3-1-4.3-2.6-5.7-4.7l0,0c-1.4-2.1-2.1-4.5-2.1-7c0-3.4,1.3-6.6,3.7-9
		s5.6-3.7,9-3.7c2.5,0,5,0.7,7.1,2.1c2.1,1.4,3.7,3.4,4.7,5.7c1,2.3,1.2,4.9,0.7,7.3c-0.5,2.5-1.7,4.7-3.5,6.5c-1.8,1.8-4,3-6.5,3.5
		C31.7,67,30.8,67.1,30,67.1z M20.3,60.9c1.3,1.9,3.1,3.4,5.2,4.3c2.1,0.9,4.5,1.1,6.8,0.7c2.3-0.5,4.3-1.6,6-3.2s2.7-3.7,3.2-6
		c0.5-2.3,0.2-4.6-0.7-6.8c-0.9-2.1-2.4-4-4.3-5.2c-1.9-1.3-4.2-2-6.5-2c-3.1,0-6,1.2-8.3,3.4c-2.2,2.2-3.4,5.1-3.4,8.3
		C18.3,56.7,19,58.9,20.3,60.9L20.3,60.9z M69,67.1c-0.9,0-1.7-0.3-2.3-1c-0.6-0.6-1-1.5-1-2.3V52.5c0-0.9,0.3-1.7,1-2.3
		c1.3-1.3,3.4-1.3,4.7,0c0.6,0.6,1,1.5,1,2.3v11.3c0,0.9-0.3,1.7-1,2.3C70.7,66.7,69.9,67.1,69,67.1z M69,50.2
		c-0.6,0-1.2,0.2-1.6,0.7c-0.4,0.4-0.7,1-0.7,1.6v11.3c0,0.6,0.2,1.2,0.7,1.6l0,0c0.9,0.9,2.4,0.9,3.3,0c0.4-0.4,0.7-1,0.7-1.6V52.5
		c0-0.6-0.2-1.2-0.7-1.6C70.2,50.4,69.6,50.2,69,50.2z M60,67.1c-0.9,0-1.7-0.3-2.3-1c-0.6-0.6-1-1.5-1-2.3V45c0-0.9,0.3-1.7,1-2.3
		c1.3-1.3,3.4-1.3,4.7,0c0.6,0.6,1,1.5,1,2.3v18.8c0,0.9-0.3,1.7-1,2.3C61.7,66.7,60.9,67.1,60,67.1z M60,42.7
		c-0.6,0-1.2,0.2-1.6,0.7c-0.4,0.4-0.7,1-0.7,1.6v18.8c0,0.6,0.2,1.2,0.7,1.6l0,0c0.9,0.9,2.4,0.9,3.3,0c0.4-0.4,0.7-1,0.7-1.6V45
		c0-0.6-0.2-1.2-0.7-1.6C61.2,42.9,60.6,42.7,60,42.7z M50.6,67.1c-0.9,0-1.7-0.3-2.3-1c-0.6-0.6-1-1.5-1-2.3v-7.5
		c0-0.9,0.3-1.7,1-2.3c1.3-1.3,3.4-1.3,4.7,0c0.6,0.6,1,1.5,1,2.3v7.5c0,0.9-0.3,1.7-1,2.3C52.3,66.7,51.5,67.1,50.6,67.1z
		 M50.6,53.9c-0.6,0-1.2,0.2-1.6,0.7c-0.4,0.4-0.7,1-0.7,1.6v7.5c0,0.6,0.2,1.2,0.7,1.6l0,0c0.9,0.9,2.4,0.9,3.3,0
		c0.4-0.4,0.7-1,0.7-1.6v-7.5c0-0.6-0.2-1.2-0.7-1.6C51.8,54.2,51.2,53.9,50.6,53.9z"/>
</g>
</svg>
