<?xml version="1.0" encoding="utf-8"?>
<!-- Generator: Adobe Illustrator 23.0.3, SVG Export Plug-In . SVG Version: 6.00 Build 0)  -->
<svg version="1.1" id="Слой_1" xmlns="http://www.w3.org/2000/svg" xmlns:xlink="http://www.w3.org/1999/xlink" x="0px" y="0px"
	 viewBox="0 0 100 100" style="enable-background:new 0 0 100 100;" xml:space="preserve">
<style type="text/css">
	.st0{fill:#FFD209;}
</style>
<g>
	<path class="st0" d="M50.4,81.6H12.6c-3.4,0-6.2-2.8-6.2-6.2s2.8-6.2,6.2-6.2h37.8V81.6z M87.4,64.8H12.6c-3,0-5.6,1.2-7.4,3
		c-2,2-3,4.6-3,7.4C2,81.2,6.8,86,12.6,86h74.8c3,0,5.6-1.2,7.4-3c2-2,3-4.6,3-7.4C98,69.6,93.2,64.8,87.4,64.8z"/>
	<path d="M87.4,86.5H12.6c-3,0-5.8-1.2-7.8-3.3c-2.1-2.1-3.2-5-3.1-8c0-3,1.1-5.7,3.1-7.7c2-2,4.8-3.1,7.8-3.1h74.8
		c3,0,5.8,1.2,7.8,3.3c2.1,2.1,3.2,5,3.1,8c0,3-1.1,5.7-3.1,7.7C93.1,85.4,90.4,86.5,87.4,86.5z M12.6,65.3c-2.7,0-5.2,1-7,2.9
		c-1.9,1.9-2.9,4.3-2.9,7c-0.1,2.7,0.9,5.3,2.8,7.3c1.9,2,4.4,3,7.1,3h74.8c2.7,0,5.2-1,7-2.9c1.9-1.9,2.9-4.3,2.9-7
		c0.1-2.7-0.9-5.3-2.8-7.3c-1.9-2-4.4-3-7.1-3H12.6z M50.9,82.1H12.6c-3.7,0-6.7-3-6.7-6.7s3-6.7,6.7-6.7h38.3V82.1z M12.6,69.7
		c-3.1,0-5.7,2.6-5.7,5.7c0,3.1,2.6,5.7,5.7,5.7h37.3V69.7H12.6z"/>
</g>
<path class="st0" d="M45.2,35.8c1.8,0,3.4-1.4,3.4-3.2s-1.4-3.4-3.2-3.4c-1.8,0-3.4,1.4-3.4,3.2S43.4,35.8,45.2,35.8z"/>
<path d="M37.4,29.2c1.4-3.2,4.6-5.4,8.2-5.2c4.8,0.2,8.4,4.2,8.2,8.8c-0.2,4.8-4.2,8.4-8.8,8.4C41.6,41,38.6,39,37.4,36
	c-0.4-1.2-0.8-2.4-0.8-3.6C36.8,31.2,37,30.2,37.4,29.2z M27.6,34.6h2C30,37,30.8,39.2,32,41l-1.4,1.4c-0.4,0.2-0.4,0.8,0,1.2
	l2.6,2.8c0.4,0.4,0.8,0.4,1.2,0L36,45c0.6,0.4,1,0.8,1.6,1c1.4,0.8,3,1.4,4.6,1.8V50c0,0.4,0.4,0.8,0.8,0.8l3.8,0.2
	c0.4,0,0.8-0.4,0.8-0.8V48c2.2-0.4,4.4-1.2,6.4-2.4l1.6,1.6c0.2,0.2,0.4,0.2,0.6,0.2s0.4,0,0.6-0.2l2.8-2.6c0.4-0.4,0.4-0.8,0-1.2
	L58,41.8c1.4-1.8,2.2-3.8,2.8-6H63c0.4,0,0.8-0.4,0.8-0.8l0.2-3.8c0-0.4-0.4-0.8-0.8-0.8H61c-0.4-2.2-1.2-4.4-2.4-6.2l1.6-1.6
	c0.4-0.4,0.4-0.8,0-1.2l-2.6-2.8c-0.2-0.2-0.4-0.2-0.6-0.2s-0.4,0-0.6,0.2L54.6,20c-1.8-1.4-3.8-2.4-6.2-2.8v-2
	c0-0.4-0.4-0.8-0.8-0.8L44,14c-0.4,0-0.8,0.4-0.8,0.8v2c-2,0.2-4,1-5.6,2C37.4,19,37.2,19,37,19.2l-1.4-1.4c-0.4-0.4-0.8-0.4-1.2,0
	l-2.8,2.6c-0.2,0.2-0.2,0.4-0.2,0.6c0,0.2,0,0.4,0.2,0.6L33,23c-1.4,1.8-2.4,4-3,6.4h-2c-0.4,0-0.8,0.4-0.8,0.8L27,34
	C26.8,34.2,27.2,34.6,27.6,34.6z"/>
<circle class="st0" cx="76" cy="41.2" r="2.4"/>
<path d="M70.2,38.6c1-2.4,3.4-3.8,6-3.8c3.4,0.2,6.2,3,6,6.6c-0.2,3.4-3,6.2-6.6,6c-2.6,0-4.6-1.6-5.6-3.8c-0.4-0.8-0.6-1.8-0.6-2.8
	C69.8,40.2,70,39.4,70.2,38.6z M63.2,38.6c-0.4,0-0.6,0.2-0.6,0.6V42c0,0.4,0.2,0.6,0.6,0.6h1.4c0.2,1.6,0.8,3.4,1.8,4.8l-1,1
	c-0.2,0.2-0.2,0.6,0,0.8l2,2c0.2,0.2,0.6,0.2,0.8,0l1.2-1c0.4,0.2,0.8,0.6,1.2,0.8c1,0.6,2.2,1,3.4,1.2v1.6c0,0.4,0.2,0.6,0.6,0.6
	h2.8c0.4,0,0.6-0.2,0.6-0.6v-1.6c1.6-0.2,3.2-0.8,4.6-1.8l1.2,1.2c0.2,0.2,0.2,0.2,0.4,0.2c0.2,0,0.4,0,0.4-0.2l2-2
	c0.2-0.2,0.2-0.6,0-0.8L85.2,48c1-1.4,1.6-2.8,2-4.4h1.6c0.4,0,0.6-0.2,0.6-0.6v-2.8c0-0.4-0.2-0.6-0.6-0.6h-1.6
	C87,38,86.4,36.4,85.6,35l1.2-1.2c0.2-0.2,0.2-0.6,0-0.8l-2-2c-0.2-0.2-0.2-0.2-0.4-0.2c-0.2,0-0.4,0-0.4,0.2l-1,1
	c-1.4-1-2.8-1.8-4.4-2v-1.6c0-0.4-0.2-0.6-0.6-0.6h-2.8c-0.4,0-0.6,0.2-0.6,0.6v1.4c-1.4,0.2-2.8,0.6-4.2,1.4
	c-0.2,0-0.4,0.2-0.6,0.2l-1-1c-0.2-0.2-0.6-0.2-0.8,0l-2,2c-0.2,0.2-0.2,0.2-0.2,0.4c0,0.2,0,0.4,0.2,0.4l1,1c-1,1.4-1.8,3-2.2,4.6
	L63.2,38.6z"/>
<path class="st0" d="M20.6,47.4c0.8,0,1.6-0.6,1.6-1.6c0-0.8-0.6-1.6-1.4-1.6c-0.8,0-1.6,0.6-1.6,1.4C19,46.8,19.8,47.4,20.6,47.4z"
	/>
<path d="M17,44.2c0.6-1.4,2.2-2.6,3.8-2.4c2.2,0,4,2,4,4.2c0,2.2-2,4-4.2,4c-1.6,0-3-1-3.6-2.4c-0.2-0.6-0.4-1.2-0.4-1.8
	C16.6,45.2,16.8,44.8,17,44.2z M12.2,46.8h1c0.2,1.2,0.6,2.2,1.2,3.2l-0.8,0.6c-0.2,0.2-0.2,0.4,0,0.6l1.2,1.4
	c0.2,0.2,0.4,0.2,0.6,0l0.8-0.6c0.2,0.2,0.6,0.4,0.8,0.4c0.6,0.4,1.4,0.6,2.2,0.8v1c0,0.2,0.2,0.4,0.4,0.4h1.8
	c0.2,0,0.4-0.2,0.4-0.4v-1c1-0.2,2.2-0.6,3-1.2l0.8,0.8l0.2,0.2c0.2,0,0.2,0,0.2-0.2l1.4-1.2c0.2-0.2,0.2-0.4,0-0.6l-0.8-0.8
	c0.6-0.8,1-1.8,1.2-2.8h1c0.2,0,0.4-0.2,0.4-0.4v-1.8c0-0.2-0.2-0.4-0.4-0.4h-1c-0.2-1-0.6-2-1.2-3l0.8-0.8c0.2-0.2,0.2-0.4,0-0.6
	L26.2,39L26,38.8c-0.2,0-0.2,0-0.2,0.2l-0.6,1c-0.8-0.6-1.8-1.2-3-1.4v-1c0-0.2-0.2-0.4-0.4-0.4H20c-0.2,0-0.4,0.2-0.4,0.4v1
	c-1,0.2-1.8,0.4-2.8,1c-0.2,0-0.2,0.2-0.4,0.2l-0.4-1c-0.2-0.2-0.4-0.2-0.6,0L14,40l-0.2,0.2c0,0.2,0,0.2,0.2,0.2l0.6,0.6
	c-0.6,0.8-1.2,2-1.4,3h-1c-0.2,0-0.4,0.2-0.4,0.4v1.8C11.8,46.6,12,46.8,12.2,46.8z"/>
</svg>
