<?xml version="1.0" encoding="utf-8"?>
<!-- Generator: Adobe Illustrator 23.0.3, SVG Export Plug-In . SVG Version: 6.00 Build 0)  -->
<svg version="1.1" id="Слой_1" xmlns="http://www.w3.org/2000/svg" xmlns:xlink="http://www.w3.org/1999/xlink" x="0px" y="0px"
	 viewBox="0 0 104.1 102" style="enable-background:new 0 0 104.1 102;" xml:space="preserve">
<style type="text/css">
	.st0{fill:#FFD209;}
</style>
<g>
	<path d="M30.8,24.3c-0.3,0-0.6-0.1-0.9-0.3c-0.3-0.2-0.5-0.4-0.6-0.7s-0.1-0.6-0.1-0.9c0-0.3,0.2-0.6,0.4-0.8
		c0.2-0.2,0.5-0.4,0.8-0.4c0.3-0.1,0.6,0,0.9,0.1c0.3,0.1,0.5,0.3,0.7,0.6c0.2,0.3,0.3,0.6,0.3,0.9c0,0.4-0.2,0.8-0.5,1.1
		C31.7,24.2,31.2,24.3,30.8,24.3z M24.3,24.3c-0.3,0-0.6-0.1-0.9-0.3c-0.3-0.2-0.5-0.4-0.6-0.7s-0.1-0.6-0.1-0.9
		c0-0.3,0.2-0.6,0.4-0.8c0.2-0.2,0.5-0.4,0.8-0.4c0.3-0.1,0.6,0,0.9,0.1c0.3,0.1,0.5,0.3,0.7,0.6c0.2,0.3,0.3,0.6,0.3,0.9
		c0,0.4-0.2,0.8-0.5,1.1C25.2,24.2,24.9,24.3,24.3,24.3z M17.9,24.3c-0.3,0-0.6-0.1-0.9-0.3c-0.3-0.2-0.5-0.4-0.6-0.7
		s-0.1-0.6-0.1-0.9c0-0.3,0.2-0.6,0.4-0.8s0.5-0.4,0.8-0.4c0.3-0.1,0.6,0,0.9,0.1c0.3,0.1,0.5,0.3,0.7,0.6c0.2,0.3,0.3,0.6,0.3,0.9
		c0,0.4-0.2,0.8-0.5,1.1C18.8,24.2,18.4,24.3,17.9,24.3z M90.3,22.1c0-2-0.8-3.8-2.2-5.3c-1.3-1.3-3.3-2.2-5.3-2.2H14
		c-2,0-3.8,0.8-5.3,2.2c-1.3,1.4-2.1,3.3-2.1,5.3v5.5h83.6V22.1L90.3,22.1z"/>
	<path d="M53.2,53.3H17.9c-0.4,0-0.8-0.2-1.1-0.5c-0.3-0.3-0.5-0.7-0.5-1.1s0.2-0.8,0.5-1.1c0.3-0.3,0.7-0.5,1.1-0.5h35.3
		c0.4,0,0.8,0.2,1.1,0.5c0.3,0.3,0.5,0.7,0.5,1.1c0,0.4-0.2,0.8-0.5,1.1C54,53.1,53.6,53.3,53.2,53.3z M53.2,62.9H17.9
		c-0.4,0-0.8-0.2-1.1-0.5c-0.3-0.3-0.5-0.7-0.5-1.1c0-0.4,0.2-0.8,0.5-1.1c0.3-0.3,0.7-0.5,1.1-0.5h35.3c0.4,0,0.8,0.2,1.1,0.5
		c0.3,0.3,0.5,0.7,0.5,1.1c0,0.4-0.2,0.8-0.5,1.1C54,62.8,53.6,62.9,53.2,62.9z M17.9,40.5h61c0.4,0,0.8,0.2,1.1,0.5
		c0.3,0.3,0.5,0.7,0.5,1.1c0,0.4-0.2,0.8-0.5,1.1c-0.2,0.3-0.6,0.5-1,0.5H17.9c-0.4,0-0.8-0.2-1.1-0.5c-0.3-0.3-0.5-0.7-0.5-1.1
		c0-0.4,0.2-0.8,0.5-1.1C17.1,40.6,17.5,40.5,17.9,40.5z M79.1,48c4,0,7.9,1.1,11.2,3.3V30.8H6.8v40.8c0,2,0.8,3.8,2.2,5.3
		c1.3,1.3,3.3,2.2,5.3,2.2h46.5c-1.8-3.2-2.6-6.8-2.5-10.5c0.1-3.6,1.1-7.2,3-10.3c1.9-3.1,4.5-5.8,7.7-7.5C71.8,49,75.4,48,79.1,48
		z"/>
	<g>
		<path class="st0" d="M87.3,65.8L76.4,76.4l-5.7-5.9c-0.3-0.3-0.4-0.7-0.4-1.1s0.2-0.8,0.5-1.1c0.3-0.3,0.7-0.4,1.1-0.4
			c0.4,0,0.8,0.2,1.1,0.5l3.4,3.6l8.6-8.3c0.1-0.2,0.3-0.3,0.5-0.4s0.4-0.1,0.6-0.1c0.2,0,0.4,0,0.6,0.1s0.4,0.2,0.5,0.3
			c0.1,0.2,0.3,0.3,0.3,0.5c0.1,0.2,0.1,0.4,0.1,0.6c0,0.2-0.1,0.4-0.1,0.6S87.4,65.6,87.3,65.8L87.3,65.8z M79.1,51.1
			c-3.5,0-7,1-9.9,3s-5.3,4.7-6.6,8s-1.8,6.9-1,10.3c0.7,3.5,2.4,6.6,4.8,9.2c2.5,2.5,5.7,4.2,9.2,4.8c3.5,0.7,7,0.3,10.3-1
			c3.3-1.3,6.1-3.6,8-6.6c2-3,3-6.4,3-9.9c0-4.7-1.9-9.3-5.3-12.7C88.4,53.1,83.8,51.1,79.1,51.1z"/>
		<path d="M79.1,87.4c-1.2,0-2.4-0.1-3.6-0.3c-3.6-0.7-6.8-2.5-9.4-5.1s-4.3-5.9-5.1-9.4c-0.7-3.6-0.3-7.2,1-10.6
			c1.4-3.4,3.7-6.2,6.8-8.2c3-2.1,6.6-3.1,10.2-3.1l0,0c4.9,0,9.5,2,13,5.4c3.5,3.5,5.4,8,5.4,13c0,3.6-1,7.2-3.1,10.2
			s-4.8,5.4-8.2,6.8C83.8,86.9,81.4,87.4,79.1,87.4z M79.1,51.6c-3.4,0-6.8,1-9.7,2.9c-2.9,2-5.1,4.6-6.4,7.8c-1.3,3.2-1.6,6.6-1,10
			c0.7,3.4,2.3,6.5,4.7,8.9c2.5,2.5,5.5,4.1,8.9,4.7c3.4,0.6,6.8,0.3,10-1s5.9-3.5,7.8-6.4c2-2.9,2.9-6.2,2.9-9.6
			c0-4.6-1.9-9-5.1-12.3C88,53.5,83.7,51.6,79.1,51.6L79.1,51.6z M76.4,77.1l-6-6.3c-0.4-0.4-0.6-0.9-0.6-1.5c0-0.5,0.2-1.1,0.6-1.4
			c0.4-0.4,1-0.6,1.5-0.6c0.6,0,1.1,0.2,1.4,0.6l3,3.2l8.1-8c0.2-0.2,0.4-0.4,0.7-0.5s0.5-0.2,0.8-0.2c0.3,0,0.6,0,0.8,0.2
			c0.3,0.1,0.5,0.3,0.7,0.5s0.3,0.4,0.4,0.7c0.1,0.3,0.1,0.5,0.1,0.8S88,65,87.9,65.4c-0.1,0.3-0.3,0.5-0.5,0.7L76.4,77.1z M72,68.2
			c-0.3,0-0.5,0.1-0.7,0.3c-0.2,0.2-0.3,0.5-0.3,0.7c0,0.3,0.1,0.6,0.3,0.8l5.2,5.6l10.5-10.3l0.3,0.3l-0.3-0.3
			c0.1-0.1,0.2-0.2,0.3-0.3c0.1-0.1,0.1-0.3,0.1-0.4s0-0.3-0.1-0.4c-0.1-0.1-0.1-0.3-0.2-0.4c-0.1-0.1-0.2-0.2-0.4-0.2
			c-0.1-0.1-0.3-0.1-0.4-0.1c-0.1,0-0.3,0-0.4,0.1c-0.1,0.1-0.3,0.1-0.3,0.2l-9,8.8l-3.7-3.9C72.5,68.3,72.3,68.2,72,68.2L72,68.2z"
			/>
	</g>
</g>
</svg>
