<?xml version="1.0" encoding="utf-8"?>
<!-- Generator: Adobe Illustrator 23.0.3, SVG Export Plug-In . SVG Version: 6.00 Build 0)  -->
<svg version="1.1" id="Слой_1" xmlns="http://www.w3.org/2000/svg" xmlns:xlink="http://www.w3.org/1999/xlink" x="0px" y="0px"
	 viewBox="0 0 90 90" style="enable-background:new 0 0 90 90;" xml:space="preserve">
<style type="text/css">
	.st0{fill:#FFD209;}
	.st1{fill-rule:evenodd;clip-rule:evenodd;}
</style>
<g>
	<path class="st0" d="M44,68.2c5.7,3.9,16.2,4.2,19.3,4.2s13.6-0.3,19.2-4.1c0.4-0.2,0.8-0.5,1.2-0.7v-6.7
		c-5.9,4.1-16.3,4.5-20.4,4.5s-14.5-0.4-20.4-4.5v6.7C43.3,67.8,43.6,68,44,68.2z M38.7,72.4c0-1.2-1-2.1-2.1-2.1h-4.9
		c-1.9,0-3.5-1.6-3.5-3.5V50.6c0-1.2-1-2.1-2.1-2.1s-2.1,1-2.1,2.1v16.2c0,4.3,3.5,7.7,7.7,7.7h4.9C37.7,74.5,38.7,73.6,38.7,72.4z
		 M66.1,39.4V23.2c0-4.3-3.5-7.7-7.7-7.7h-4.9c-1.2,0-2.1,1-2.1,2.1s1,2.1,2.1,2.1h4.9c1.9,0,3.5,1.6,3.5,3.5v16.2
		c0,1.2,1,2.1,2.1,2.1C65.1,41.5,66.1,40.5,66.1,39.4z"/>
	<path d="M36.6,75h-4.9c-4.5,0-8.2-3.7-8.2-8.2V50.6c0-1.4,1.2-2.6,2.6-2.6s2.6,1.2,2.6,2.6v16.2c0,1.7,1.4,3,3,3h4.9
		c1.4,0,2.6,1.2,2.6,2.6S38,75,36.6,75z M26,49c-0.9,0-1.6,0.7-1.6,1.6v16.2c0,4,3.2,7.2,7.2,7.2h4.9c0.9,0,1.6-0.7,1.6-1.6
		s-0.7-1.6-1.6-1.6h-4.9c-2.2,0-4-1.8-4-4V50.6C27.6,49.8,26.9,49,26,49z M63.3,72.9c-3.1,0-13.8-0.3-19.6-4.3
		c-0.3-0.2-0.7-0.4-1.1-0.6l-0.2-0.1v-7.9l0.8,0.5c6,4.1,16.9,4.4,20.1,4.4c4.1,0,14.3-0.4,20.1-4.4l0.8-0.5v7.9L83.9,68
		c-0.4,0.3-0.8,0.5-1.2,0.7C77.1,72.6,66.4,72.9,63.3,72.9z M43.4,67.3c0.3,0.2,0.6,0.3,0.8,0.5l0,0c5.6,3.8,16,4.1,19,4.1
		c3.1,0,13.5-0.3,18.9-4c0.3-0.2,0.7-0.4,1-0.6v-5.5c-6.1,3.7-15.9,4.1-19.9,4.1c-4,0-13.8-0.4-19.9-4.1V67.3z M64,42
		c-1.4,0-2.6-1.2-2.6-2.6V23.2c0-1.7-1.4-3-3-3h-4.9c-1.4,0-2.6-1.2-2.6-2.6S52,15,53.4,15h4.9c4.5,0,8.2,3.7,8.2,8.2v16.2
		C66.6,40.8,65.4,42,64,42z M53.4,16c-0.9,0-1.6,0.7-1.6,1.6s0.7,1.6,1.6,1.6h4.9c2.2,0,4,1.8,4,4v16.2c0,0.9,0.7,1.6,1.6,1.6
		s1.6-0.7,1.6-1.6V23.2c0-4-3.2-7.2-7.2-7.2H53.4z"/>
</g>
<g>
	<path class="st1" d="M63.3,76.6c-4.1,0-13.9-0.5-20.4-4.2v3.5c0,6.1,12.8,7.7,20.4,7.7s20.4-1.6,20.4-7.7v-3.5
		C77.3,76.2,67.4,76.6,63.3,76.6z M63.3,45.7c-7.6,0-20.4,1.6-20.4,7.7s12.8,7.7,20.4,7.7s20.4-1.6,20.4-7.7S70.8,45.7,63.3,45.7z
		 M26.7,37.3c-4.1,0-13.9-0.5-20.4-4.2v3.5c0,6.1,12.8,7.7,20.4,7.7s20.4-1.6,20.4-7.7v-3.5C40.8,36.8,30.9,37.3,26.7,37.3z
		 M47.1,14.1c0,6.1-12.8,7.7-20.4,7.7S6.3,20.2,6.3,14.1s12.8-7.7,20.4-7.7S47.1,8,47.1,14.1z"/>
	<path d="M63.3,84.2c-2.1,0-20.9-0.2-20.9-8.2v-4.4l0.7,0.4c6.7,3.8,17.1,4.1,20.1,4.1c3.1,0,13.6-0.3,20.1-4.1l0.8-0.4v4.4
		C84.2,83.9,65.4,84.2,63.3,84.2z M43.4,73.3v2.6c0,5.7,13,7.2,19.9,7.2s19.9-1.5,19.9-7.2v-2.6c-6.6,3.5-16,3.8-19.9,3.8
		C59.5,77.1,50.1,76.8,43.4,73.3z M63.3,61.7c-2.1,0-20.9-0.2-20.9-8.2c0-8,18.8-8.2,20.9-8.2s20.9,0.2,20.9,8.2
		C84.2,61.4,65.4,61.7,63.3,61.7z M63.3,46.2c-6.9,0-19.9,1.5-19.9,7.2s13,7.2,19.9,7.2s19.9-1.5,19.9-7.2S70.2,46.2,63.3,46.2z
		 M26.7,44.8c-2.1,0-20.9-0.2-20.9-8.2v-4.4l0.7,0.4c6.7,3.8,17.1,4.1,20.1,4.1c3.1,0,13.6-0.3,20.1-4.1l0.8-0.4v4.4
		C47.6,44.6,28.9,44.8,26.7,44.8z M6.8,33.9v2.6c0,5.7,13,7.2,19.9,7.2s19.9-1.5,19.9-7.2v-2.6c-6.6,3.5-16,3.8-19.9,3.8
		C22.9,37.8,13.5,37.4,6.8,33.9z M26.7,22.3c-2.1,0-20.9-0.2-20.9-8.2s18.8-8.2,20.9-8.2s20.9,0.2,20.9,8.2S28.9,22.3,26.7,22.3z
		 M26.7,6.8c-6.9,0-19.9,1.5-19.9,7.2s13,7.2,19.9,7.2s19.9-1.5,19.9-7.2S33.6,6.8,26.7,6.8z"/>
</g>
<g>
	<path class="st0" d="M7.4,28.8c5.7,3.9,16.2,4.2,19.3,4.2s13.6-0.3,19.2-4.1c0.4-0.2,0.8-0.5,1.2-0.7v-6.7
		C41.2,25.6,30.8,26,26.7,26s-14.5-0.4-20.4-4.5v6.7C6.7,28.4,7.1,28.6,7.4,28.8z"/>
	<path d="M26.7,33.5c-3.1,0-13.8-0.3-19.6-4.3c-0.3-0.2-0.7-0.4-1.1-0.6l-0.2-0.1v-7.9l0.8,0.5c6,4.1,16.9,4.4,20.1,4.4
		c4.1,0,14.3-0.4,20.1-4.4l0.8-0.5v7.9l-0.2,0.1c-0.4,0.3-0.8,0.5-1.2,0.7C40.5,33.2,29.9,33.5,26.7,33.5z M6.8,27.9
		c0.3,0.2,0.6,0.3,0.8,0.5l0,0c5.6,3.8,16,4.1,19,4.1s13.5-0.3,18.9-4c0.3-0.2,0.7-0.4,1-0.6v-5.5c-6.1,3.7-15.9,4.1-19.9,4.1
		c-4,0-13.8-0.4-19.9-4.1V27.9z"/>
</g>
</svg>
