<?xml version="1.0" encoding="utf-8"?>
<!-- Generator: Adobe Illustrator 23.0.3, SVG Export Plug-In . SVG Version: 6.00 Build 0)  -->
<svg version="1.1" id="Слой_1" xmlns="http://www.w3.org/2000/svg" xmlns:xlink="http://www.w3.org/1999/xlink" x="0px" y="0px"
	 viewBox="0 0 110 110" style="enable-background:new 0 0 110 110;" xml:space="preserve">
<style type="text/css">
	.st0{fill:#FFD209;}
</style>
<g>
	<path class="st0" d="M71,68.9c-0.2,0.2-3.9,4-4.1,4c-0.3,0.2-0.7,0.3-1.1,0.2c-0.4,0-0.7-0.2-1-0.5l-3.7-3.7
		c-0.3-0.3-0.5-0.8-0.5-1.2c0-0.5,0.2-0.9,0.5-1.2c0.3-0.3,0.8-0.5,1.2-0.5c0.5,0,0.9,0.2,1.2,0.5l0.6,0.6c-0.4-1.4-1.1-2.7-2-3.7
		c-1.5-1.8-3.7-2.9-6-3.2c-2.3-0.3-4.7,0.3-6.6,1.6c-0.4,0.3-0.8,0.4-1.3,0.3c-0.4-0.1-0.8-0.3-1.1-0.7s-0.4-0.8-0.3-1.3
		c0.1-0.4,0.3-0.8,0.7-1.1c7.3-5.5,18.8-0.8,20.1,8.3l0.8-0.8c0.3-0.3,0.8-0.5,1.2-0.5c0.4,0,0.9,0.2,1.2,0.5
		c0.3,0.3,0.5,0.7,0.5,1.2S71.3,68.6,71,68.9z M62.5,80.1c-7.3,5.5-18.8,0.8-20.1-8.3l-0.8,0.8c-0.3,0.3-0.8,0.5-1.2,0.5
		c-0.4,0-0.9-0.2-1.2-0.5c-0.3-0.3-0.5-0.7-0.5-1.2c0-0.4,0.2-0.9,0.5-1.2l3.6-3.6c0,0-0.1,0.1-0.1,0.1c0.3-0.3,0.5-0.5,0.8-0.7
		c0,0,0,0,0.1,0C43.7,66,44,66,44.2,66c0.3,0,0.5,0.1,0.7,0.3c0.1,0.1,0.2,0.1,0.3,0.2l3.7,3.7c0.3,0.3,0.5,0.8,0.5,1.2
		c0,0.5-0.2,0.9-0.5,1.2c-0.3,0.3-0.8,0.5-1.2,0.5s-0.9-0.2-1.2-0.5L45.9,72c0.4,1.3,1,2.5,1.9,3.6c0.9,1,2,1.9,3.2,2.5
		c1.5,0.7,3.2,1,4.9,0.9c1.7-0.1,3.3-0.7,4.6-1.7c0.4-0.3,0.8-0.4,1.3-0.3c0.4,0.1,0.8,0.3,1.1,0.7s0.4,0.8,0.3,1.3
		C63.1,79.4,62.8,79.8,62.5,80.1z M75,56.1C62.7,37.7,33.7,44.7,31.1,66.8c-2.1,15,11.7,28.8,26.7,26.7C75.4,91.7,85.2,70.6,75,56.1
		z"/>
	<path d="M54.8,94.2c-6.2,0-12.3-2.6-17-7.3c-5.5-5.5-8.1-12.9-7.1-20.2c1.2-10.4,8.4-18.4,18.7-20.9c10.3-2.5,20.3,1.4,26.1,10.1
		c4.8,6.9,5.5,15.9,1.8,23.9C73.6,87.8,66.4,93.1,57.9,94C56.9,94.1,55.8,94.2,54.8,94.2z M55.4,46c-1.9,0-3.9,0.2-5.9,0.7
		c-9.9,2.4-16.8,10.1-18,20.1c-1,7,1.5,14.1,6.8,19.4c5.3,5.3,12.3,7.8,19.3,6.8c8.1-0.8,15.1-5.9,18.6-13.7
		c3.5-7.7,2.9-16.3-1.8-22.9l0,0C70.1,49.7,63.1,46,55.4,46z M55.3,83c-1.8,0-3.5-0.3-5.3-1.1c-4.1-1.7-7-5-8-9L41.9,73
		c-0.4,0.4-1,0.6-1.6,0.6c-0.6,0-1.1-0.2-1.5-0.6c-0.4-0.4-0.6-1-0.6-1.5c0-0.6,0.2-1.1,0.6-1.6l3.6-3.6l0,0
		c0.3-0.2,0.5-0.5,0.8-0.6l0.2-0.1c0.3-0.1,0.6-0.1,0.9-0.1c0.3,0,0.7,0.2,0.9,0.3c0.1,0.1,0.3,0.2,0.4,0.3l3.7,3.7
		c0.4,0.4,0.6,1,0.6,1.6c0,0.6-0.2,1.1-0.7,1.5c-0.4,0.4-1,0.6-1.6,0.6c-0.3,0-0.5,0-0.7-0.1c0.3,0.6,0.7,1.2,1.2,1.8
		c0.8,1,1.8,1.8,3,2.4c1.4,0.7,3,1,4.6,0.8c1.6-0.1,3.1-0.7,4.4-1.6c0.5-0.3,1.1-0.5,1.6-0.4c0.6,0.1,1.1,0.4,1.4,0.9
		c0.3,0.5,0.5,1.1,0.4,1.6c-0.1,0.6-0.4,1.1-0.9,1.4C60.6,82.1,58,83,55.3,83z M42.7,70.8l0.1,1c0.6,4.1,3.4,7.5,7.5,9.2
		c4.1,1.7,8.5,1.2,11.8-1.3l0,0c0.3-0.2,0.4-0.5,0.5-0.8c0-0.3,0-0.6-0.2-0.9c-0.2-0.3-0.5-0.4-0.8-0.5c-0.3-0.1-0.6,0-0.9,0.2
		c-1.4,1-3.1,1.6-4.9,1.8c-1.8,0.2-3.5-0.2-5.1-0.9c-1.3-0.6-2.4-1.5-3.3-2.6c-0.9-1.1-1.6-2.4-2-3.8l-0.5-1.8l2,2
		c0.2,0.2,0.5,0.3,0.9,0.3c0.3,0,0.6-0.1,0.9-0.4c0.2-0.2,0.4-0.5,0.4-0.9c0-0.3-0.1-0.6-0.3-0.9l-3.7-3.7c-0.1-0.1-0.1-0.1-0.2-0.1
		c-0.2-0.1-0.4-0.2-0.5-0.2c-0.2,0-0.4,0-0.5,0.1l0,0c-0.3,0.2-0.5,0.4-0.7,0.6l-2.6,2.6l0-0.1l-0.9,0.9c-0.2,0.2-0.3,0.5-0.3,0.8
		c0,0.3,0.1,0.6,0.4,0.8c0.2,0.2,0.5,0.4,0.8,0.4c0.3,0,0.6-0.1,0.9-0.3L42.7,70.8z M66.1,73.6c-0.1,0-0.2,0-0.3,0
		c-0.5-0.1-0.9-0.3-1.3-0.6l-3.7-3.7c-0.4-0.4-0.6-1-0.6-1.6s0.2-1.1,0.7-1.5c0.4-0.4,1-0.6,1.5-0.6c0.3,0,0.5,0,0.7,0.1
		c-0.3-0.7-0.8-1.3-1.3-1.9c-1.5-1.7-3.5-2.7-5.7-3c-2.2-0.3-4.4,0.3-6.2,1.6c-0.5,0.3-1.1,0.5-1.6,0.4c-0.6-0.1-1.1-0.4-1.4-0.9
		c-0.3-0.5-0.5-1.1-0.4-1.6c0.1-0.6,0.4-1.1,0.9-1.4c3.6-2.7,8.3-3.2,12.8-1.4c4.1,1.7,7,5,8,9l0.2-0.2c0.4-0.4,1-0.6,1.6-0.6
		c0.6,0,1.1,0.2,1.5,0.6c0.4,0.4,0.6,1,0.6,1.5c0,0.6-0.2,1.1-0.6,1.6l0,0c-0.1,0.1-0.5,0.5-1.1,1.1c-2.4,2.4-2.9,2.9-3.1,3
		C66.8,73.5,66.4,73.6,66.1,73.6z M62.4,66.5C62.4,66.5,62.4,66.5,62.4,66.5c-0.3,0-0.6,0.1-0.9,0.4c-0.2,0.2-0.4,0.5-0.4,0.9
		c0,0.3,0.1,0.6,0.3,0.9l3.7,3.7c0.2,0.2,0.4,0.3,0.7,0.3s0.5,0,0.8-0.2l0,0c0.3-0.2,1.9-1.9,2.8-2.8c0.5-0.5,1-1,1.1-1.1
		c0.2-0.2,0.3-0.5,0.3-0.8c0-0.3-0.1-0.6-0.4-0.8s-0.5-0.4-0.8-0.4c0,0,0,0,0,0c-0.3,0-0.6,0.1-0.8,0.3l-1.5,1.5l-0.1-1
		c-0.6-4.1-3.4-7.5-7.5-9.2c-4.1-1.7-8.5-1.2-11.8,1.3c-0.3,0.2-0.4,0.5-0.5,0.8c-0.1,0.3,0,0.6,0.2,0.9c0.2,0.3,0.5,0.4,0.8,0.5
		c0.3,0.1,0.6,0,0.9-0.2c2-1.4,4.5-2,6.9-1.7c2.4,0.3,4.7,1.5,6.3,3.3c1,1.1,1.7,2.5,2.1,3.9l0.5,1.8l-1.9-1.9
		C63,66.6,62.7,66.5,62.4,66.5z"/>
</g>
<path d="M89,37.1c-1.4-2.5-3.5-4.7-5.9-6.2c-2.5-1.5-5.3-2.4-8.2-2.6c-8.2-16-31.6-16-39.7,0c-2.9,0.2-5.7,1.1-8.2,2.6
	s-4.5,3.7-5.9,6.2c-4.2,0.7-8,3.1-10.7,6.5c-2.6,3.4-3.9,7.7-3.5,12c0.4,4.3,2.3,8.3,5.5,11.2c3.2,2.9,7.3,4.5,11.6,4.5h3.5
	c-0.1-1.3-0.1-2.5,0-3.8c0.6-6.9,3.7-13.4,8.8-18.1S48.1,42.1,55,42c15.4-0.4,28.8,13.9,27.5,29.2l3.5,0
	C107,70.7,109.5,41.3,89,37.1z"/>
</svg>
