<?xml version="1.0" encoding="utf-8"?>
<!-- Generator: Adobe Illustrator 23.0.3, SVG Export Plug-In . SVG Version: 6.00 Build 0)  -->
<svg version="1.1" id="Слой_1" xmlns="http://www.w3.org/2000/svg" xmlns:xlink="http://www.w3.org/1999/xlink" x="0px" y="0px"
	 viewBox="0 0 80 80" style="enable-background:new 0 0 80 80;" xml:space="preserve">
<style type="text/css">
	.st0{fill:#FFD209;}
</style>
<path d="M67.5,60c0,4.1-3.4,7.5-7.5,7.5H20c-4.1,0-7.5-3.4-7.5-7.5V27.5h55V60z M50,15c1.4,0,2.5,1.1,2.5,2.5S51.4,20,50,20
	s-2.5-1.1-2.5-2.5S48.6,15,50,15z M60,15c1.4,0,2.5,1.1,2.5,2.5S61.4,20,60,20s-2.5-1.1-2.5-2.5S58.6,15,60,15z M60,7.5H20
	C13.1,7.5,7.5,13.1,7.5,20v40c0,6.9,5.6,12.5,12.5,12.5h40c6.9,0,12.5-5.6,12.5-12.5V20C72.5,13.1,66.9,7.5,60,7.5z"/>
<g>
	<path class="st0" d="M35,45h2.5v-2.5c0-1.4,1.1-2.5,2.5-2.5s2.5,1.1,2.5,2.5V45H45c1.4,0,2.5,1.1,2.5,2.5S46.4,50,45,50h-2.5v2.5
		c0,1.4-1.1,2.5-2.5,2.5s-2.5-1.1-2.5-2.5V50H35c-1.4,0-2.5-1.1-2.5-2.5S33.6,45,35,45z M27.5,62.5h25c4.1,0,7.5-3.4,7.5-7.5V40
		c0-4.1-3.4-7.5-7.5-7.5h-25c-4.1,0-7.5,3.4-7.5,7.5v15C20,59.1,23.4,62.5,27.5,62.5z"/>
	<path d="M52.5,63h-25c-4.4,0-8-3.6-8-8V40c0-4.4,3.6-8,8-8h25c4.4,0,8,3.6,8,8v15C60.5,59.4,56.9,63,52.5,63z M27.5,33
		c-3.9,0-7,3.1-7,7v15c0,3.9,3.1,7,7,7h25c3.9,0,7-3.1,7-7V40c0-3.9-3.1-7-7-7H27.5z M40,55.5c-1.7,0-3-1.3-3-3v-2h-2
		c-1.7,0-3-1.3-3-3s1.3-3,3-3h2v-2c0-1.7,1.3-3,3-3s3,1.3,3,3v2h2c1.7,0,3,1.3,3,3s-1.3,3-3,3h-2v2C43,54.2,41.7,55.5,40,55.5z
		 M35,45.5c-1.1,0-2,0.9-2,2s0.9,2,2,2h3v3c0,1.1,0.9,2,2,2s2-0.9,2-2v-3h3c1.1,0,2-0.9,2-2s-0.9-2-2-2h-3v-3c0-1.1-0.9-2-2-2
		s-2,0.9-2,2v3H35z"/>
</g>
</svg>
