<?xml version="1.0" encoding="utf-8"?>
<!-- Generator: Adobe Illustrator 23.0.3, SVG Export Plug-In . SVG Version: 6.00 Build 0)  -->
<svg version="1.1" id="Слой_1" xmlns="http://www.w3.org/2000/svg" xmlns:xlink="http://www.w3.org/1999/xlink" x="0px" y="0px"
	 viewBox="0 0 80.5 80.5" style="enable-background:new 0 0 80.5 80.5;" xml:space="preserve">
<style type="text/css">
	.st0{fill:#FFD209;}
</style>
<g>
	<g>
		<path class="st0" d="M71.2,53.9c-0.2,0.1-0.3,0.2-0.5,0.3l-40.1,17v0.6h39.3c1,0,1.8-0.8,1.8-1.8V55
			C71.8,54.5,71.6,54.1,71.2,53.9z"/>
		<path d="M69.9,72.1H30.6c-0.3,0-0.4-0.2-0.4-0.4v-0.6c0-0.2,0.1-0.3,0.3-0.4l40.2-17c0.2-0.1,0.3-0.2,0.5-0.3s0.4-0.1,0.5,0.1
			c0.3,0.4,0.6,0.9,0.6,1.5v14.9C72.1,71.1,71.1,72.1,69.9,72.1z M31.1,71.3h38.8c0.8,0,1.4-0.6,1.4-1.4V55c0-0.3-0.1-0.5-0.2-0.7
			c-0.1,0-0.2,0.1-0.2,0.1L31.1,71.3z"/>
	</g>
	<g>
		<path class="st0" d="M69.4,50.6c0.1-0.1,0.7-0.3,1-1c0.3-0.7,0-1.4,0-1.4l-5.8-13.7c-0.2-0.4-0.5-0.7-0.8-0.9
			c-0.1,0.2-0.3,0.3-0.3,0.4L31.8,66.5C44.4,61.1,56.8,55.9,69.4,50.6z"/>
		<path d="M31.8,66.9c-0.2,0-0.3-0.1-0.3-0.2c-0.1-0.2-0.1-0.4,0.1-0.5l31.5-32.6c0.1-0.1,0.3-0.3,0.3-0.4c0.1-0.2,0.3-0.2,0.5-0.1
			c0.5,0.3,0.8,0.6,1.1,1.1L70.7,48c0.1,0.3,0.3,0.9,0,1.8c-0.3,0.8-0.9,1.1-1.2,1.3l0,0L32,66.9C31.9,66.9,31.8,66.9,31.8,66.9z
			 M63.7,34.1c-0.1,0.1-0.1,0.1-0.2,0.2L33.4,65.4l35.8-15.1c0.2-0.1,0.6-0.3,0.8-0.8c0.3-0.6,0.1-0.9,0-1.1l-5.8-13.7
			C64.1,34.4,64,34.3,63.7,34.1z"/>
	</g>
	<g>
		<path class="st0" d="M60.6,31.4c0.1-0.1,0.6-0.6,0.6-1.4c0-0.7-0.5-1.2-0.6-1.3L50,18.5c-0.3-0.3-0.7-0.5-1.2-0.6
			c-0.1,0.2-0.1,0.3-0.2,0.5L32.3,60.7C41.7,51,51.2,41.1,60.6,31.4z"/>
		<path d="M32.3,61.1c-0.1,0-0.2,0-0.3-0.1c-0.2-0.1-0.3-0.3-0.2-0.5l16.3-42.2c0.1-0.2,0.1-0.3,0.2-0.5c0.1-0.2,0.3-0.3,0.4-0.3
			c0.6,0,1,0.3,1.4,0.6l10.7,10.3c0.3,0.2,0.6,0.7,0.7,1.6c0,0.8-0.5,1.4-0.6,1.6l0,0L32.6,60.9C32.5,61.1,32.4,61.1,32.3,61.1z
			 M49.1,18.3c0,0.1-0.1,0.2-0.1,0.3L33.3,59l27-27.9c0.2-0.2,0.4-0.5,0.4-1s-0.3-0.9-0.5-1L49.5,18.8
			C49.5,18.6,49.3,18.4,49.1,18.3z"/>
	</g>
	<g>
		<path class="st0" d="M30.6,54.5c4.8-12.5,9.7-24.9,14.5-37.5c0.4-0.9-0.1-2-1-2.4L30.6,9.5c0,0.3,0.1,0.5,0.1,0.8L30.6,54.5
			L30.6,54.5z"/>
		<path d="M30.6,55L30.6,55c-0.3-0.1-0.4-0.3-0.4-0.4V10.3c0-0.3,0-0.5-0.1-0.7c0-0.2,0-0.3,0.2-0.4c0.1-0.1,0.3-0.1,0.4-0.1
			l13.5,5.3c1.2,0.5,1.8,1.8,1.3,3L31.1,54.7C31,54.9,30.8,55,30.6,55z M31.1,10c0,0.1,0,0.1,0,0.2v42.2L44.8,17
			c0.2-0.4,0.2-0.8,0-1.1c-0.2-0.3-0.5-0.6-0.8-0.8L31.1,10z"/>
	</g>
	<path d="M25.1,8.4H10.2c-1,0-1.8,0.8-1.8,1.8v44h18.5v-44C26.9,9.3,26.1,8.4,25.1,8.4z"/>
	<path d="M17.7,63c1,0,1.8,0.8,1.8,1.8s-0.8,1.8-1.8,1.8s-1.8-0.8-1.8-1.8C15.9,63.8,16.6,63,17.7,63z M8.4,69.9
		c0,1,0.8,1.8,1.8,1.8h16.7V57.9H8.4V69.9z"/>
</g>
</svg>
