<?xml version="1.0" encoding="utf-8"?>
<!-- Generator: Adobe Illustrator 23.0.3, SVG Export Plug-In . SVG Version: 6.00 Build 0)  -->
<svg version="1.1" id="Слой_1" xmlns="http://www.w3.org/2000/svg" xmlns:xlink="http://www.w3.org/1999/xlink" x="0px" y="0px"
	 viewBox="0 0 90 90" style="enable-background:new 0 0 90 90;" xml:space="preserve">
<style type="text/css">
	.st0{fill:#FFD209;}
</style>
<g>
	<circle cx="45" cy="18.4" r="14.1"/>
	<circle cx="17.6" cy="65.8" r="14.1"/>
	<g>
		<path class="st0" d="M13.1,50c0.1,0,0.3,0,0.4,0c0.8,0,1.7-0.3,2.3-0.9c0.7-0.6,1-1.4,1.1-2.3c0.4-3.7,1.5-7.2,3.3-10.4
			c1.8-3.2,4.1-6.1,7-8.3c0.8-0.6,1.1-1.4,1.2-2.3c0.1-0.9-0.2-1.9-0.8-2.5c-0.6-0.8-1.4-1.2-2.3-1.3s-1.9,0.2-2.5,0.8
			c-3.6,2.9-6.6,6.4-8.7,10.4s-3.6,8.4-4.1,13c-0.1,0.9,0.2,1.9,0.8,2.6C11.4,49.4,12.3,49.9,13.1,50z"/>
		<path d="M13.6,50.6c-0.2,0-0.3,0-0.5,0l0,0c-1-0.1-2-0.7-2.6-1.5c-0.7-0.8-0.9-1.9-0.8-2.9c0.5-4.7,1.9-9.1,4.1-13.1
			s5.3-7.7,8.9-10.6c0.8-0.7,1.9-0.9,2.9-0.8s2,0.7,2.6,1.4c0.7,0.8,0.9,1.9,0.8,2.9c-0.1,1-0.6,2-1.4,2.6c-2.8,2.3-5.2,5.1-6.9,8.3
			s-2.8,6.7-3.2,10.2c-0.1,0.9-0.6,1.9-1.3,2.5C15.5,50.2,14.5,50.5,13.6,50.6z M13.2,49.5c0.8,0.1,1.7-0.2,2.3-0.8
			c0.6-0.5,0.9-1.2,1-2c0.4-3.8,1.5-7.3,3.4-10.6c1.8-3.3,4.2-6.2,7.1-8.5c0.6-0.5,1-1.2,1-2.1c0.1-0.8-0.2-1.6-0.7-2.3
			c-0.5-0.7-1.2-1-2.1-1.1c-0.8-0.1-1.6,0.1-2.3,0.7c-3.6,2.8-6.5,6.3-8.6,10.3s-3.6,8.3-4,12.8c-0.1,0.8,0.2,1.6,0.7,2.3
			C11.7,49.1,12.4,49.4,13.2,49.5z"/>
	</g>
	<g>
		<path class="st0" d="M54.4,76.5c-6.1,2.2-12.7,2.2-18.8,0c-0.8-0.3-1.9-0.3-2.7,0.2c-0.8,0.4-1.5,1.1-1.8,2
			c-0.3,0.8-0.3,1.9,0.2,2.7c0.4,0.8,1.1,1.5,2,1.8c7.6,2.6,15.9,2.6,23.4,0c0.8-0.3,1.6-0.9,2-1.8s0.5-1.8,0.2-2.7
			c-0.3-0.8-0.9-1.6-1.8-2S55.2,76.3,54.4,76.5z"/>
		<path d="M45,85.6c-4,0-8.1-0.7-11.9-2.1c-1-0.4-1.8-1.1-2.3-2.1c-0.5-0.9-0.6-2.1-0.2-3c0.4-1,1.1-1.8,2.1-2.3s2.1-0.6,3-0.2
			c5.9,2.1,12.5,2.1,18.5,0c1-0.4,2.1-0.3,3,0.2c0.9,0.5,1.7,1.3,2.1,2.3c0.4,1,0.3,2.1-0.2,3c-0.5,0.9-1.3,1.7-2.3,2.1
			C53.1,85,49,85.6,45,85.6z M34.4,76.8c-0.5,0-0.9,0.1-1.3,0.3c-0.8,0.4-1.3,0.9-1.6,1.8c-0.3,0.8-0.2,1.6,0.1,2.3
			c0.4,0.8,0.9,1.3,1.8,1.6c7.5,2.6,15.7,2.6,23.2,0c0.8-0.3,1.4-0.8,1.8-1.6c0.4-0.8,0.4-1.6,0.1-2.3c-0.3-0.8-0.8-1.4-1.6-1.8
			c-0.8-0.4-1.6-0.4-2.3-0.1l0,0c-6.2,2.2-12.9,2.2-19,0C35.2,76.9,34.8,76.8,34.4,76.8z"/>
	</g>
	<g>
		<path class="st0" d="M73,46.9c0.1,0.8,0.5,1.7,1.1,2.3c0.7,0.6,1.5,0.9,2.3,0.9c0.1,0,0.3,0,0.4,0c0.5-0.1,0.9-0.2,1.3-0.4
			s0.8-0.6,1-0.8c0.3-0.4,0.5-0.8,0.7-1.2c0.1-0.5,0.2-0.9,0.1-1.4c-0.9-8.6-5.1-16.5-11.5-22.3c-0.7-0.7-1.6-0.9-2.5-0.8
			c-0.9,0.1-1.8,0.5-2.4,1.1c-0.7,0.7-0.9,1.6-0.9,2.5s0.5,1.8,1.1,2.4C68.9,33.7,72.2,40.1,73,46.9z"/>
		<path d="M76.4,50.6c-0.9,0-2-0.4-2.6-1c-0.8-0.7-1.2-1.6-1.3-2.5c-0.8-6.8-3.9-13-9.1-17.5c-0.8-0.8-1.2-1.7-1.3-2.7
			c-0.1-1,0.3-2.1,1-2.9c0.8-0.8,1.7-1.2,2.7-1.3s2.1,0.3,2.9,0.9c6.6,5.8,10.7,13.9,11.6,22.6c0.1,0.6,0,1-0.1,1.6
			c-0.2,0.5-0.4,0.9-0.8,1.4c-0.4,0.4-0.8,0.8-1.2,1c-0.5,0.3-0.9,0.4-1.5,0.5C76.8,50.5,76.6,50.6,76.4,50.6z M66.1,23.4
			c-0.1,0-0.1,0-0.2,0c-0.8,0.1-1.6,0.4-2.1,1c-0.6,0.6-0.8,1.4-0.8,2.2c0,0.8,0.4,1.6,1,2.1c5.3,4.7,8.5,11.2,9.4,18.1l0,0
			c0.1,0.8,0.5,1.4,1,2c0.7,0.6,1.5,0.8,2.3,0.8c0.4,0,0.8-0.2,1.1-0.4c0.4-0.2,0.7-0.5,0.9-0.8c0.3-0.3,0.5-0.7,0.6-1
			c0.1-0.4,0.2-0.8,0.1-1.2c-0.9-8.5-5-16.3-11.3-22C67.6,23.7,66.9,23.4,66.1,23.4z"/>
	</g>
	<circle cx="72.4" cy="65.8" r="14.1"/>
</g>
</svg>
