<svg width="24" height="24" viewBox="0 0 24 24" fill="none" xmlns="http://www.w3.org/2000/svg">
<g clip-path="url(#clip0_4005_363)">
<path d="M21.999 9.24185C21.9988 8.42378 21.3461 7.76077 20.5408 7.76103C19.7356 7.76038 19.0829 8.42457 19.083 9.2427L19.084 15.4458C19.084 16.2647 19.7364 16.9266 20.5422 16.9268C20.7337 16.9268 20.9233 16.8885 21.1003 16.814C21.2772 16.7395 21.4379 16.6304 21.5733 16.4928C21.7087 16.3552 21.8161 16.1918 21.8893 16.0121C21.9625 15.8323 22.0001 15.6397 22 15.4451L21.9989 9.24191L21.999 9.24185ZM5.483 8.0426L5.48525 17.6555C5.48461 18.53 6.1808 19.2357 7.04118 19.2359L8.10069 19.2364L8.10197 22.5185C8.10178 23.3355 8.75571 24 9.55913 24C10.3649 24 11.0177 23.3351 11.0179 22.5176L11.0171 19.236L12.9858 19.2356L12.9867 22.5176C12.9865 23.3343 13.6408 23.9997 14.4443 23.9984C15.2501 23.999 15.9032 23.3341 15.9031 22.5163L15.9022 19.2353L16.9654 19.2344C17.8236 19.2347 18.5218 18.5279 18.5219 17.6535L18.5203 8.04045L5.48307 8.04267L5.483 8.0426ZM14.99 5.10898C14.6863 5.1093 14.4384 4.8592 14.4392 4.54968C14.4402 4.24316 14.686 3.99019 14.9903 3.98915C15.1361 3.99038 15.2755 4.04995 15.3784 4.15494C15.4813 4.25993 15.5392 4.40188 15.5398 4.55001C15.5398 4.62339 15.5257 4.69607 15.4981 4.7639C15.4705 4.83172 15.43 4.89335 15.379 4.94527C15.3279 4.99718 15.2673 5.03836 15.2005 5.06645C15.1338 5.09455 15.0622 5.10899 14.99 5.10898ZM9.00885 5.11008C8.86318 5.10955 8.72365 5.05044 8.62078 4.94567C8.51791 4.84091 8.46007 4.69902 8.45991 4.55105C8.46004 4.24368 8.70587 3.99097 9.00936 3.99103C9.15548 3.99127 9.29555 4.05034 9.39889 4.15528C9.50222 4.26022 9.5604 4.40249 9.56067 4.55092C9.5608 4.8592 9.31388 5.10989 9.00885 5.11008ZM15.2183 2.19262L16.2361 0.304624C16.2904 0.205989 16.2554 0.0803182 16.1563 0.0246165C16.0571 -0.028805 15.9344 0.0074821 15.8819 0.106833L14.8538 2.01457C13.988 1.62368 13.0207 1.40413 11.9964 1.4053C10.9747 1.40445 10.0072 1.6229 9.14572 2.01118L8.1166 0.108398C8.06298 0.00806956 7.9399 -0.0282838 7.84274 0.0263104C7.74365 0.0803834 7.70806 0.206316 7.76238 0.304755L8.78066 2.19145C6.77995 3.24033 5.4283 5.23543 5.42926 7.52682L18.5642 7.52552C18.5646 5.23445 17.2153 3.24281 15.2176 2.19216M3.45812 7.76233C2.65284 7.76194 2.00019 8.42685 2 9.24354L2.00109 15.4465C2.00098 15.6411 2.03863 15.8338 2.11188 16.0136C2.18513 16.1934 2.29255 16.3568 2.428 16.4944C2.56345 16.632 2.72427 16.7411 2.90127 16.8155C3.07826 16.89 3.26797 16.9282 3.45953 16.9282C3.65108 16.9283 3.84078 16.8901 4.01776 16.8157C4.19475 16.7413 4.35555 16.6321 4.49096 16.4945C4.62636 16.3569 4.73372 16.1935 4.80687 16.0137C4.88002 15.8339 4.91753 15.6411 4.91726 15.4466L4.91739 9.2427C4.91707 8.42561 4.26347 7.76188 3.45812 7.76233Z" fill="#03081E"/>
</g>
<defs>
<clipPath id="clip0_4005_363">
<rect width="20" height="24" fill="white" transform="translate(2)"/>
</clipPath>
</defs>
</svg>
