<svg width="24" height="24" viewBox="0 0 24 24" fill="none" xmlns="http://www.w3.org/2000/svg">
<path d="M0.111572 17.7167H2.09625V9.26798H0.111572V17.7167ZM1.09993 8.16001C1.72164 8.16001 2.20784 7.68177 2.20784 7.08399C2.20784 6.47822 1.72164 6 1.09993 6C0.486201 6 0 6.47824 0 7.08399C0 7.68179 0.486201 8.16001 1.09993 8.16001ZM8.70411 6.02385C5.34857 6.02385 3.24425 8.31141 3.24425 11.97C3.24425 15.6285 5.34837 17.9081 8.70411 17.9081C12.0517 17.9081 14.156 15.6285 14.156 11.97C14.156 8.31141 12.0519 6.02385 8.70411 6.02385ZM8.70411 7.77738C10.7525 7.77738 12.0596 9.40338 12.0596 11.9699C12.0596 14.5284 10.7525 16.1545 8.70411 16.1545C6.64773 16.1545 5.34857 14.5285 5.34857 11.9699C5.34857 9.40342 6.64777 7.77738 8.70411 7.77738ZM14.9932 14.4807C15.0809 16.6009 16.8185 17.9081 19.4647 17.9081C22.2464 17.9081 24 16.5371 24 14.3532C24 12.6395 23.0116 11.6751 20.6763 11.1411L19.3532 10.8382C17.9424 10.5034 17.3606 10.0571 17.3606 9.29191C17.3606 8.33545 18.2373 7.6978 19.5365 7.6978C20.8516 7.6978 21.7522 8.34343 21.8479 9.41944H23.8087C23.7609 7.39492 22.087 6.02391 19.5525 6.02391C17.0497 6.02391 15.2722 7.40282 15.2722 9.44332C15.2722 11.0853 16.2765 12.1055 18.3966 12.5917L19.8871 12.9425C21.3377 13.2852 21.9275 13.7634 21.9275 14.5924C21.9275 15.5488 20.9631 16.2343 19.5763 16.2343C18.1735 16.2343 17.1135 15.5409 16.9859 14.4808L14.9932 14.4807Z" fill="#03081E"/>
</svg>
