<svg width="24" height="24" viewBox="0 0 24 24" fill="none" xmlns="http://www.w3.org/2000/svg">
<path d="M22.1374 9.45161H22.0926V4.14446C22.0926 3.83029 21.9691 3.54979 21.756 3.33661C21.554 3.13464 21.2623 3 20.9481 3C20.3198 3 19.8149 3.50491 19.8149 4.13324V9.44039H1.86255C0.830295 9.44039 0 10.2707 0 11.3029V17.2272C0 18.2595 0.830295 19.0898 1.86255 19.0898H1.90743V20.4137C1.90743 20.7279 2.03086 21.0084 2.24404 21.2216C2.446 21.4236 2.73773 21.5582 3.05189 21.5582C3.68022 21.5582 4.18513 21.0533 4.18513 20.425V19.1122H19.8149V20.4362C19.8149 20.7504 19.9383 21.0309 20.1515 21.244C20.3534 21.446 20.6452 21.5806 20.9593 21.5806C21.5877 21.5806 22.0926 21.0757 22.0926 20.4474V19.1122H22.1374C23.1697 19.1122 24 18.2819 24 17.2496V11.3142C24 10.2931 23.1585 9.45161 22.1374 9.45161ZM18.0645 15.9705H15.7307V13.6367H18.0645V15.9705ZM22.2721 15.9705H19.9383V13.6367H22.2721V15.9705Z" fill="#03081E"/>
</svg>
